<?xml version="1.0" standalone="no"?>
<!DOCTYPE svg PUBLIC "-//W3C//DTD SVG 1.1//EN" "http://www.w3.org/Graphics/SVG/1.1/DTD/svg11.dtd" >
<svg xmlns="http://www.w3.org/2000/svg" xmlns:xlink="http://www.w3.org/1999/xlink" version="1.1">
<metadata>
Created by FontForge 20170910 at Thu Nov  7 12:37:48 2013
 By Jimmy Wärting
Copyright (c) 2013 by Carol Kemp. All rights reserved.
</metadata>
<defs>
<font id="McCainSunshinePro" horiz-adv-x="370" >
  <font-face 
    font-family="McCain Sunshine Pro"
    font-weight="400"
    font-stretch="normal"
    units-per-em="1000"
    panose-1="3 6 6 2 4 6 2 6 8 4"
    ascent="748"
    descent="-252"
    x-height="393"
    cap-height="613"
    bbox="-162 -212 942 818"
    underline-thickness="50"
    underline-position="-100"
    stemh="52"
    stemv="83"
    unicode-range="U+0020-2212"
  />
<missing-glyph horiz-adv-x="500" 
d="M125 63h250v623h-250v-623zM63 0v748h375v-748h-375z" />
    <glyph glyph-name=".notdef" horiz-adv-x="500" 
d="M125 63h250v623h-250v-623zM63 0v748h375v-748h-375z" />
    <glyph glyph-name="space" unicode=" " horiz-adv-x="128" 
 />
    <glyph glyph-name="exclam" unicode="!" horiz-adv-x="232" 
d="M112 27c0 -27 -20 -63 -60 -63c-23 0 -41 15 -41 43c0 38 31 64 60 64c26 0 41 -18 41 -44zM212 586c0 -40 -68 -354 -88 -454c-2 -10 -5 -18 -19 -18c-15 0 -58 14 -58 33c0 8 3 17 5 26c2 13 77 361 77 409c0 23 -5 26 -5 31c0 8 22 18 46 18c29 0 42 -17 42 -45z" />
    <glyph glyph-name="quotedbl" unicode="&#x22;" horiz-adv-x="298" 
d="M135 622c0 -30 -30 -116 -58 -182l-38 -7c10 52 24 120 24 160c0 12 -2 23 -2 27c0 2 2 3 8 6c19 9 49 17 58 17c7 0 8 -4 8 -21zM260 622c0 -30 -30 -116 -59 -182l-38 -7c10 52 24 120 24 160c0 12 -1 23 -1 27c0 2 2 3 7 6c20 9 49 17 58 17c7 0 9 -4 9 -21z" />
    <glyph glyph-name="numbersign" unicode="#" horiz-adv-x="623" 
d="M378 403c-45 -1 -87 -3 -126 -6c-1 -9 -3 -18 -5 -28c-8 -39 -15 -73 -21 -104c37 3 79 5 125 7c9 44 18 89 27 131zM613 433c0 -25 -26 -48 -42 -48c-8 0 -8 9 -47 14c-29 4 -55 5 -77 5c-3 -11 -5 -23 -7 -35c-7 -36 -14 -68 -20 -96h32c113 0 129 -12 129 -29
c0 -25 -26 -48 -42 -48c-7 0 -8 9 -47 14c-33 5 -59 5 -83 5c-11 -55 -17 -95 -17 -128c0 -56 17 -57 17 -65s-18 -22 -45 -22c-35 0 -42 31 -42 67c0 40 7 91 18 147c-45 -1 -87 -3 -126 -7c-9 -51 -15 -88 -15 -120c0 -56 17 -57 17 -65s-17 -22 -45 -22
c-34 0 -42 31 -42 67c0 37 7 83 16 133c-63 -7 -109 -16 -127 -21c-9 -2 -12 -3 -16 -3c-3 0 -5 2 -5 8c0 21 18 48 40 54c23 7 64 15 120 21c8 43 18 88 27 132c-69 -8 -119 -17 -138 -23c-9 -2 -12 -3 -16 -3c-3 0 -5 2 -5 8c0 21 18 48 40 54c24 8 69 16 130 22
c8 45 13 87 13 122c0 23 -6 25 -6 31c0 8 4 19 36 19c25 0 43 -17 43 -45s-6 -64 -17 -121c37 2 79 4 124 6c7 42 12 79 12 109c0 22 -6 25 -6 31c0 8 4 19 36 19c25 0 42 -17 42 -45c0 -34 -4 -64 -14 -113h24c113 0 131 -12 131 -29z" />
    <glyph glyph-name="percent" unicode="%" horiz-adv-x="565" 
d="M442 153c0 29 -17 47 -43 47c-42 0 -77 -49 -77 -134c0 -36 13 -56 42 -56c53 0 78 78 78 143zM213 534c0 29 -16 47 -42 47c-42 0 -78 -50 -78 -134c0 -36 13 -57 42 -57c54 0 78 79 78 144zM519 153c0 -118 -82 -184 -168 -184c-52 0 -109 26 -109 105
c0 94 59 172 169 172c56 0 108 -29 108 -93zM552 582c0 -5 -1 -11 -5 -17c-14 -28 -35 -48 -54 -69c-60 -67 -187 -198 -223 -239c-37 -42 -165 -189 -186 -230c-4 -8 -11 -18 -11 -29c0 -9 3 -11 3 -14s-5 -6 -16 -6s-33 6 -40 13c-11 10 -17 20 -17 33c0 10 3 19 9 33
c24 46 153 188 191 229c37 42 234 256 258 287c17 24 19 40 20 43c1 2 3 4 9 4c18 0 43 -14 55 -23c4 -3 7 -8 7 -15zM290 533c0 -117 -81 -183 -168 -183c-52 0 -108 26 -108 105c0 93 58 171 169 171c55 0 107 -29 107 -93z" />
    <glyph glyph-name="ampersand" unicode="&#x26;" horiz-adv-x="451" 
d="M253 83c-36 43 -71 96 -97 152c-40 -40 -69 -83 -69 -131c0 -33 17 -63 58 -63c34 0 72 17 108 42zM310 497c0 24 -11 47 -50 47c-44 0 -68 -38 -68 -81c0 -34 8 -72 21 -111c54 46 97 93 97 145zM489 40c0 -16 -55 -58 -95 -58c-29 0 -68 25 -109 65
c-55 -35 -117 -58 -181 -58c-71 0 -120 39 -120 107s71 133 149 193c-16 45 -26 91 -26 135c0 93 75 166 178 166c72 0 100 -40 100 -87c0 -76 -77 -138 -153 -201c24 -56 57 -111 93 -156c47 49 80 105 80 138c0 32 -15 29 -15 34c0 9 24 26 64 26c15 0 30 -11 30 -31
c0 -51 -49 -137 -124 -207c35 -37 71 -62 101 -65c15 -1 28 11 28 -1z" />
    <glyph glyph-name="quoteright" unicode="&#x2019;" horiz-adv-x="149" 
d="M123 556c0 -54 -53 -95 -81 -95c-4 0 -8 8 -8 10c0 1 0 2 1 3c14 10 29 28 29 40c-21 4 -33 19 -33 41c0 29 21 48 50 48c27 0 42 -16 42 -47z" />
    <glyph glyph-name="parenleft" unicode="(" horiz-adv-x="182" 
d="M206 616c0 -4 -3 -6 -6 -8c-5 -3 -14 -10 -22 -19c-74 -84 -108 -235 -108 -414c0 -65 17 -158 48 -179c8 -5 12 -7 12 -12c0 -3 -6 -10 -11 -15c-14 -14 -31 -25 -49 -25c-36 0 -83 81 -83 266c0 242 112 423 193 423c12 0 26 -7 26 -17z" />
    <glyph glyph-name="parenright" unicode=")" horiz-adv-x="216" 
d="M206 368c0 -242 -112 -424 -193 -424c-12 0 -26 8 -26 18c0 4 3 6 6 8c5 3 14 10 22 19c74 83 108 235 108 414c0 65 -17 158 -48 178c-8 6 -12 8 -12 12s5 10 11 15c17 16 31 25 49 25c36 0 83 -80 83 -265z" />
    <glyph glyph-name="asterisk" unicode="*" horiz-adv-x="314" 
d="M300 436c-3 -14 -22 -32 -31 -29c-7 1 -12 7 -26 12c-18 6 -32 10 -50 14c11 -24 31 -66 33 -80c2 -10 -16 -29 -28 -34c-8 -5 -11 -3 -14 2c-2 4 -13 45 -29 92c-14 -22 -30 -45 -42 -62c-13 -17 -21 -24 -36 -13c-11 9 -20 33 -14 41c4 5 8 3 22 18c13 15 30 32 43 49
c-62 5 -101 5 -106 6s-8 3 -5 13c2 12 16 34 27 35c10 1 38 -6 78 -11c-7 15 -17 32 -25 45c-11 17 -16 17 -19 22c-4 9 9 31 21 38c16 8 23 0 33 -19s20 -45 31 -71c23 47 43 86 46 90s6 5 14 -1c10 -7 24 -29 21 -39s-26 -42 -48 -78c25 -5 56 -8 77 -13s31 -9 27 -27z
" />
    <glyph glyph-name="plus" unicode="+" horiz-adv-x="435" 
d="M437 261c0 -21 -21 -53 -35 -53c-10 0 -12 9 -42 9c-38 0 -73 -1 -106 -3c-12 -61 -26 -126 -39 -174c-9 -32 -16 -46 -42 -39c-20 6 -46 34 -42 48c2 10 11 10 19 39c12 42 21 83 28 120c-96 -9 -156 -22 -164 -22c-7 0 -12 2 -12 17c0 19 13 56 27 61
c18 6 85 14 163 19c15 92 18 154 20 161s5 11 20 7c18 -5 50 -26 51 -42c2 -14 -5 -62 -15 -121c43 2 86 4 122 4c32 0 47 -3 47 -31z" />
    <glyph glyph-name="comma" unicode="," horiz-adv-x="148" 
d="M123 56c0 -54 -53 -95 -81 -95c-4 0 -8 8 -8 10c0 1 0 2 1 3c14 10 29 28 29 40c-21 4 -33 19 -33 41c0 29 21 48 50 48c27 0 42 -16 42 -47z" />
    <glyph glyph-name="hyphen" unicode="-" horiz-adv-x="220" 
d="M199 230c0 -14 -14 -34 -23 -34c-7 0 -8 7 -28 7c-77 0 -111 -15 -119 -15c-6 0 -9 1 -9 11c0 13 9 35 19 39c21 8 96 12 128 12c22 0 32 -2 32 -20z" />
    <glyph glyph-name="period" unicode="." horiz-adv-x="148" 
d="M134 60c0 -28 -20 -63 -61 -63c-23 0 -41 15 -41 43c0 38 31 64 60 64c27 0 42 -18 42 -44z" />
    <glyph glyph-name="slash" unicode="/" horiz-adv-x="463" 
d="M466 598c0 -5 -1 -11 -3 -17c-11 -28 -32 -52 -48 -74c-51 -68 -161 -200 -193 -242c-31 -43 -141 -191 -157 -233c-4 -9 -9 -19 -9 -29c1 -9 4 -11 5 -14c0 -4 -5 -7 -15 -7c-11 0 -24 6 -31 13c-11 10 -18 20 -19 33c-1 10 1 20 6 33c19 47 130 191 163 233
c32 42 202 259 221 291c15 24 15 40 17 43c0 2 2 4 8 4c17 0 35 -10 47 -19c4 -3 7 -8 8 -15z" />
    <glyph glyph-name="zero" unicode="0" horiz-adv-x="521" 
d="M395 415c0 87 -30 140 -87 140c-116 0 -189 -153 -189 -349c0 -97 37 -150 91 -150c103 0 185 159 185 359zM495 438c0 -220 -115 -437 -301 -437c-140 0 -175 112 -175 225c0 77 17 187 68 274c39 66 79 90 119 90c22 0 29 -3 39 -9c36 28 72 44 119 44
c79 0 131 -70 131 -187z" />
    <glyph glyph-name="one" unicode="1" horiz-adv-x="268" 
d="M247 577c1 -6 -2 -17 -6 -39c-11 -50 -64 -342 -87 -475c14 1 28 2 41 2c33 0 40 -7 40 -21s-17 -43 -27 -43c-6 0 -8 6 -28 6c-115 0 -180 -25 -188 -25c-5 0 -7 3 -7 9c0 15 10 43 26 51c8 4 28 8 54 12c18 113 73 398 83 448c1 7 -1 8 -6 3c-15 -12 -29 -23 -44 -23
c-19 0 -34 37 -35 48c0 4 1 6 3 6c8 2 24 10 30 13c39 24 57 40 72 50c18 13 25 18 31 18c14 0 47 -27 48 -40z" />
    <glyph glyph-name="two" unicode="2" horiz-adv-x="416" 
d="M394 510c0 -96 -90 -217 -277 -438c67 1 176 13 234 29c20 6 29 13 33 13c3 0 6 -2 6 -7c0 -38 -14 -57 -41 -71c-41 -21 -139 -22 -238 -30c-51 -3 -63 -9 -81 -9c-17 0 -30 42 -30 55s0 13 15 30c98 112 281 330 281 415c0 39 -25 61 -75 61c-27 0 -71 -15 -107 -51
c-15 -15 -13 -25 -19 -25c-7 0 -21 38 -22 56c-2 27 16 44 53 59c39 16 85 24 107 24c111 0 161 -45 161 -111z" />
    <glyph glyph-name="three" unicode="3" horiz-adv-x="433" 
d="M425 507c6 -78 -60 -143 -137 -169c-8 -3 -3 -5 -1 -5c64 -9 105 -50 110 -115c8 -112 -96 -218 -264 -218c-41 0 -75 12 -94 34c-10 11 -14 35 -15 55c-1 15 2 25 7 25s11 -13 20 -23c15 -16 39 -28 80 -28c101 0 173 59 166 149c-4 54 -35 82 -94 82
c-35 0 -57 -4 -69 -4c-20 0 -37 24 -39 48c-1 9 1 12 5 12h12c109 -2 227 43 220 139c-4 54 -45 74 -94 74c-62 0 -98 -15 -129 -47c-14 -15 -13 -25 -18 -25c-8 0 -21 38 -23 56c-2 27 16 44 53 60c40 16 70 20 128 20c111 0 170 -40 176 -120z" />
    <glyph glyph-name="four" unicode="4" horiz-adv-x="448" 
d="M260 489c1 5 -1 5 -4 2c-21 -26 -111 -150 -166 -219c33 7 77 14 131 19c13 69 28 140 39 198zM433 278c0 -13 -16 -42 -25 -42c-7 0 -8 6 -28 6c-27 0 -52 0 -76 -1c-15 -77 -24 -126 -24 -159c0 -48 17 -52 17 -60s-20 -22 -47 -22c-35 0 -62 20 -62 67
c0 34 10 96 22 166c-85 -9 -141 -22 -153 -22c-18 0 -57 38 -57 51c0 8 20 30 61 80c32 40 183 228 218 263c16 15 26 22 32 22c14 0 59 -25 59 -40c0 -26 -27 -125 -46 -235c-3 -19 -6 -37 -9 -54c23 1 48 2 74 2c31 0 44 -3 44 -22z" />
    <glyph glyph-name="five" unicode="5" horiz-adv-x="439" 
d="M438 608c1 -23 -14 -57 -60 -69c-58 -16 -148 -19 -192 -17c-12 -63 -29 -162 -30 -168c0 -6 -1 -5 8 -3c22 7 44 9 74 9c98 0 153 -53 159 -123c8 -113 -84 -239 -265 -239c-41 0 -76 12 -95 34c-10 11 -14 36 -15 55c-2 16 2 26 7 26s11 -14 20 -23
c15 -16 39 -29 79 -29c106 0 180 66 174 153c-4 54 -36 90 -98 90c-60 0 -84 -19 -100 -19c-12 0 -35 28 -35 34c-1 17 42 247 44 260c4 20 7 25 15 25s25 -12 71 -12c107 0 171 6 217 22c5 1 10 5 15 5c4 0 6 -5 7 -11z" />
    <glyph glyph-name="six" unicode="6" horiz-adv-x="458" 
d="M340 242c0 66 -24 105 -82 105c-73 0 -132 -80 -132 -178c0 -69 28 -116 82 -116c81 0 132 84 132 189zM432 262c0 -147 -97 -262 -242 -262c-107 0 -162 97 -162 215c0 202 130 405 340 405c34 0 46 -48 46 -63c0 -7 -2 -11 -6 -11s-13 6 -30 6
c-98 0 -211 -67 -240 -206c-2 -8 2 -8 7 -3c15 16 60 62 148 62c87 0 139 -50 139 -143z" />
    <glyph glyph-name="seven" unicode="7" horiz-adv-x="373" 
d="M410 560c0 -19 -56 -101 -126 -220c-78 -132 -146 -265 -146 -311c0 -12 3 -15 3 -21s-6 -10 -18 -10c-26 0 -72 24 -72 67c0 45 64 158 142 291c43 75 71 120 114 183c3 5 3 9 -2 9s-143 -15 -224 -15c-51 0 -65 45 -65 63c0 8 1 11 6 11c4 0 13 -2 29 -2
c153 0 233 10 314 10c26 0 45 -34 45 -55z" />
    <glyph glyph-name="eight" unicode="8" horiz-adv-x="467" 
d="M319 206c0 55 -33 93 -92 93c-53 0 -112 -48 -112 -139c0 -63 31 -107 85 -107c66 0 119 56 119 153zM351 490c0 55 -33 81 -83 81c-72 0 -112 -57 -112 -121c0 -48 22 -88 84 -88c69 0 111 61 111 128zM441 497c0 -85 -56 -138 -134 -158c-8 -2 -3 -5 0 -6
c75 -16 108 -55 108 -129c0 -101 -84 -204 -227 -204c-132 0 -171 86 -171 154c0 73 44 141 123 169c6 2 11 6 1 11c-35 18 -73 54 -73 120c0 111 97 168 200 168c111 0 173 -55 173 -125z" />
    <glyph glyph-name="nine" unicode="9" horiz-adv-x="441" 
d="M326 456c0 79 -29 113 -82 113c-81 0 -130 -86 -130 -197c0 -65 28 -101 82 -101c72 0 130 90 130 185zM422 413c0 -219 -129 -413 -339 -413c-34 0 -46 48 -46 63c0 7 1 11 6 11c4 0 12 -6 30 -6c98 0 213 63 241 202c3 15 0 14 -8 4c-20 -30 -73 -63 -133 -63
c-84 0 -152 53 -152 174c0 118 84 236 233 236c127 0 168 -99 168 -208z" />
    <glyph glyph-name="colon" unicode=":" horiz-adv-x="203" 
d="M134 60c0 -28 -20 -63 -61 -63c-23 0 -41 15 -41 43c0 38 31 64 60 64c27 0 42 -18 42 -44zM172 261c0 -28 -20 -64 -61 -64c-23 0 -41 16 -41 44c0 38 31 64 60 64c27 0 42 -18 42 -44z" />
    <glyph glyph-name="semicolon" unicode=";" horiz-adv-x="203" 
d="M123 56c0 -54 -53 -95 -81 -95c-4 0 -8 8 -8 10c0 1 0 2 1 3c14 10 29 28 29 40c-21 4 -33 19 -33 41c0 29 21 48 50 48c27 0 42 -16 42 -47zM169 261c0 -28 -20 -64 -61 -64c-23 0 -41 16 -41 44c0 38 31 64 60 64c27 0 42 -18 42 -44z" />
    <glyph glyph-name="less" unicode="&#x3c;" horiz-adv-x="342" 
d="M340 387c0 -31 -138 -119 -255 -175c73 -43 206 -147 206 -178c0 -26 -22 -58 -34 -58c-8 0 -11 15 -25 30c-62 68 -122 116 -200 182c-15 13 -30 25 -30 32s8 11 29 23c82 47 195 102 262 181c9 10 5 18 15 18c12 0 32 -29 32 -55z" />
    <glyph glyph-name="equal" unicode="=" horiz-adv-x="420" 
d="M375 178c0 -20 -20 -53 -35 -53c-9 0 -12 9 -42 9c-116 0 -256 -31 -268 -31c-8 0 -12 2 -12 17c0 19 13 56 27 61c32 12 234 28 283 28c32 0 47 -3 47 -31zM407 330c0 -20 -20 -53 -35 -53c-9 0 -12 9 -42 9c-116 0 -256 -31 -268 -31c-8 0 -12 2 -12 17
c0 19 13 56 27 61c32 12 234 28 283 28c32 0 47 -3 47 -31z" />
    <glyph glyph-name="greater" unicode="&#x3e;" horiz-adv-x="342" 
d="M340 198c0 -7 -8 -11 -29 -23c-82 -47 -195 -102 -262 -181c-9 -10 -5 -18 -15 -18c-12 0 -32 29 -32 55c0 31 138 119 255 175c-73 43 -206 147 -206 178c0 26 22 58 34 58c8 0 11 -15 25 -30c62 -68 121 -116 200 -182c15 -13 30 -24 30 -32z" />
    <glyph glyph-name="question" unicode="?" horiz-adv-x="391" 
d="M130 24c0 -27 -20 -63 -60 -63c-23 0 -42 15 -42 44c0 37 32 63 61 63c26 0 41 -18 41 -44zM365 500c0 -114 -122 -202 -164 -250c-33 -39 -62 -69 -62 -103c0 -10 4 -16 4 -21c0 -10 -19 -16 -33 -16c-30 0 -53 18 -53 52s31 69 55 97c92 110 152 163 152 241
c0 39 -33 62 -83 62c-28 0 -78 -11 -106 -42c-17 -17 -16 -28 -21 -28c-8 0 -23 29 -23 60c0 29 24 45 57 57s74 19 122 19c106 0 155 -49 155 -128z" />
    <glyph glyph-name="at" unicode="@" horiz-adv-x="721" 
d="M447 394c0 35 -16 70 -49 70c-64 0 -114 -103 -114 -214c0 -43 12 -76 50 -76c65 0 113 143 113 220zM720 359c0 -148 -113 -256 -224 -256c-44 0 -81 32 -80 85c-32 -51 -78 -76 -124 -76s-88 36 -88 129c0 161 106 275 227 275c45 0 86 -23 80 -85c13 -2 23 -5 23 -14
c0 -8 -3 -17 -5 -26c-1 -7 -32 -156 -32 -200c0 -35 13 -48 33 -48c55 0 109 79 109 209c0 121 -61 235 -227 235c-141 0 -306 -106 -306 -334c0 -167 100 -248 240 -248c76 0 155 26 208 61l35 -7c-26 -37 -136 -96 -259 -96c-178 0 -305 102 -305 280
c0 228 167 387 397 387c186 0 298 -109 298 -271z" />
    <glyph glyph-name="A" unicode="A" horiz-adv-x="492" 
d="M331 244c-11 85 -22 181 -33 266c0 2 -1 3 -2 0c-25 -77 -60 -176 -94 -267c18 3 39 4 68 4c23 0 43 -1 61 -3zM492 -8c0 -11 -24 -29 -58 -29c-49 0 -67 25 -87 161c-2 16 -5 34 -7 52c-24 4 -49 6 -84 6s-58 -2 -80 -6c-33 -85 -61 -153 -71 -169
c-14 -25 -31 -46 -56 -46c-31 0 -43 13 -43 19c0 5 16 10 35 42c55 93 215 493 215 552c0 20 -4 29 -4 33c0 8 31 14 58 14c46 0 73 -20 77 -64c3 -33 15 -152 28 -257c13 -115 33 -232 52 -272c17 -33 25 -29 25 -36z" />
    <glyph glyph-name="B" unicode="B" horiz-adv-x="466" 
d="M321 194c0 55 -24 93 -96 93c-21 0 -46 -3 -72 -7c-22 -108 -34 -179 -34 -211c0 -29 19 -46 47 -46c104 0 155 91 155 171zM356 483c0 43 -26 78 -84 78c-23 0 -45 -1 -65 -4c-6 -53 -25 -130 -42 -219c-1 -2 -1 -3 -1 -5c126 6 192 54 192 150zM452 502
c0 -76 -44 -140 -125 -179c58 -10 95 -50 95 -109c0 -155 -133 -247 -296 -247c-55 0 -103 23 -103 69c0 112 67 356 93 500c-23 -7 -39 -14 -50 -19c-6 -2 -8 -4 -11 -4c-2 0 -3 3 -3 9c0 24 13 53 28 61c47 25 131 41 231 41c67 0 141 -41 141 -122z" />
    <glyph glyph-name="C" unicode="C" horiz-adv-x="427" 
d="M447 512c0 -66 -46 -120 -112 -120c-4 0 -7 1 -7 4c0 4 4 7 9 14c7 11 24 36 24 83c0 38 -19 68 -61 68c-97 0 -183 -187 -183 -344c0 -122 42 -183 111 -183c97 0 157 76 194 124c3 4 6 9 10 9c3 0 4 -2 4 -5c0 -53 -91 -196 -245 -196c-89 0 -176 54 -176 206
c0 201 120 456 313 456c80 0 119 -53 119 -116z" />
    <glyph glyph-name="D" unicode="D" horiz-adv-x="517" 
d="M401 380c0 84 -12 181 -128 181c-24 0 -45 -1 -65 -4c-7 -53 -49 -249 -49 -251c-22 -108 -40 -205 -40 -237c0 -29 20 -46 48 -46c119 0 234 136 234 357zM498 379c0 -213 -150 -412 -371 -412c-56 0 -104 23 -104 68c0 112 67 357 93 501c-22 -7 -39 -14 -49 -19
c-6 -2 -9 -4 -11 -4c-3 0 -4 3 -4 9c0 24 14 53 29 61c47 25 130 40 220 40c147 0 197 -107 197 -244z" />
    <glyph glyph-name="E" unicode="E" horiz-adv-x="428" 
d="M451 587c0 -28 -30 -64 -41 -64c-6 0 -6 7 -34 16c-27 9 -62 9 -83 9c-34 0 -65 -2 -92 -4c-10 -49 -25 -112 -39 -190c41 7 107 12 142 12c32 0 46 -9 46 -29c0 -30 -28 -57 -37 -57s-16 16 -61 16c-39 0 -76 -6 -102 -11c-18 -108 -27 -169 -27 -211
c0 -19 9 -33 39 -33c52 0 114 8 168 26c37 12 47 22 52 22c2 0 3 -3 3 -5c0 -25 -23 -56 -56 -76c-56 -31 -173 -38 -223 -38c-57 0 -83 18 -83 67c0 99 56 358 80 490c-19 -5 -32 -10 -41 -14c-6 -2 -8 -4 -11 -4c-2 0 -3 3 -3 9c0 24 13 53 28 61c38 18 162 41 262 41
c98 0 113 -23 113 -33z" />
    <glyph glyph-name="F" unicode="F" horiz-adv-x="442" 
d="M469 590c0 -27 -30 -64 -41 -64c-6 0 -6 7 -34 16c-27 9 -62 9 -83 9c-38 0 -74 -2 -105 -5c-7 -48 -22 -113 -37 -187c41 6 102 10 135 10c32 0 46 -8 46 -28c0 -31 -28 -58 -37 -58s-16 16 -61 16c-37 0 -71 -5 -97 -10c-23 -114 -38 -183 -38 -234
c0 -56 17 -57 17 -65s-22 -22 -49 -22c-35 0 -62 21 -62 67c0 110 65 350 92 496c-23 -5 -39 -11 -49 -14c-6 -3 -8 -5 -11 -5c-2 0 -3 3 -3 9c0 24 13 54 28 61c38 18 176 41 276 41c98 0 113 -23 113 -33z" />
    <glyph glyph-name="G" unicode="G" horiz-adv-x="488" 
d="M488 251c0 -13 -14 -37 -24 -37c-6 0 -8 6 -28 6h-6c-9 -47 -42 -174 -42 -220c0 -10 -4 -15 -19 -15c-17 0 -42 14 -50 32c-19 -22 -49 -53 -123 -53c-89 0 -176 54 -176 206c0 201 125 456 319 456c80 0 118 -53 118 -116c0 -66 -45 -121 -111 -121c-4 0 -7 1 -7 5
s4 7 8 14c8 11 25 36 25 83c0 38 -19 68 -62 68c-96 0 -188 -187 -188 -344c0 -122 38 -181 107 -181c77 0 110 87 127 179c-44 -6 -78 -16 -83 -16s-8 2 -8 12c0 13 9 39 18 42c22 8 141 21 173 21c21 0 32 -2 32 -21z" />
    <glyph glyph-name="H" unicode="H" horiz-adv-x="523" 
d="M518 586c0 -51 -23 -144 -45 -256c-29 -143 -48 -224 -48 -281c0 -56 17 -57 17 -66c0 -8 -22 -21 -49 -21c-35 0 -62 21 -62 66c0 60 20 155 41 254c-24 3 -51 6 -85 6c-58 0 -103 -9 -143 -20c-23 -111 -37 -170 -37 -212c0 -48 19 -56 19 -64c0 -9 -22 -22 -50 -22
c-34 0 -61 19 -61 67c0 129 88 395 88 531c0 22 -6 25 -6 30c0 8 24 20 56 19c30 -1 46 -17 46 -45c0 -47 -20 -131 -41 -234c36 10 85 18 143 18c33 0 62 -2 86 -6c19 89 35 174 35 232c0 22 -6 25 -6 30c0 8 24 20 56 19c30 0 46 -17 46 -45z" />
    <glyph glyph-name="I" unicode="I" horiz-adv-x="316" 
d="M341 592c0 -14 -17 -43 -27 -43c-6 0 -8 6 -28 6c-15 0 -30 0 -45 -1c-11 -68 -29 -155 -46 -252c-21 -114 -31 -186 -45 -269c45 6 72 14 77 14s7 -3 7 -8c0 -16 -10 -44 -26 -51c-20 -11 -131 -21 -194 -21c-33 0 -40 7 -40 21c0 13 17 43 27 43c6 0 8 -6 28 -6h26
c24 170 76 379 91 521c-49 -6 -83 -13 -87 -13c-6 0 -8 3 -8 8c0 16 11 43 26 51c20 10 161 21 224 21c33 0 40 -7 40 -21z" />
    <glyph glyph-name="J" unicode="J" horiz-adv-x="509" 
d="M485 576c0 -74 -47 -300 -73 -402c-30 -117 -103 -208 -243 -208c-116 0 -177 69 -177 145c0 84 60 101 75 101c16 0 19 -1 15 -15c-23 -92 -1 -189 87 -189c93 0 132 89 160 198c23 92 52 276 52 334s-14 57 -14 65c0 9 27 29 75 29c27 0 43 -13 43 -58z" />
    <glyph glyph-name="K" unicode="K" horiz-adv-x="470" 
d="M469 568c0 -28 -27 -70 -221 -259c33 -69 130 -281 181 -309c8 -4 12 -3 15 -5c1 0 2 -1 2 -4c0 -9 -34 -30 -72 -30c-79 0 -141 178 -223 339c-27 -135 -44 -203 -44 -248c0 -49 19 -56 19 -65c0 -8 -22 -21 -50 -21c-34 0 -61 19 -61 66c0 129 88 395 88 531
c0 22 -6 25 -6 31c0 8 24 20 56 19c30 -1 46 -17 46 -45c0 -51 -23 -144 -46 -256c0 -4 -1 -7 -2 -10h1c80 70 198 196 232 248c13 21 13 36 12 44c-1 7 2 13 11 13c34 0 62 -20 62 -39z" />
    <glyph glyph-name="L" unicode="L" horiz-adv-x="392" 
d="M377 81c0 -26 -23 -57 -57 -76c-55 -32 -172 -38 -222 -38c-57 0 -83 18 -83 67c0 120 88 399 88 535c0 23 -6 25 -6 31c0 8 23 20 55 19c31 -1 47 -17 47 -45c0 -51 -23 -144 -46 -256c-28 -143 -42 -201 -42 -247c0 -20 9 -33 39 -33c51 0 118 8 172 25
c37 12 47 22 52 22c2 0 3 -2 3 -4z" />
    <glyph glyph-name="M" unicode="M" horiz-adv-x="655" 
d="M620 -17c0 -8 -19 -19 -47 -19c-48 0 -71 28 -71 164c0 124 11 307 11 317c0 7 -3 6 -4 1c-23 -65 -130 -345 -165 -435c-6 -16 -13 -24 -24 -24c-20 0 -48 6 -56 31c-9 25 -43 380 -48 419c-1 6 -4 8 -5 -1c-23 -132 -87 -367 -112 -432c-12 -33 -26 -45 -51 -45
c-31 0 -41 12 -41 18s15 14 27 40c58 124 133 432 133 545c0 30 -5 35 -5 39c0 7 31 16 58 16c53 0 65 -14 71 -58c8 -50 41 -342 47 -384c2 -9 3 -12 8 0c44 120 138 346 138 417c0 9 -2 13 -2 16c0 12 36 15 55 15c53 0 71 -22 70 -66c-1 -74 -28 -458 -5 -534
c11 -34 18 -31 18 -40z" />
    <glyph glyph-name="N" unicode="N" horiz-adv-x="517" 
d="M505 576c0 -64 -24 -200 -53 -302c-69 -244 -91 -268 -106 -278c-20 -14 -42 -25 -60 -25c-24 1 -44 57 -67 158c-23 98 -44 218 -67 345c-1 5 -7 7 -8 -1c-20 -186 -61 -423 -85 -472c-12 -26 -26 -37 -55 -37c-31 0 -41 13 -41 19c0 5 18 9 36 42
c43 79 102 482 102 541c0 21 -4 29 -4 33c0 9 43 16 70 15c29 -1 60 -13 70 -78c6 -33 23 -124 40 -228c15 -87 37 -177 49 -222c4 -14 10 -6 13 4c61 185 88 379 88 477c0 22 -9 25 -8 31c1 8 31 17 54 17c24 0 32 -21 32 -39z" />
    <glyph glyph-name="O" unicode="O" horiz-adv-x="531" 
d="M416 378c0 48 -5 87 -18 116c-9 -7 -29 -13 -39 -13c-13 0 -11 0 -10 10c1 47 -5 79 -48 79c-96 0 -186 -203 -186 -368c0 -122 36 -184 106 -184c117 0 195 203 195 360zM512 421c0 -269 -132 -456 -317 -456c-91 0 -180 54 -180 207c0 177 79 358 194 424
c39 21 78 32 120 32c50 0 79 -24 86 -42c7 3 16 5 21 5c22 0 36 -11 46 -25c15 -21 30 -65 30 -145z" />
    <glyph glyph-name="P" unicode="P" horiz-adv-x="446" 
d="M356 483c0 42 -26 78 -84 78c-23 0 -45 -2 -64 -4c-7 -54 -26 -131 -43 -220c-4 -18 -8 -36 -11 -52c136 11 202 101 202 198zM452 501c0 -120 -97 -260 -310 -274c-16 -78 -25 -131 -25 -171c0 -57 17 -57 17 -66c0 -8 -22 -22 -49 -22c-35 0 -62 22 -62 67
c0 112 67 356 93 501c-23 -8 -39 -15 -50 -19c-6 -3 -8 -4 -11 -4c-2 0 -3 2 -3 8c0 24 13 53 28 61c47 26 131 41 231 41c67 0 141 -41 141 -122z" />
    <glyph glyph-name="Q" unicode="Q" horiz-adv-x="565" 
d="M436 377c0 48 -6 87 -18 116c-9 -7 -30 -14 -39 -14c-13 0 -11 0 -11 11c2 47 -5 79 -47 79c-97 0 -186 -204 -186 -368c0 -122 36 -184 105 -184c7 0 14 1 21 3c-5 8 -9 16 -13 25c-19 38 -25 44 -29 49c-6 7 -9 3 -9 8c0 9 21 26 49 26c24 0 38 -16 57 -52
c2 -5 4 -9 6 -13c63 68 114 200 114 314zM532 420c0 -196 -70 -348 -179 -416c15 -28 23 -41 42 -65c30 -37 58 -52 83 -50c6 0 10 1 12 -2c4 -5 -9 -26 -36 -34c-54 -16 -99 11 -136 63c-12 17 -23 36 -34 57c-22 -6 -45 -9 -69 -9c-91 0 -180 54 -180 206
c0 177 79 359 194 424c38 22 77 33 120 33c50 0 79 -24 86 -43c7 4 16 5 21 5c22 0 35 -11 45 -24c16 -21 31 -65 31 -145z" />
    <glyph glyph-name="R" unicode="R" horiz-adv-x="459" 
d="M358 477c0 43 -30 78 -88 78c-22 0 -43 -1 -62 -4c-7 -53 -26 -130 -43 -220c-4 -16 -7 -31 -10 -46c130 12 203 96 203 192zM453 495c0 -91 -52 -192 -201 -229c39 -59 116 -236 168 -263c8 -5 12 -4 15 -5c1 -1 2 -2 2 -4c0 -10 -26 -31 -64 -31c-80 0 -93 64 -221 309
c-21 -107 -35 -173 -35 -222c0 -56 17 -57 17 -65c0 -9 -22 -22 -49 -22c-35 0 -62 21 -62 66c0 112 67 357 93 502c-24 -8 -41 -15 -52 -20c-6 -2 -8 -4 -11 -4c-2 0 -3 3 -3 9c0 24 13 53 28 61c47 25 131 40 230 40c68 0 145 -41 145 -122z" />
    <glyph glyph-name="S" unicode="S" horiz-adv-x="468" 
d="M491 522c0 -54 -52 -108 -107 -108c-5 0 -8 1 -8 4c0 1 2 3 4 6c6 7 21 27 21 64c0 62 -50 85 -107 85c-62 0 -125 -33 -125 -96c0 -123 239 -176 239 -320c0 -105 -81 -192 -231 -192c-146 0 -189 108 -181 163c1 4 2 6 4 6s3 -1 4 -5c16 -46 78 -108 172 -108
c75 0 130 40 130 99c0 136 -237 162 -237 336c0 103 106 168 250 168c122 0 172 -53 172 -102z" />
    <glyph glyph-name="T" unicode="T" horiz-adv-x="447" 
d="M461 583c0 -28 -30 -64 -41 -64c-6 0 -6 7 -34 15c-27 9 -62 10 -83 10h-3c-7 -53 -25 -127 -42 -213c-28 -143 -48 -224 -48 -281c0 -56 18 -57 18 -66c0 -8 -22 -21 -50 -21c-34 0 -61 21 -61 66c0 115 69 368 94 511c-90 -7 -163 -23 -183 -31c-6 -3 -9 -4 -12 -4
c-2 0 -3 2 -3 8c0 24 13 54 28 61c38 19 158 41 307 41c98 0 113 -23 113 -32z" />
    <glyph glyph-name="U" unicode="U" horiz-adv-x="490" 
d="M473 574c0 -64 -23 -232 -46 -323c-20 -81 -49 -159 -69 -193c-22 -36 -68 -93 -177 -93s-153 65 -153 142c0 123 51 344 51 453c0 22 -6 25 -6 30c0 8 24 20 56 19c31 0 47 -17 47 -45c0 -51 -20 -164 -37 -276c-11 -72 -19 -119 -19 -156c0 -86 38 -108 86 -108
c67 0 99 49 125 123c46 127 62 318 62 417c0 21 -9 25 -8 30c0 8 26 17 50 17s38 -19 38 -37z" />
    <glyph glyph-name="V" unicode="V" horiz-adv-x="504" 
d="M505 583c0 -67 -58 -203 -112 -317c-49 -105 -122 -229 -163 -290c-6 -9 -13 -13 -22 -13c-42 0 -66 21 -71 49c-25 160 -61 410 -79 537c-4 29 -16 35 -16 41c0 9 36 34 70 34c24 0 33 -11 38 -39c10 -52 20 -127 35 -238c13 -87 31 -201 40 -258c1 -8 6 -11 10 -3
c51 93 196 383 196 489c0 21 -9 25 -9 30c1 8 22 17 51 17c24 0 32 -20 32 -39z" />
    <glyph glyph-name="W" unicode="W" horiz-adv-x="680" 
d="M705 585c0 -64 -47 -217 -86 -319c-41 -108 -90 -219 -131 -280c-9 -13 -17 -21 -32 -21c-5 0 -52 8 -59 42c-15 79 -26 233 -37 365c-1 9 -3 9 -6 1c-10 -31 -19 -62 -24 -74c-87 -238 -142 -333 -172 -333s-53 18 -59 41c-30 126 -13 414 -44 547c-6 22 -14 22 -14 28
c0 9 36 39 70 39c25 0 33 -11 38 -39c9 -52 10 -146 16 -260c5 -99 13 -170 17 -216c1 -7 7 -11 11 -2c75 174 112 296 148 434c3 12 6 22 6 31c0 11 -6 20 -6 24c0 8 27 19 59 19c21 0 34 -2 38 -30c9 -56 12 -145 20 -259c4 -73 14 -160 21 -219c2 -14 6 -17 14 -1
c59 128 134 350 134 473c0 21 -9 25 -8 31c0 7 30 16 54 16s32 -20 32 -38z" />
    <glyph glyph-name="X" unicode="X" horiz-adv-x="478" 
d="M487 584c2 -32 -102 -158 -197 -273c0 -1 1 -2 1 -3c57 -135 82 -202 108 -241c27 -40 47 -36 51 -43c5 -7 -5 -30 -28 -46c-29 -19 -62 -18 -88 21c-32 47 -70 137 -108 232c-120 -149 -149 -198 -147 -239c0 -13 4 -16 4 -20c0 -5 -3 -8 -17 -8c-29 0 -58 24 -59 55
c-2 49 62 129 191 281c-40 99 -80 194 -115 245c-12 19 -19 18 -22 22c-4 7 9 30 36 48c25 16 48 11 64 -12c22 -33 63 -133 102 -226c55 68 110 142 130 179c19 34 19 57 21 62c1 3 3 5 11 5c37 2 62 -22 62 -39z" />
    <glyph glyph-name="Y" unicode="Y" horiz-adv-x="422" 
d="M434 588c0 -63 -135 -235 -213 -352c-24 -120 -27 -133 -27 -185c0 -56 17 -57 17 -65c0 -9 -21 -22 -49 -22c-34 0 -62 21 -62 66c0 61 9 107 30 207c-45 134 -82 240 -107 290c-22 45 -30 39 -30 48c0 12 39 44 71 44c20 0 28 -9 40 -37c15 -38 63 -171 94 -274
c0 0 -1 -1 0 0c49 72 127 192 144 231c25 56 18 65 18 73s7 12 22 12c32 0 52 -18 52 -36z" />
    <glyph glyph-name="Z" unicode="Z" horiz-adv-x="478" 
d="M507 552c0 -25 -133 -167 -222 -267s-152 -180 -182 -222c-9 -12 -4 -16 4 -16c51 0 144 -1 246 13c43 7 67 15 73 15c4 0 4 -3 4 -6c0 -20 -27 -54 -52 -65c-60 -26 -176 -32 -328 -32c-27 0 -66 42 -66 74c0 28 120 171 207 270c82 93 172 190 203 232c4 4 3 8 -2 8
s-158 -19 -239 -19c-51 0 -64 45 -64 63c0 8 0 11 5 11c4 0 9 -2 17 -2c161 0 245 15 331 15c14 0 23 -1 29 -7c13 -11 36 -46 36 -65z" />
    <glyph glyph-name="backslash" unicode="\" horiz-adv-x="467" 
d="M466 28c-1 -13 -8 -23 -19 -33c-8 -7 -20 -13 -32 -13c-9 0 -14 3 -14 7c0 3 3 5 4 14c1 10 -5 20 -8 29c-17 42 -127 190 -158 233c-31 42 -141 174 -192 242c-17 22 -37 46 -48 74c-3 6 -4 12 -3 17c0 7 3 12 7 15c12 9 31 19 48 19c5 0 7 -2 8 -4c1 -3 2 -19 16 -43
c20 -32 189 -249 222 -291c32 -42 144 -186 162 -233c5 -13 7 -23 7 -33z" />
    <glyph glyph-name="underscore" unicode="_" horiz-adv-x="278" 
d="M942 -97c0 -5 -6 -7 -12 -7c-213 1 -310 1 -400 1c-220 0 -428 -18 -470 -18c-19 0 -21 3 -21 11c0 14 37 40 59 43c59 7 224 7 374 7c177 0 399 -18 463 -32c6 -1 7 -2 7 -5z" />
    <glyph glyph-name="quoteleft" unicode="&#x2018;" horiz-adv-x="149" 
d="M123 555c0 -22 -12 -37 -33 -41c0 -12 16 -30 29 -40c1 -1 1 -2 1 -3c0 -2 -4 -10 -8 -10c-28 0 -81 41 -81 95c0 31 15 47 42 47c29 0 50 -19 50 -48z" />
    <glyph glyph-name="a" unicode="a" horiz-adv-x="367" 
d="M265 285c0 35 -17 70 -50 70c-64 0 -113 -103 -113 -214c0 -43 12 -76 49 -76c65 0 114 143 114 220zM351 308c0 -8 -3 -17 -4 -26c-1 -7 -36 -158 -36 -208c0 -51 19 -47 19 -58c0 -8 -12 -17 -41 -17c-38 0 -56 27 -55 80c-33 -51 -86 -76 -124 -76
c-46 0 -89 36 -89 129c0 161 107 275 228 275c44 0 85 -23 80 -85c12 -1 22 -5 22 -14z" />
    <glyph glyph-name="b" unicode="b" horiz-adv-x="380" 
d="M272 261c0 44 -13 76 -50 76c-66 0 -116 -142 -116 -227c0 -47 17 -67 47 -67c62 0 119 107 119 218zM354 271c0 -162 -104 -273 -194 -273c-34 0 -66 18 -79 36c-1 -6 -3 -18 -4 -23c-2 -9 -7 -12 -17 -12c-13 0 -48 11 -48 32c0 20 25 152 31 185c13 67 65 320 65 355
c0 22 -6 25 -6 30c0 8 22 19 47 19c29 0 41 -18 41 -46c0 -35 -30 -174 -44 -238c34 44 78 63 117 63c47 0 91 -35 91 -128z" />
    <glyph glyph-name="c" unicode="c" horiz-adv-x="328" 
d="M324 340c0 -40 -36 -82 -82 -82c-6 0 -9 1 -9 4s3 6 6 10c7 11 15 32 15 49c0 21 -11 41 -38 41c-67 0 -115 -110 -115 -209c0 -68 32 -97 70 -97c45 0 89 25 123 66c3 2 5 7 8 7s4 -2 4 -6c0 -34 -61 -122 -165 -121c-63 1 -120 36 -120 132c0 137 88 276 221 276
c55 0 82 -32 82 -70z" />
    <glyph glyph-name="d" unicode="d" horiz-adv-x="386" 
d="M269 288c0 35 -14 67 -47 67c-64 0 -118 -103 -118 -214c0 -43 12 -75 49 -75c65 0 116 145 116 222zM406 569c0 -36 -29 -162 -49 -264c-21 -101 -40 -206 -40 -235c0 -51 18 -46 18 -56c0 -8 -11 -17 -40 -17c-38 0 -57 25 -56 79c0 2 0 4 1 10
c-34 -57 -84 -82 -128 -82c-46 0 -91 35 -91 127c0 152 82 271 195 271c33 0 60 -19 73 -48c19 101 35 192 35 212c0 22 -6 25 -6 31c0 8 22 18 47 18c29 0 41 -18 41 -46z" />
    <glyph glyph-name="e" unicode="e" horiz-adv-x="341" 
d="M247 323c0 23 -11 36 -32 36c-61 0 -105 -93 -113 -184c66 10 145 62 145 148zM324 332c0 -92 -79 -177 -223 -193c3 -62 35 -89 71 -89c45 0 89 25 123 65c3 3 5 8 8 8s4 -2 4 -6c0 -34 -62 -123 -166 -121c-62 1 -120 36 -120 132c0 137 88 276 221 276
c54 0 82 -34 82 -72z" />
    <glyph glyph-name="f" unicode="f" horiz-adv-x="249" 
d="M307 522c0 -19 -8 -35 -18 -46c-2 -4 -5 -6 -9 -6c-3 0 -5 3 -7 9c-5 12 -19 34 -41 34c-47 0 -60 -56 -72 -130v-2c28 2 55 5 68 5c21 0 32 -3 32 -21c0 -14 -14 -37 -24 -37c-6 0 -8 6 -28 6c-19 0 -38 -2 -56 -4c-15 -112 -41 -309 -63 -373c-20 -60 -55 -99 -112 -99
c-28 0 -46 16 -44 22c1 4 6 4 11 5c25 6 47 28 65 72c26 63 50 253 63 359c-14 -3 -24 -5 -27 -5c-5 0 -8 2 -8 11c0 13 9 39 18 43c5 2 13 3 24 5c1 6 2 11 3 15c29 164 135 172 177 172c27 0 48 -16 48 -35z" />
    <glyph glyph-name="g" unicode="g" horiz-adv-x="366" 
d="M258 282c0 35 -16 70 -49 70c-65 0 -114 -103 -114 -214c0 -43 12 -76 49 -76c65 0 114 143 114 220zM344 305c0 -8 -3 -24 -5 -34c-11 -60 -31 -183 -39 -216c-35 -147 -95 -245 -201 -245c-49 0 -96 34 -96 87c0 8 2 12 5 12c4 0 7 -3 11 -11c12 -21 30 -38 57 -38
c88 0 134 134 153 211c1 5 -1 6 -4 2c-33 -49 -85 -73 -122 -73c-46 0 -89 36 -89 128c0 162 107 276 228 276c45 0 85 -23 80 -85c12 -2 22 -5 22 -14z" />
    <glyph glyph-name="h" unicode="h" horiz-adv-x="377" 
d="M351 324c0 -65 -43 -187 -43 -267c0 -42 13 -58 24 -65c5 -4 10 -5 10 -9c0 -6 -6 -11 -28 -11c-47 0 -85 31 -85 98c0 69 35 174 35 222c0 31 -12 44 -33 44c-53 0 -99 -79 -118 -161c-5 -24 -22 -113 -28 -155c-2 -10 -5 -18 -19 -18c-15 0 -58 14 -58 33
c0 8 3 17 5 26c2 13 95 470 95 518c0 22 -6 25 -6 31c0 8 22 18 47 18c28 0 41 -18 41 -46c0 -36 -33 -185 -48 -262c32 56 89 84 129 84c56 0 80 -33 80 -80z" />
    <glyph glyph-name="i" unicode="i" horiz-adv-x="196" 
d="M225 104c0 -7 -2 -16 -7 -26c-23 -45 -69 -77 -127 -77c-47 0 -69 24 -69 69c0 17 4 36 9 66c17 86 29 139 29 165c0 23 -6 25 -6 31c0 8 23 18 47 18c29 0 42 -17 42 -45c0 -30 -19 -101 -37 -186c-1 -8 -4 -24 -4 -38c0 -24 14 -34 30 -34c29 0 68 35 80 54
c4 6 6 9 9 9c2 0 4 -2 4 -6zM174 468c0 -28 -20 -64 -60 -64c-23 0 -42 16 -42 44c0 38 32 64 61 64c26 0 41 -18 41 -44z" />
    <glyph glyph-name="j" unicode="j" horiz-adv-x="193" 
d="M160 333c0 -8 -5 -35 -7 -44c-5 -31 -39 -225 -44 -250c-25 -138 -70 -236 -175 -236c-49 0 -96 34 -96 88c0 8 2 11 5 11c4 0 7 -3 11 -11c12 -21 29 -38 57 -38c83 0 98 87 125 220c22 109 38 244 43 275c2 10 5 18 19 18c15 0 62 -14 62 -33zM187 475
c0 -28 -19 -63 -60 -63c-23 0 -41 15 -41 43c0 38 31 64 60 64c26 0 41 -18 41 -44z" />
    <glyph glyph-name="k" unicode="k" horiz-adv-x="332" 
d="M371 385c0 -28 -67 -76 -166 -141c34 -39 91 -217 143 -250c11 -7 19 -7 21 -9c1 0 2 -1 2 -3c0 -7 -35 -22 -65 -22c-25 0 -41 9 -57 28c-30 36 -81 172 -124 238c0 1 -1 1 -1 2c-13 -68 -30 -154 -39 -211c-2 -10 -5 -17 -19 -17c-15 0 -58 13 -58 32c0 8 3 17 5 26
c2 13 95 470 95 518c0 22 -6 25 -6 31c0 8 22 18 47 18c28 0 41 -18 41 -46c0 -36 -25 -141 -46 -252c-2 -12 -8 -42 -16 -80c55 36 98 63 131 91c27 23 40 37 40 49c0 6 -2 7 -2 11c0 7 17 9 28 9c34 0 46 -10 46 -22z" />
    <glyph glyph-name="l" unicode="l" horiz-adv-x="188" 
d="M185 583c0 -36 -31 -186 -43 -245c-13 -60 -47 -199 -47 -255c0 -30 14 -40 29 -40c14 0 29 5 40 19c5 6 6 9 9 9s4 -2 4 -6c0 -7 -4 -20 -13 -32c-11 -13 -34 -36 -80 -36c-47 0 -69 24 -69 69c0 26 5 54 15 111c13 67 73 368 73 403c0 22 -6 25 -6 30c0 8 23 18 47 18
c29 0 41 -17 41 -45z" />
    <glyph glyph-name="m" unicode="m" horiz-adv-x="561" 
d="M530 313c0 -66 -42 -187 -42 -267c0 -42 13 -58 24 -65c5 -4 10 -5 10 -9c0 -6 -7 -11 -29 -11c-46 0 -84 31 -84 98c0 69 35 174 35 222c0 31 -13 43 -33 43c-57 0 -97 -118 -119 -227c-7 -31 -9 -50 -13 -75c-2 -10 -5 -18 -19 -18c-15 0 -52 13 -52 31c0 8 3 15 4 24
c10 64 37 177 37 216c0 33 -12 48 -32 48c-65 0 -105 -134 -120 -213c-10 -59 -11 -68 -16 -99c-2 -10 -5 -18 -19 -18c-15 0 -58 14 -58 33c0 8 3 17 5 26c1 7 27 125 47 255c4 21 3 36 3 42s7 9 15 9c30 0 55 -31 61 -47c32 44 75 81 122 81c46 0 73 -27 76 -79
c32 47 76 80 123 80c48 0 74 -33 74 -80z" />
    <glyph glyph-name="n" unicode="n" horiz-adv-x="366" 
d="M337 321c0 -66 -42 -187 -42 -267c0 -42 13 -58 24 -66c5 -3 10 -4 10 -8c0 -7 -7 -11 -29 -11c-46 0 -84 31 -84 97c0 70 35 175 35 223c0 31 -13 43 -34 43c-65 0 -105 -133 -120 -212c-10 -60 -11 -69 -16 -99c-2 -11 -5 -18 -19 -18c-15 0 -58 14 -58 33
c0 8 3 16 5 25c1 7 27 125 47 255c4 21 3 37 3 43s7 8 15 8c30 0 55 -31 61 -47c32 44 77 82 124 82c50 0 78 -34 78 -81z" />
    <glyph glyph-name="o" unicode="o" 
d="M262 266c0 50 -10 87 -48 87c-66 0 -112 -129 -112 -226c0 -52 15 -84 48 -84c67 0 112 112 112 223zM345 283c0 -147 -82 -283 -203 -283c-91 0 -121 67 -121 141c0 50 13 126 46 183c26 43 51 60 77 60c15 0 24 -4 31 -7c23 18 46 28 77 28c52 0 93 -39 93 -122z" />
    <glyph glyph-name="p" unicode="p" horiz-adv-x="392" 
d="M277 262c0 44 -12 76 -49 76c-65 0 -116 -145 -116 -222c0 -35 14 -67 47 -67c64 0 118 102 118 213zM360 272c0 -151 -82 -271 -196 -271c-32 0 -60 18 -72 47c-12 -56 -32 -154 -43 -227c-2 -11 -5 -18 -19 -18c-15 0 -58 14 -58 33c0 8 3 18 4 27c2 13 87 413 87 472
c0 22 -6 25 -6 31c0 8 23 18 47 18c29 0 41 -18 41 -46c0 -4 0 -10 -1 -16c35 56 81 78 125 78c46 0 91 -35 91 -128z" />
    <glyph glyph-name="q" unicode="q" horiz-adv-x="382" 
d="M265 283c0 35 -17 70 -50 70c-64 0 -113 -103 -113 -214c0 -43 12 -76 49 -76c65 0 114 143 114 220zM389 -103c0 -3 -2 -5 -6 -5c-5 0 -18 -3 -31 -13c-7 -6 -42 -31 -89 -73c-10 -9 -19 -18 -26 -18c-12 0 -46 15 -46 37c0 31 30 170 45 248c1 4 -1 5 -4 1
c-33 -49 -85 -73 -122 -73c-46 0 -89 36 -89 129c0 161 107 275 228 275c44 0 85 -23 80 -85c12 -2 22 -5 22 -14c0 -8 -4 -24 -5 -34c-11 -60 -66 -337 -74 -384c-1 -2 1 -2 2 -1c24 22 56 55 76 55c22 0 39 -31 39 -45z" />
    <glyph glyph-name="r" unicode="r" horiz-adv-x="268" 
d="M300 384c0 -19 -8 -35 -18 -47c-2 -3 -4 -5 -7 -5s-5 1 -7 4c-7 5 -18 10 -35 10c-82 0 -117 -125 -134 -218c-11 -59 -13 -77 -18 -108c-2 -10 -5 -18 -19 -18c-15 0 -58 14 -58 33c0 8 3 17 5 26c1 7 27 125 47 255c3 21 2 36 2 42s8 9 15 9c30 0 53 -28 58 -42
c40 67 87 94 125 94c32 0 44 -16 44 -35z" />
    <glyph glyph-name="s" unicode="s" horiz-adv-x="288" 
d="M297 340c2 -44 -34 -69 -72 -70c-11 0 -16 1 -16 5c0 7 20 15 19 46s-23 47 -59 46c-29 -1 -63 -20 -62 -54c2 -71 147 -96 151 -190c3 -78 -65 -120 -134 -123c-87 -3 -127 60 -128 106c0 11 3 14 6 14c4 0 5 -3 8 -8c31 -54 67 -68 103 -67c42 2 68 25 67 57
c-3 74 -144 85 -148 191c-2 54 52 108 152 112c72 3 111 -23 113 -65z" />
    <glyph glyph-name="t" unicode="t" horiz-adv-x="221" 
d="M251 396c0 -14 -14 -38 -24 -38c-6 0 -7 6 -28 6c-15 0 -31 -1 -46 -2c-1 -7 -3 -15 -4 -22c-13 -59 -46 -198 -46 -254c0 -30 11 -37 27 -37c17 0 42 20 52 32c4 6 5 9 9 9c2 0 3 -2 3 -6c0 -7 -3 -27 -16 -43c-12 -15 -41 -42 -86 -42c-47 0 -69 25 -70 69
c0 26 5 54 16 111c6 33 20 103 33 169c-19 -4 -31 -7 -34 -7c-5 0 -8 2 -8 12c0 12 8 39 18 42c5 2 18 5 34 7c9 47 15 85 15 98c0 22 -6 25 -6 31c0 7 23 18 47 18c29 0 42 -18 42 -46c0 -21 -7 -55 -15 -91c24 3 44 4 55 4c22 0 32 -2 32 -20z" />
    <glyph glyph-name="u" unicode="u" horiz-adv-x="385" 
d="M357 361c0 -8 -3 -16 -5 -25c-1 -7 -45 -212 -45 -261c0 -51 19 -48 19 -58c0 -8 -11 -17 -41 -18c-40 0 -57 31 -54 90c-33 -60 -89 -90 -130 -90c-50 0 -78 34 -79 81c0 60 47 200 47 254c0 23 -6 25 -6 31c0 7 21 19 45 19c29 0 41 -20 41 -44
c0 -49 -42 -193 -42 -235c0 -29 12 -39 32 -39c65 0 109 128 124 207c10 59 13 73 17 103c2 10 5 18 19 18c15 0 58 -14 58 -33z" />
    <glyph glyph-name="v" unicode="v" horiz-adv-x="353" 
d="M352 346c0 -118 -147 -350 -239 -350c-25 0 -35 17 -41 59c-14 107 -28 255 -35 281c-5 21 -12 23 -13 28c-2 8 24 31 55 31c19 0 31 -9 37 -36c7 -28 18 -164 24 -236c4 -39 4 -47 17 -47c29 0 129 113 129 246c0 45 -15 51 -15 57c0 8 28 21 48 21c26 0 33 -23 33 -54z
" />
    <glyph glyph-name="w" unicode="w" horiz-adv-x="533" 
d="M528 354c0 -117 -99 -358 -196 -358c-46 0 -73 53 -73 190c0 4 -2 5 -4 0c-26 -67 -54 -130 -110 -173c0 0 -25 -17 -47 -17c-25 0 -42 17 -46 51c-2 17 -4 38 -6 68c-5 88 -2 204 -9 230c-5 21 -12 23 -13 28c-2 8 18 23 41 29c28 7 45 -7 51 -34c7 -28 3 -177 7 -244
c2 -20 5 -45 17 -45c18 0 35 32 42 45c29 57 58 124 80 225c6 26 43 46 64 46c9 0 18 -2 18 -14c0 -13 -9 -116 -9 -159c0 -64 7 -147 37 -147c35 0 90 122 90 255c0 46 -15 51 -15 58c0 8 28 20 48 20c26 0 33 -23 33 -54z" />
    <glyph glyph-name="x" unicode="x" horiz-adv-x="284" 
d="M304 376c0 -24 -53 -81 -122 -159c24 -56 47 -111 58 -138c8 -19 13 -34 29 -39c4 -1 6 -2 6 -5c0 -6 -6 -11 -9 -13c-11 -9 -37 -22 -55 -22c-25 0 -36 23 -49 55c-5 14 -21 51 -39 95c-69 -80 -91 -105 -91 -132c0 -9 4 -11 4 -13c1 -4 -4 -7 -14 -7
c-16 -1 -40 19 -40 42c0 32 40 77 120 161c-24 57 -47 112 -54 131c-13 33 -22 29 -22 37c0 13 35 31 57 31c20 0 26 -11 36 -36c6 -13 23 -53 43 -99c35 38 58 65 75 94c14 23 15 39 16 43c1 2 3 3 8 4c26 0 43 -18 43 -30z" />
    <glyph glyph-name="y" unicode="y" horiz-adv-x="372" 
d="M353 361c0 -8 -3 -17 -4 -26c-2 -7 -37 -232 -48 -280c-35 -147 -96 -245 -201 -246c-63 0 -103 39 -103 93c0 7 2 11 6 11s6 -3 11 -11c15 -27 39 -43 68 -43c88 0 133 148 150 227c2 6 -2 8 -5 2c-38 -67 -89 -89 -130 -90c-50 0 -78 34 -78 81c-1 60 46 201 46 254
c0 23 -6 25 -6 31c0 8 21 19 45 19c29 0 41 -20 41 -44c1 -49 -40 -180 -40 -227c0 -31 13 -44 34 -44c65 0 105 125 120 204c11 59 13 73 17 103c2 11 5 18 19 18c15 0 58 -14 58 -32z" />
    <glyph glyph-name="z" unicode="z" horiz-adv-x="275" 
d="M289 342c0 -15 -33 -56 -90 -124c-67 -81 -82 -96 -117 -142c-6 -9 -3 -12 4 -12c40 0 114 8 135 12c23 5 22 8 27 8c3 0 3 -3 3 -5c0 -12 -23 -42 -37 -51c-24 -15 -110 -24 -173 -24c-21 0 -53 36 -53 56c0 22 30 56 132 180c44 53 55 68 80 101c2 4 2 7 -2 7
s-107 -18 -137 -18c-27 0 -35 31 -35 45c0 6 0 9 4 8c3 0 7 -1 13 -1c42 0 165 19 195 19c10 0 17 -1 23 -6c10 -8 28 -38 28 -53z" />
    <glyph glyph-name="exclamdown" unicode="&#xa1;" horiz-adv-x="240" 
d="M205 448c0 -8 -3 -16 -4 -25c-3 -13 -78 -362 -78 -410c0 -23 6 -25 6 -31c0 -8 -23 -18 -47 -18c-29 0 -41 17 -41 45c0 41 68 354 88 454c2 11 4 18 18 18c15 0 58 -14 58 -33zM242 588c0 -38 -32 -64 -61 -64c-26 0 -41 18 -41 44c0 28 20 63 60 63
c23 0 42 -15 42 -43z" />
    <glyph glyph-name="sterling" unicode="&#xa3;" horiz-adv-x="464" 
d="M452 563c-2 -18 -16 -47 -23 -47c-5 0 -5 5 -18 21c-13 15 -36 22 -62 23c-48 3 -104 -21 -124 -133c-4 -19 -8 -46 -13 -77c28 2 56 4 82 4c79 0 91 -19 91 -26c0 -23 -24 -52 -33 -52c-4 0 -5 6 -27 13s-49 8 -66 8c-20 0 -38 -1 -55 -2c-6 -38 -11 -73 -15 -97
c-13 -74 -44 -110 -61 -126c12 3 10 3 37 3c44 0 79 -11 157 -11c26 0 56 4 71 11c12 6 19 13 23 13c2 0 4 -2 4 -6c0 -48 -34 -80 -105 -80c-82 0 -137 18 -210 18c-37 0 -56 -13 -63 -13c-8 0 -16 19 -16 26c0 6 9 11 18 19c16 14 26 26 33 47c12 35 21 107 33 183
c-22 -5 -39 -10 -47 -13c-5 -2 -7 -4 -9 -4s-2 3 -2 7c0 19 8 45 27 54c10 4 24 8 40 12c7 33 14 65 22 93c38 130 111 180 213 180c59 0 100 -21 98 -48z" />
    <glyph glyph-name="fraction" unicode="&#x2044;" horiz-adv-x="465" 
d="M446 608c0 -5 -1 -11 -3 -17c-11 -28 -32 -52 -48 -74c-51 -68 -161 -200 -193 -242c-31 -43 -141 -191 -157 -233c-4 -9 -9 -19 -9 -29c1 -9 4 -11 5 -14c0 -4 -11 -4 -15 -4c-6 0 -14 1 -19 6c-7 6 -11 16 -11 27c0 8 1 20 6 33c19 47 130 191 163 233
c32 42 202 259 221 291c15 24 15 40 17 43c0 2 2 4 8 4c10 0 21 -2 27 -9c4 -3 7 -8 8 -15z" />
    <glyph glyph-name="quotesingle" unicode="'" horiz-adv-x="168" 
d="M135 622c0 -30 -30 -116 -58 -182l-38 -7c10 52 24 120 24 160c0 12 -2 23 -2 27c0 2 2 3 8 6c19 9 49 17 58 17c7 0 8 -4 8 -21z" />
    <glyph glyph-name="quotedblleft" unicode="&#x201c;" horiz-adv-x="256" 
d="M115 559c-3 -22 -17 -36 -38 -37c-1 -12 12 -32 24 -43c1 -1 1 -2 1 -3c0 -3 -6 -10 -10 -9c-27 3 -75 50 -68 104c3 30 21 45 47 42c29 -4 48 -26 44 -54zM237 564c-3 -22 -17 -35 -38 -37c-2 -12 11 -32 24 -43c1 -1 1 -2 0 -3c0 -3 -5 -10 -9 -9c-28 3 -75 51 -69 104
c4 30 21 45 47 42c29 -4 48 -25 45 -54z" />
    <glyph glyph-name="guillemotleft" unicode="&#xab;" horiz-adv-x="610" 
d="M321 415c19 -20 10 -33 -13 -55c-25 -24 -111 -96 -170 -141c51 -37 118 -91 141 -114c23 -22 32 -35 13 -55c-14 -15 -52 -24 -62 -14c-7 7 -3 15 -24 36c-59 57 -140 108 -155 118c-16 10 -24 15 -28 17c-7 4 -9 6 -9 11s3 10 11 15c9 7 17 11 27 18
c10 6 123 84 183 142c22 21 17 29 24 36c10 10 48 1 62 -14zM581 415c19 -20 10 -33 -13 -55c-25 -24 -111 -96 -170 -141c51 -37 118 -91 141 -114c23 -22 32 -35 13 -55c-14 -15 -52 -24 -62 -14c-7 7 -3 15 -24 36c-59 57 -140 108 -155 118c-16 10 -24 15 -28 17
c-7 4 -9 6 -9 11s3 10 11 15c9 7 17 11 27 18c10 6 123 84 183 142c22 21 17 29 24 36c10 10 48 1 62 -14z" />
    <glyph glyph-name="guilsinglleft" unicode="&#x2039;" horiz-adv-x="350" 
d="M321 415c19 -20 10 -33 -13 -55c-25 -24 -111 -96 -170 -141c51 -37 118 -91 141 -114c23 -22 32 -35 13 -55c-14 -15 -52 -24 -62 -14c-7 7 -3 15 -24 36c-59 57 -140 108 -155 118c-16 10 -24 15 -28 17c-7 4 -9 6 -9 11s3 10 11 15c9 7 17 11 27 18
c10 6 123 84 183 142c22 21 17 29 24 36c10 10 48 1 62 -14z" />
    <glyph glyph-name="guilsinglright" unicode="&#x203a;" horiz-adv-x="351" 
d="M336 252c0 -5 -4 -9 -12 -15c-9 -6 -16 -11 -26 -18c-11 -6 -124 -84 -184 -142c-21 -21 -17 -29 -23 -35c-11 -11 -48 -2 -63 13c-19 20 -10 33 13 56c25 23 111 95 170 140c-51 37 -117 91 -141 114c-23 22 -32 35 -13 55c15 15 52 24 63 14c7 -7 2 -15 24 -36
c58 -56 139 -108 155 -117c16 -10 23 -15 27 -18c7 -4 10 -6 10 -11z" />
    <glyph glyph-name="endash" unicode="&#x2013;" horiz-adv-x="276" 
d="M257 230c0 -14 -14 -35 -23 -35c-7 0 -8 6 -28 6c-77 0 -171 -21 -179 -21c-5 0 -8 2 -8 11c0 13 8 37 18 41c21 8 156 19 188 19c22 0 32 -3 32 -21z" />
    <glyph glyph-name="quotesinglbase" unicode="&#x201a;" horiz-adv-x="151" 
d="M123 56c0 -54 -53 -95 -81 -95c-4 0 -8 8 -8 10c0 1 0 2 1 3c14 10 29 28 29 40c-21 4 -33 19 -33 41c0 29 21 48 50 48c27 0 42 -16 42 -47z" />
    <glyph glyph-name="quotedblbase" unicode="&#x201e;" horiz-adv-x="295" 
d="M123 56c0 -54 -53 -95 -81 -95c-4 0 -8 8 -8 10c0 1 0 2 1 3c14 10 29 28 29 40c-21 4 -33 19 -33 41c0 29 21 48 50 48c27 0 42 -16 42 -47zM263 56c0 -54 -53 -95 -81 -95c-4 0 -8 8 -8 10c0 1 0 2 1 3c14 10 29 28 29 40c-21 4 -33 19 -33 41c0 29 21 48 50 48
c27 0 42 -16 42 -47z" />
    <glyph glyph-name="quotedblright" unicode="&#x201d;" horiz-adv-x="256" 
d="M123 576c0 -54 -53 -95 -81 -95c-4 0 -8 8 -8 10c0 1 0 2 1 3c14 10 29 28 29 40c-21 4 -33 19 -33 41c0 29 21 48 50 48c27 0 42 -16 42 -47zM243 556c0 -54 -53 -95 -81 -95c-4 0 -8 8 -8 10c0 1 0 2 1 3c14 10 29 28 29 40c-21 4 -33 19 -33 41c0 29 21 48 50 48
c27 0 42 -16 42 -47z" />
    <glyph glyph-name="guillemotright" unicode="&#xbb;" horiz-adv-x="621" 
d="M336 252c0 -5 -4 -9 -12 -15c-9 -6 -16 -11 -26 -18c-11 -6 -124 -84 -184 -142c-21 -21 -17 -29 -23 -35c-11 -11 -48 -2 -63 13c-19 20 -10 33 13 56c25 23 111 95 170 140c-51 37 -117 91 -141 114c-23 22 -32 35 -13 55c15 15 52 24 63 14c7 -7 2 -15 24 -36
c58 -56 139 -108 155 -117c16 -10 23 -15 27 -18c7 -4 10 -6 10 -11zM606 252c0 -5 -4 -9 -12 -15c-9 -6 -16 -11 -26 -18c-11 -6 -124 -84 -184 -142c-21 -21 -17 -29 -23 -35c-11 -11 -48 -2 -63 13c-19 20 -10 33 13 56c25 23 111 95 170 140c-51 37 -117 91 -141 114
c-23 22 -32 35 -13 55c15 15 52 24 63 14c7 -7 2 -15 24 -36c58 -56 139 -108 155 -117c16 -10 23 -15 27 -18c7 -4 10 -6 10 -11z" />
    <glyph glyph-name="ellipsis" unicode="&#x2026;" horiz-adv-x="501" 
d="M126 64c0 -27 -20 -63 -60 -63c-23 0 -42 15 -42 43c0 38 31 64 60 64c27 0 42 -18 42 -44zM308 64c0 -27 -20 -63 -60 -63c-24 0 -42 15 -42 43c0 38 31 64 60 64c27 0 42 -18 42 -44zM482 64c0 -27 -20 -63 -60 -63c-23 0 -42 15 -42 43c0 38 31 64 60 64
c27 0 42 -18 42 -44z" />
    <glyph glyph-name="questiondown" unicode="&#xbf;" horiz-adv-x="395" 
d="M362 36c0 -29 -24 -44 -57 -56c-33 -13 -74 -19 -122 -19c-106 0 -155 49 -155 128c0 114 122 201 164 250c33 39 62 69 62 103c0 9 -4 16 -4 21c0 10 19 16 33 16c30 0 53 -18 53 -52s-31 -69 -55 -97c-92 -110 -152 -163 -152 -241c0 -39 33 -62 83 -62
c28 0 78 11 106 42c17 17 16 28 22 28c7 0 22 -29 22 -61zM365 584c0 -38 -32 -64 -61 -64c-26 0 -41 18 -41 44c0 28 20 64 60 64c23 0 42 -16 42 -44z" />
    <glyph glyph-name="grave" unicode="`" horiz-adv-x="225" 
d="M206 460c0 -5 -11 -8 -20 -8c-42 0 -169 80 -169 105c0 15 14 41 22 41c4 0 8 -6 13 -13c26 -35 101 -92 134 -112c15 -9 20 -8 20 -13z" />
    <glyph glyph-name="acute" unicode="&#xb4;" horiz-adv-x="267" 
d="M232 557c0 -25 -127 -105 -169 -105c-9 0 -20 3 -20 8s5 4 20 13c33 20 107 77 134 112c5 7 9 13 13 13c8 0 22 -26 22 -41z" />
    <glyph glyph-name="circumflex" unicode="&#x2c6;" horiz-adv-x="266" 
d="M252 420c0 -3 -5 -6 -12 -6c-29 0 -75 38 -103 71c-31 -31 -88 -70 -113 -70c-7 0 -16 3 -16 7s5 2 17 10c45 32 76 69 98 97c9 12 15 21 23 21c7 0 12 -12 18 -21c27 -42 39 -68 73 -96c11 -9 15 -9 15 -13z" />
    <glyph glyph-name="breve" unicode="&#x2d8;" horiz-adv-x="296" 
d="M233 542c0 -24 -31 -87 -86 -87c-56 0 -82 63 -82 83c0 7 5 12 11 12c4 0 7 -5 12 -12c11 -14 29 -40 60 -40c27 0 45 21 59 38c6 6 11 15 16 15s10 -3 10 -9z" />
    <glyph glyph-name="dotaccent" unicode="&#x2d9;" horiz-adv-x="202" 
d="M141 508c0 -22 -16 -51 -49 -51c-19 0 -34 12 -34 35c0 31 26 52 49 52c21 0 34 -15 34 -36z" />
    <glyph glyph-name="dieresis" unicode="&#xa8;" horiz-adv-x="302" 
d="M126 508c0 -22 -16 -51 -49 -51c-18 0 -33 12 -33 35c0 31 25 52 48 52c22 0 34 -15 34 -36zM256 508c0 -22 -16 -51 -49 -51c-19 0 -34 12 -34 35c0 31 26 52 49 52c21 0 34 -15 34 -36z" />
    <glyph glyph-name="ring" unicode="&#x2da;" horiz-adv-x="214" 
d="M138 509c0 19 -9 27 -9 30s3 5 5 6c-3 3 -9 6 -20 6c-20 0 -41 -13 -41 -44c0 -22 11 -37 30 -37c21 0 35 17 35 39zM169 512c0 -46 -34 -70 -72 -70c-31 0 -65 20 -65 67c0 53 41 74 73 74c25 0 42 -19 42 -36v-2c13 -3 22 -15 22 -33z" />
    <glyph glyph-name="cedilla" unicode="&#xb8;" horiz-adv-x="217" 
d="M158 -79c0 -31 -29 -58 -66 -58c-21 0 -41 13 -41 28c0 6 1 9 5 9c3 0 17 -12 28 -12c24 0 34 17 34 29c0 24 -32 27 -46 31c-7 2 -13 6 -13 12c0 10 15 28 32 54c4 6 53 10 46 1c-9 -13 -32 -37 -32 -45c0 -11 53 -7 53 -49z" />
    <glyph glyph-name="ogonek" unicode="&#x2db;" horiz-adv-x="161" 
d="M131 -90c0 -13 -18 -25 -43 -25c-43 0 -65 24 -65 56c0 27 22 51 32 60c12 11 23 19 32 25h42c-10 -9 -30 -24 -41 -34c-14 -12 -27 -29 -27 -50c0 -27 21 -31 36 -31c19 0 28 7 31 7c2 0 3 -3 3 -8z" />
    <glyph glyph-name="emdash" unicode="&#x2014;" horiz-adv-x="388" 
d="M373 234c0 -14 -14 -36 -24 -36c-6 0 -8 6 -28 6c-157 0 -280 -21 -288 -21c-5 0 -8 2 -8 12c0 13 8 37 18 41c22 7 167 18 298 18c21 0 32 -2 32 -20z" />
    <glyph glyph-name="AE" unicode="&#xc6;" horiz-adv-x="708" 
d="M379 519c1 4 -2 4 -3 1c-38 -72 -93 -180 -147 -270c17 2 37 3 61 3c10 0 26 1 42 -1c17 93 35 200 47 267zM731 585c0 -28 -30 -64 -41 -64c-6 0 -6 7 -34 16c-27 8 -62 9 -83 9c-34 0 -65 -2 -92 -5c-10 -48 -25 -116 -39 -194c41 7 107 11 142 11c32 0 46 -8 46 -28
c0 -30 -28 -57 -37 -57s-16 16 -61 16c-39 0 -75 -6 -101 -11c-19 -109 -28 -169 -28 -211c0 -19 10 -33 39 -33c52 0 114 8 168 25c38 13 47 22 52 22c3 0 3 -2 3 -4c0 -26 -23 -57 -56 -76c-56 -32 -173 -38 -223 -38c-57 0 -83 18 -83 67c0 37 8 94 18 158
c-17 1 -34 2 -48 2c-31 0 -60 -2 -84 -5c-52 -85 -92 -153 -103 -169c-24 -35 -40 -50 -65 -50c-31 0 -43 13 -43 19c0 5 14 11 35 42c52 74 299 467 299 515c0 19 -5 21 -5 26c0 12 21 23 47 28c55 9 164 21 264 21c98 0 113 -22 113 -32z" />
    <glyph glyph-name="ordfeminine" unicode="&#xaa;" horiz-adv-x="174" 
d="M118 556c0 14 -7 28 -20 28c-26 0 -45 -37 -45 -82c0 -17 5 -30 20 -30c26 0 45 53 45 84zM157 565c0 -3 -1 -7 -2 -10c0 -3 -15 -64 -15 -83c0 -21 8 -19 8 -24c0 -3 -9 -7 -21 -7c-15 0 -22 11 -22 32c-13 -20 -34 -30 -49 -30c-19 0 -40 10 -40 52c0 64 39 110 95 110
c18 0 39 -9 37 -34c5 -1 9 -2 9 -6z" />
    <glyph glyph-name="Lslash" unicode="&#x141;" horiz-adv-x="423" 
d="M408 81c0 -26 -23 -57 -57 -76c-55 -32 -172 -38 -222 -38c-57 0 -83 18 -83 67c0 35 8 85 18 140c-23 -14 -40 -23 -42 -24c-1 -1 -3 -1 -4 -1c-3 0 -5 2 -8 8c-2 6 -4 15 -4 23c0 9 2 16 5 19c6 6 33 21 67 39c25 119 56 250 56 331c0 23 -6 25 -6 31c0 8 22 19 52 19
h3c31 -1 47 -17 47 -45c0 -51 -23 -144 -46 -256l-5 -27c31 16 57 29 66 32c9 4 15 7 21 7s11 -4 15 -13c1 -3 2 -8 2 -13c0 -12 -4 -24 -10 -27c-1 -1 -3 -1 -4 -1h-5c-4 0 -9 0 -18 -4c-21 -9 -49 -23 -79 -40c-17 -83 -25 -125 -25 -161c0 -20 9 -33 39 -33
c51 0 118 8 172 25c37 12 47 22 52 22c2 0 3 -2 3 -4z" />
    <glyph glyph-name="Oslash" unicode="&#xd8;" horiz-adv-x="541" 
d="M421 378c0 30 -2 56 -6 78c-62 -78 -140 -171 -166 -208c-21 -27 -71 -96 -114 -158c17 -48 47 -72 91 -72c117 0 195 203 195 360zM394 519c-13 27 -33 53 -76 53c-115 0 -198 -205 -198 -370c0 -13 0 -26 1 -37c33 44 65 86 81 106c25 33 124 159 192 248zM530 634
c0 -6 -1 -13 -4 -20c-9 -23 -24 -44 -38 -63c14 -24 29 -61 29 -130c0 -269 -132 -456 -317 -456c-43 0 -86 12 -119 41c-6 -11 -10 -19 -13 -26c-4 -10 -10 -22 -9 -34c1 -10 4 -13 5 -16c0 -4 -15 -4 -19 -4c-7 0 -19 1 -25 7c-8 6 -13 18 -13 31c0 9 2 23 8 38
c5 12 15 31 29 53c-15 30 -24 68 -24 117c0 177 79 358 194 424c39 21 78 32 120 32c46 0 86 -13 115 -34c4 6 7 10 9 13c16 28 17 46 19 50c1 3 3 4 9 4c12 0 28 -2 35 -10c4 -4 8 -9 9 -17z" />
    <glyph glyph-name="OE" unicode="&#x152;" horiz-adv-x="778" 
d="M426 417c0 49 -13 156 -111 156c-115 0 -200 -206 -200 -371c0 -122 36 -184 106 -184c141 0 205 234 205 399zM801 587c0 -28 -30 -64 -41 -64c-6 0 -6 7 -34 16c-27 9 -62 9 -83 9c-34 0 -64 -4 -97 -9c-10 -49 -20 -107 -34 -185c41 7 107 12 142 12
c32 0 46 -9 46 -29c0 -30 -28 -57 -37 -57s-16 16 -61 16c-39 0 -76 -6 -102 -11c-18 -108 -27 -169 -27 -211c0 -19 9 -33 39 -33c52 0 114 8 168 26c37 12 47 22 52 22c2 0 3 -3 3 -5c0 -25 -23 -56 -56 -76c-56 -31 -173 -38 -223 -38c-57 0 -79 16 -83 67
c-31 -41 -92 -72 -178 -72c-91 0 -180 54 -180 207c0 177 79 358 194 424c39 21 78 32 120 32c50 0 96 -11 128 -47c56 14 131 39 231 39c98 0 113 -23 113 -33z" />
    <glyph glyph-name="ordmasculine" unicode="&#xba;" horiz-adv-x="169" 
d="M117 548c0 20 -4 34 -19 34c-26 0 -45 -49 -45 -88c0 -20 6 -33 19 -33c27 0 45 43 45 87zM154 554c0 -58 -36 -113 -85 -113c-36 0 -53 24 -53 60c0 20 5 47 19 70c10 17 25 27 35 27c6 0 10 -1 13 -3c9 7 22 8 34 8c21 0 37 -15 37 -49z" />
    <glyph glyph-name="ae" unicode="&#xe6;" horiz-adv-x="534" 
d="M222 70c-5 17 -8 36 -8 58c0 10 0 19 1 29c-94 5 -126 -25 -126 -62c0 -26 15 -46 54 -46c26 0 57 11 79 21zM440 323c0 23 -11 36 -32 36c-61 0 -105 -79 -112 -170c65 10 144 48 144 134zM517 332c0 -92 -79 -164 -222 -179c-6 -75 33 -103 69 -103c45 0 90 25 124 65
c2 3 5 8 8 8c2 0 4 -2 4 -6c0 -34 -62 -123 -166 -121c-38 1 -74 14 -97 45c-30 -26 -70 -48 -131 -48s-100 30 -100 87c0 67 58 116 156 116c18 0 37 -2 58 -6c2 12 15 54 15 95c0 47 -15 70 -56 70c-52 0 -88 -40 -88 -83c0 -11 2 -6 2 -11c0 -3 -4 -4 -7 -4
c-25 0 -46 22 -46 56c0 60 72 90 147 90c51 0 96 -19 107 -62c37 39 85 63 140 63s83 -34 83 -72z" />
    <glyph glyph-name="dotlessi" unicode="&#x131;" horiz-adv-x="196" 
d="M225 104c0 -7 -2 -16 -7 -26c-23 -45 -69 -77 -127 -77c-47 0 -69 24 -69 69c0 17 4 36 9 66c17 86 29 139 29 165c0 23 -6 25 -6 31c0 8 23 18 47 18c29 0 42 -17 42 -45c0 -30 -19 -101 -37 -186c-1 -8 -4 -24 -4 -38c0 -24 14 -34 30 -34c29 0 68 35 80 54
c4 6 6 9 9 9c2 0 4 -2 4 -6z" />
    <glyph glyph-name="lslash" unicode="&#x142;" horiz-adv-x="212" 
d="M216 290c0 -12 -4 -24 -10 -27c-1 0 -3 -1 -4 -1s-3 1 -5 1c-4 0 -9 -1 -18 -5c-15 -6 -32 -15 -49 -24c-12 -57 -24 -118 -24 -151c0 -30 14 -40 29 -40c14 0 29 5 40 19c5 6 6 9 9 9s4 -2 4 -6c0 -7 -4 -20 -13 -32c-11 -13 -34 -36 -80 -36c-47 0 -69 24 -69 69
c0 26 5 54 15 111l1 3c-21 -13 -36 -23 -38 -25h-4c-3 0 -5 2 -8 8c-2 5 -4 15 -4 23s2 16 5 19c7 6 31 21 61 38c22 113 60 309 60 337c0 22 -6 25 -6 30c0 8 23 18 47 18c29 0 41 -17 41 -45c0 -36 -31 -186 -43 -245c-3 -12 -6 -28 -10 -46c16 9 28 15 35 18
c8 3 15 6 21 6s11 -4 15 -13c1 -3 2 -8 2 -13z" />
    <glyph glyph-name="oslash" unicode="&#xf8;" horiz-adv-x="374" 
d="M262 266v13c-22 -27 -44 -54 -60 -74c-18 -26 -61 -77 -96 -122c7 -25 21 -40 44 -40c67 0 112 112 112 223zM249 334c-7 12 -18 19 -35 19c-61 0 -106 -112 -112 -205c25 30 49 58 63 76c17 22 52 68 84 110zM366 426c0 -8 -9 -21 -13 -27c-12 -18 -15 -22 -26 -38
c11 -19 18 -45 18 -78c0 -148 -82 -283 -203 -283c-33 0 -59 9 -77 24c-3 -6 -6 -10 -7 -14c-4 -9 -5 -13 -5 -22c0 -5 1 -8 1 -11s-11 -6 -15 -6c-6 0 -14 2 -19 6c-7 6 -11 14 -11 27c0 4 2 15 6 24c5 10 12 21 21 34c-11 23 -15 50 -15 79c0 50 13 126 46 183
c26 43 51 60 77 60c15 0 24 -4 31 -7c23 18 46 28 77 28c15 0 30 -3 42 -10c9 11 15 21 19 27c15 24 9 20 10 24c1 2 2 4 8 4c10 0 21 -2 28 -9c3 -4 7 -8 7 -15z" />
    <glyph glyph-name="oe" unicode="&#x153;" horiz-adv-x="569" 
d="M262 266c0 50 -10 87 -48 87c-66 0 -112 -129 -112 -226c0 -52 15 -84 48 -84c50 0 88 62 104 139c1 5 1 10 2 15c4 22 6 46 6 69zM475 323c0 23 -11 36 -32 36c-61 0 -105 -93 -113 -184c66 10 145 62 145 148zM552 332c0 -92 -79 -177 -223 -193c3 -62 35 -89 71 -89
c45 0 89 25 123 65c3 3 5 8 8 8s4 -2 4 -6c0 -34 -62 -123 -166 -121c-43 1 -84 18 -105 60c-33 -35 -74 -56 -122 -56c-91 0 -121 67 -121 141c0 50 13 126 46 183c26 43 51 60 77 60c15 0 24 -4 31 -7c23 18 46 28 77 28c37 0 66 -21 79 -62c37 37 84 61 139 61
c54 0 82 -34 82 -72z" />
    <glyph glyph-name="germandbls" unicode="&#xdf;" horiz-adv-x="378" 
d="M391 508c0 -92 -52 -137 -97 -175c-20 -16 -21 -29 -18 -44c3 -27 32 -57 52 -102c11 -25 14 -48 14 -66c0 -50 -34 -127 -141 -127c-42 0 -76 24 -76 62c0 34 33 76 93 76c3 0 5 -1 5 -3s-2 -3 -4 -5c-29 -18 -41 -37 -41 -63c0 -21 14 -34 30 -34c35 0 59 31 59 62
c0 73 -70 153 -74 185c-2 13 1 25 10 33c22 19 36 29 53 49c26 32 64 80 52 173c-7 50 -28 59 -46 59c-26 0 -55 -5 -89 -154c-25 -111 -68 -323 -84 -415c-2 -14 -5 -18 -15 -18c-21 0 -55 21 -58 40c-1 8 1 15 4 31c14 91 48 255 64 327c31 138 76 226 181 226
c62 0 126 -43 126 -117z" />
    <glyph glyph-name="minus" unicode="&#x2212;" horiz-adv-x="404" 
d="M382 272c0 -21 -21 -53 -36 -53c-9 0 -11 9 -42 9c-115 0 -256 -31 -267 -31c-8 0 -13 2 -13 17c0 19 13 55 27 61c33 11 235 28 283 28c32 0 48 -4 48 -31z" />
    <glyph glyph-name="Aacute" unicode="&#xc1;" horiz-adv-x="492" 
d="M331 244c-11 85 -22 181 -33 266c0 2 -1 3 -2 0c-25 -77 -60 -176 -94 -267c18 3 39 4 68 4c23 0 43 -1 61 -3zM492 -8c0 -11 -24 -29 -58 -29c-49 0 -67 25 -87 161c-2 16 -5 34 -7 52c-24 4 -49 6 -84 6s-58 -2 -80 -6c-33 -85 -61 -153 -71 -169
c-14 -25 -31 -46 -56 -46c-31 0 -43 13 -43 19c0 5 16 10 35 42c55 93 215 493 215 552c0 20 -4 29 -4 33c0 8 31 14 58 14c46 0 73 -20 77 -64c3 -33 15 -152 28 -257c13 -115 33 -232 52 -272c17 -33 25 -29 25 -36zM422 767c0 -25 -127 -105 -169 -105c-9 0 -20 3 -20 8
s5 4 20 13c33 20 107 77 134 112c5 7 9 13 13 13c8 0 22 -26 22 -41z" />
    <glyph glyph-name="Acircumflex" unicode="&#xc2;" horiz-adv-x="492" 
d="M331 244c-11 85 -22 181 -33 266c0 2 -1 3 -2 0c-25 -77 -60 -176 -94 -267c18 3 39 4 68 4c23 0 43 -1 61 -3zM492 -8c0 -11 -24 -29 -58 -29c-49 0 -67 25 -87 161c-2 16 -5 34 -7 52c-24 4 -49 6 -84 6s-58 -2 -80 -6c-33 -85 -61 -153 -71 -169
c-14 -25 -31 -46 -56 -46c-31 0 -43 13 -43 19c0 5 16 10 35 42c55 93 215 493 215 552c0 20 -4 29 -4 33c0 8 31 14 58 14c46 0 73 -20 77 -64c3 -33 15 -152 28 -257c13 -115 33 -232 52 -272c17 -33 25 -29 25 -36zM442 660c0 -3 -5 -6 -12 -6c-29 0 -75 38 -103 71
c-31 -31 -88 -70 -113 -70c-7 0 -16 3 -16 7s5 2 17 10c45 32 76 69 98 97c9 12 15 21 23 21c7 0 12 -12 18 -21c27 -42 39 -68 73 -96c11 -9 15 -9 15 -13z" />
    <glyph glyph-name="Adieresis" unicode="&#xc4;" horiz-adv-x="492" 
d="M331 244c-11 85 -22 181 -33 266c0 2 -1 3 -2 0c-25 -77 -60 -176 -94 -267c18 3 39 4 68 4c23 0 43 -1 61 -3zM492 -8c0 -11 -24 -29 -58 -29c-49 0 -67 25 -87 161c-2 16 -5 34 -7 52c-24 4 -49 6 -84 6s-58 -2 -80 -6c-33 -85 -61 -153 -71 -169
c-14 -25 -31 -46 -56 -46c-31 0 -43 13 -43 19c0 5 16 10 35 42c55 93 215 493 215 552c0 20 -4 29 -4 33c0 8 31 14 58 14c46 0 73 -20 77 -64c3 -33 15 -152 28 -257c13 -115 33 -232 52 -272c17 -33 25 -29 25 -36zM299 728c0 -22 -16 -51 -49 -51c-18 0 -33 12 -33 35
c0 31 25 52 48 52c22 0 34 -15 34 -36zM429 728c0 -22 -16 -51 -49 -51c-19 0 -34 12 -34 35c0 31 26 52 49 52c21 0 34 -15 34 -36z" />
    <glyph glyph-name="Agrave" unicode="&#xc0;" horiz-adv-x="492" 
d="M331 244c-11 85 -22 181 -33 266c0 2 -1 3 -2 0c-25 -77 -60 -176 -94 -267c18 3 39 4 68 4c23 0 43 -1 61 -3zM492 -8c0 -11 -24 -29 -58 -29c-49 0 -67 25 -87 161c-2 16 -5 34 -7 52c-24 4 -49 6 -84 6s-58 -2 -80 -6c-33 -85 -61 -153 -71 -169
c-14 -25 -31 -46 -56 -46c-31 0 -43 13 -43 19c0 5 16 10 35 42c55 93 215 493 215 552c0 20 -4 29 -4 33c0 8 31 14 58 14c46 0 73 -20 77 -64c3 -33 15 -152 28 -257c13 -115 33 -232 52 -272c17 -33 25 -29 25 -36zM422 670c0 -5 -11 -8 -20 -8c-42 0 -169 80 -169 105
c0 15 14 41 22 41c4 0 8 -6 13 -13c26 -35 101 -92 134 -112c15 -9 20 -8 20 -13z" />
    <glyph glyph-name="Aring" unicode="&#xc5;" horiz-adv-x="492" 
d="M331 244c-11 85 -22 181 -33 266c0 2 -1 3 -2 0c-25 -77 -60 -176 -94 -267c18 3 39 4 68 4c23 0 43 -1 61 -3zM368 709c0 19 -9 27 -9 30s3 5 5 6c-3 3 -9 6 -20 6c-20 0 -41 -13 -41 -44c0 -22 11 -37 30 -37c21 0 35 17 35 39zM492 -8c0 -11 -24 -29 -58 -29
c-49 0 -67 25 -87 161c-2 16 -5 34 -7 52c-24 4 -49 6 -84 6s-58 -2 -80 -6c-33 -85 -61 -153 -71 -169c-14 -25 -31 -46 -56 -46c-31 0 -43 13 -43 19c0 5 16 10 35 42c55 93 215 493 215 552c0 20 -4 29 -4 33c0 8 31 14 58 14c46 0 73 -20 77 -64c3 -33 15 -152 28 -257
c13 -115 33 -232 52 -272c17 -33 25 -29 25 -36zM399 712c0 -46 -34 -70 -72 -70c-31 0 -65 20 -65 67c0 53 41 74 73 74c25 0 42 -19 42 -36v-2c13 -3 22 -15 22 -33z" />
    <glyph glyph-name="Atilde" unicode="&#xc3;" horiz-adv-x="492" 
d="M331 244c-11 85 -22 181 -33 266c0 2 -1 3 -2 0c-25 -77 -60 -176 -94 -267c18 3 39 4 68 4c23 0 43 -1 61 -3zM492 -8c0 -11 -24 -29 -58 -29c-49 0 -67 25 -87 161c-2 16 -5 34 -7 52c-24 4 -49 6 -84 6s-58 -2 -80 -6c-33 -85 -61 -153 -71 -169
c-14 -25 -31 -46 -56 -46c-31 0 -43 13 -43 19c0 5 16 10 35 42c55 93 215 493 215 552c0 20 -4 29 -4 33c0 8 31 14 58 14c46 0 73 -20 77 -64c3 -33 15 -152 28 -257c13 -115 33 -232 52 -272c17 -33 25 -29 25 -36zM434 716c0 -36 -39 -58 -74 -58c-33 0 -63 29 -92 29
c-33 0 -35 -15 -43 -15c-5 0 -6 3 -6 9c0 14 34 47 70 47s59 -30 86 -30c38 0 44 29 52 29c5 0 7 -4 7 -11z" />
    <glyph glyph-name="Ccedilla" unicode="&#xc7;" horiz-adv-x="427" 
d="M447 512c0 -66 -46 -120 -112 -120c-4 0 -6 1 -6 4c0 4 3 7 8 14c7 11 24 36 24 83c0 38 -19 68 -61 68c-97 0 -183 -187 -183 -344c0 -122 42 -183 111 -183c97 0 157 76 194 124c3 4 6 9 10 9c3 0 4 -2 4 -5c0 -49 -78 -176 -212 -194c-10 -11 -19 -22 -19 -28
c0 -11 53 -7 53 -49c0 -31 -29 -58 -66 -58c-21 0 -41 13 -41 28c0 6 1 9 5 9c3 0 17 -12 28 -12c24 0 34 17 34 29c0 24 -32 27 -46 31c-7 2 -13 6 -13 12c0 7 9 20 20 36c-85 5 -164 61 -164 206c0 201 120 456 314 456c79 0 118 -53 118 -116z" />
    <glyph glyph-name="Eacute" unicode="&#xc9;" horiz-adv-x="428" 
d="M451 587c0 -28 -30 -64 -41 -64c-6 0 -6 7 -34 16c-27 9 -62 9 -83 9c-34 0 -65 -2 -92 -4c-10 -49 -25 -112 -39 -190c41 7 107 12 142 12c32 0 46 -9 46 -29c0 -30 -28 -57 -37 -57s-16 16 -61 16c-39 0 -76 -6 -102 -11c-18 -108 -27 -169 -27 -211
c0 -19 9 -33 39 -33c52 0 114 8 168 26c37 12 47 22 52 22c2 0 3 -3 3 -5c0 -25 -23 -56 -56 -76c-56 -31 -173 -38 -223 -38c-57 0 -83 18 -83 67c0 99 56 358 80 490c-19 -5 -32 -10 -41 -14c-6 -2 -8 -4 -11 -4c-2 0 -3 3 -3 9c0 24 13 53 28 61c38 18 162 41 262 41
c98 0 113 -23 113 -33zM392 767c0 -25 -127 -105 -169 -105c-9 0 -20 3 -20 8s5 4 20 13c33 20 107 77 134 112c5 7 9 13 13 13c8 0 22 -26 22 -41z" />
    <glyph glyph-name="Ecircumflex" unicode="&#xca;" horiz-adv-x="428" 
d="M451 587c0 -28 -30 -64 -41 -64c-6 0 -6 7 -34 16c-27 9 -62 9 -83 9c-34 0 -65 -2 -92 -4c-10 -49 -25 -112 -39 -190c41 7 107 12 142 12c32 0 46 -9 46 -29c0 -30 -28 -57 -37 -57s-16 16 -61 16c-39 0 -76 -6 -102 -11c-18 -108 -27 -169 -27 -211
c0 -19 9 -33 39 -33c52 0 114 8 168 26c37 12 47 22 52 22c2 0 3 -3 3 -5c0 -25 -23 -56 -56 -76c-56 -31 -173 -38 -223 -38c-57 0 -83 18 -83 67c0 99 56 358 80 490c-19 -5 -32 -10 -41 -14c-6 -2 -8 -4 -11 -4c-2 0 -3 3 -3 9c0 24 13 53 28 61c38 18 162 41 262 41
c98 0 113 -23 113 -33zM402 660c0 -3 -5 -6 -12 -6c-29 0 -75 38 -103 71c-31 -31 -88 -70 -113 -70c-7 0 -16 3 -16 7s5 2 17 10c45 32 76 69 98 97c9 12 15 21 23 21c7 0 12 -12 18 -21c27 -42 39 -68 73 -96c11 -9 15 -9 15 -13z" />
    <glyph glyph-name="Edieresis" unicode="&#xcb;" horiz-adv-x="428" 
d="M451 587c0 -28 -30 -64 -41 -64c-6 0 -6 7 -34 16c-27 9 -62 9 -83 9c-34 0 -65 -2 -92 -4c-10 -49 -25 -112 -39 -190c41 7 107 12 142 12c32 0 46 -9 46 -29c0 -30 -28 -57 -37 -57s-16 16 -61 16c-39 0 -76 -6 -102 -11c-18 -108 -27 -169 -27 -211
c0 -19 9 -33 39 -33c52 0 114 8 168 26c37 12 47 22 52 22c2 0 3 -3 3 -5c0 -25 -23 -56 -56 -76c-56 -31 -173 -38 -223 -38c-57 0 -83 18 -83 67c0 99 56 358 80 490c-19 -5 -32 -10 -41 -14c-6 -2 -8 -4 -11 -4c-2 0 -3 3 -3 9c0 24 13 53 28 61c38 18 162 41 262 41
c98 0 113 -23 113 -33zM259 728c0 -22 -16 -51 -49 -51c-18 0 -33 12 -33 35c0 31 25 52 48 52c22 0 34 -15 34 -36zM389 728c0 -22 -16 -51 -49 -51c-19 0 -34 12 -34 35c0 31 26 52 49 52c21 0 34 -15 34 -36z" />
    <glyph glyph-name="Egrave" unicode="&#xc8;" horiz-adv-x="428" 
d="M451 587c0 -28 -30 -64 -41 -64c-6 0 -6 7 -34 16c-27 9 -62 9 -83 9c-34 0 -65 -2 -92 -4c-10 -49 -25 -112 -39 -190c41 7 107 12 142 12c32 0 46 -9 46 -29c0 -30 -28 -57 -37 -57s-16 16 -61 16c-39 0 -76 -6 -102 -11c-18 -108 -27 -169 -27 -211
c0 -19 9 -33 39 -33c52 0 114 8 168 26c37 12 47 22 52 22c2 0 3 -3 3 -5c0 -25 -23 -56 -56 -76c-56 -31 -173 -38 -223 -38c-57 0 -83 18 -83 67c0 99 56 358 80 490c-19 -5 -32 -10 -41 -14c-6 -2 -8 -4 -11 -4c-2 0 -3 3 -3 9c0 24 13 53 28 61c38 18 162 41 262 41
c98 0 113 -23 113 -33zM382 670c0 -5 -11 -8 -20 -8c-42 0 -169 80 -169 105c0 15 14 41 22 41c4 0 8 -6 13 -13c26 -35 101 -92 134 -112c15 -9 20 -8 20 -13z" />
    <glyph glyph-name="Iacute" unicode="&#xcd;" horiz-adv-x="316" 
d="M341 592c0 -14 -17 -43 -27 -43c-6 0 -8 6 -28 6c-15 0 -30 0 -45 -1c-11 -68 -29 -155 -46 -252c-21 -114 -31 -186 -45 -269c45 6 72 14 77 14s7 -3 7 -8c0 -16 -10 -44 -26 -51c-20 -11 -131 -21 -194 -21c-33 0 -40 7 -40 21c0 13 17 43 27 43c6 0 8 -6 28 -6h26
c24 170 76 379 91 521c-49 -6 -83 -13 -87 -13c-6 0 -8 3 -8 8c0 16 11 43 26 51c20 10 161 21 224 21c33 0 40 -7 40 -21zM312 747c0 -25 -127 -105 -169 -105c-9 0 -20 3 -20 8s5 4 20 13c33 20 107 77 134 112c5 7 9 13 13 13c8 0 22 -26 22 -41z" />
    <glyph glyph-name="Icircumflex" unicode="&#xce;" horiz-adv-x="316" 
d="M341 592c0 -14 -17 -43 -27 -43c-6 0 -8 6 -28 6c-15 0 -30 0 -45 -1c-11 -68 -29 -155 -46 -252c-21 -114 -31 -186 -45 -269c45 6 72 14 77 14s7 -3 7 -8c0 -16 -10 -44 -26 -51c-20 -11 -131 -21 -194 -21c-33 0 -40 7 -40 21c0 13 17 43 27 43c6 0 8 -6 28 -6h26
c24 170 76 379 91 521c-49 -6 -83 -13 -87 -13c-6 0 -8 3 -8 8c0 16 11 43 26 51c20 10 161 21 224 21c33 0 40 -7 40 -21zM332 660c0 -3 -5 -6 -12 -6c-29 0 -75 38 -103 71c-31 -31 -88 -70 -113 -70c-7 0 -16 3 -16 7s5 2 17 10c45 32 76 69 98 97c9 12 15 21 23 21
c7 0 12 -12 18 -21c27 -42 39 -68 73 -96c11 -9 15 -9 15 -13z" />
    <glyph glyph-name="Idieresis" unicode="&#xcf;" horiz-adv-x="316" 
d="M341 592c0 -14 -17 -43 -27 -43c-6 0 -8 6 -28 6c-15 0 -30 0 -45 -1c-11 -68 -29 -155 -46 -252c-21 -114 -31 -186 -45 -269c45 6 72 14 77 14s7 -3 7 -8c0 -16 -10 -44 -26 -51c-20 -11 -131 -21 -194 -21c-33 0 -40 7 -40 21c0 13 17 43 27 43c6 0 8 -6 28 -6h26
c24 170 76 379 91 521c-49 -6 -83 -13 -87 -13c-6 0 -8 3 -8 8c0 16 11 43 26 51c20 10 161 21 224 21c33 0 40 -7 40 -21zM199 728c0 -22 -16 -51 -49 -51c-18 0 -33 12 -33 35c0 31 25 52 48 52c22 0 34 -15 34 -36zM329 728c0 -22 -16 -51 -49 -51c-19 0 -34 12 -34 35
c0 31 26 52 49 52c21 0 34 -15 34 -36z" />
    <glyph glyph-name="Igrave" unicode="&#xcc;" horiz-adv-x="316" 
d="M341 592c0 -14 -17 -43 -27 -43c-6 0 -8 6 -28 6c-15 0 -30 0 -45 -1c-11 -68 -29 -155 -46 -252c-21 -114 -31 -186 -45 -269c45 6 72 14 77 14s7 -3 7 -8c0 -16 -10 -44 -26 -51c-20 -11 -131 -21 -194 -21c-33 0 -40 7 -40 21c0 13 17 43 27 43c6 0 8 -6 28 -6h26
c24 170 76 379 91 521c-49 -6 -83 -13 -87 -13c-6 0 -8 3 -8 8c0 16 11 43 26 51c20 10 161 21 224 21c33 0 40 -7 40 -21zM302 660c0 -5 -11 -8 -20 -8c-42 0 -169 80 -169 105c0 15 14 41 22 41c4 0 8 -6 13 -13c26 -35 101 -92 134 -112c15 -9 20 -8 20 -13z" />
    <glyph glyph-name="Ntilde" unicode="&#xd1;" horiz-adv-x="517" 
d="M505 576c0 -64 -24 -200 -53 -302c-69 -244 -91 -268 -106 -278c-20 -14 -42 -25 -60 -25c-24 1 -44 57 -67 158c-23 98 -44 218 -67 345c-1 5 -7 7 -8 -1c-20 -186 -61 -423 -85 -472c-12 -26 -26 -37 -55 -37c-31 0 -41 13 -41 19c0 5 18 9 36 42
c43 79 102 482 102 541c0 21 -4 29 -4 33c0 9 43 16 70 15c29 -1 60 -13 70 -78c6 -33 23 -124 40 -228c15 -87 37 -177 49 -222c4 -14 10 -6 13 4c61 185 88 379 88 477c0 22 -9 25 -8 31c1 8 31 17 54 17c24 0 32 -21 32 -39zM424 696c0 -36 -39 -58 -74 -58
c-33 0 -63 29 -92 29c-33 0 -35 -15 -43 -15c-5 0 -6 3 -6 9c0 14 34 47 70 47s59 -30 86 -30c38 0 44 29 52 29c5 0 7 -4 7 -11z" />
    <glyph glyph-name="Oacute" unicode="&#xd3;" horiz-adv-x="531" 
d="M416 378c0 48 -5 87 -18 116c-9 -7 -29 -13 -39 -13c-13 0 -11 0 -10 10c1 47 -5 79 -48 79c-96 0 -186 -203 -186 -368c0 -122 36 -184 106 -184c117 0 195 203 195 360zM512 421c0 -269 -132 -456 -317 -456c-91 0 -180 54 -180 207c0 177 79 358 194 424
c39 21 78 32 120 32c50 0 79 -24 86 -42c7 3 16 5 21 5c22 0 36 -11 46 -25c15 -21 30 -65 30 -145zM462 777c0 -25 -127 -105 -169 -105c-9 0 -20 3 -20 8s5 4 20 13c33 20 107 77 134 112c5 7 9 13 13 13c8 0 22 -26 22 -41z" />
    <glyph glyph-name="Ocircumflex" unicode="&#xd4;" horiz-adv-x="531" 
d="M416 378c0 48 -5 87 -18 116c-9 -7 -29 -13 -39 -13c-13 0 -11 0 -10 10c1 47 -5 79 -48 79c-96 0 -186 -203 -186 -368c0 -122 36 -184 106 -184c117 0 195 203 195 360zM512 421c0 -269 -132 -456 -317 -456c-91 0 -180 54 -180 207c0 177 79 358 194 424
c39 21 78 32 120 32c50 0 79 -24 86 -42c7 3 16 5 21 5c22 0 36 -11 46 -25c15 -21 30 -65 30 -145zM462 660c0 -3 -5 -6 -12 -6c-29 0 -75 38 -103 71c-31 -31 -88 -70 -113 -70c-7 0 -16 3 -16 7s5 2 17 10c45 32 76 69 98 97c9 12 15 21 23 21c7 0 12 -12 18 -21
c27 -42 39 -68 73 -96c11 -9 15 -9 15 -13z" />
    <glyph glyph-name="Odieresis" unicode="&#xd6;" horiz-adv-x="531" 
d="M416 378c0 48 -5 87 -18 116c-9 -7 -29 -13 -39 -13c-13 0 -11 0 -10 10c1 47 -5 79 -48 79c-96 0 -186 -203 -186 -368c0 -122 36 -184 106 -184c117 0 195 203 195 360zM512 421c0 -269 -132 -456 -317 -456c-91 0 -180 54 -180 207c0 177 79 358 194 424
c39 21 78 32 120 32c50 0 79 -24 86 -42c7 3 16 5 21 5c22 0 36 -11 46 -25c15 -21 30 -65 30 -145zM319 728c0 -22 -16 -51 -49 -51c-18 0 -33 12 -33 35c0 31 25 52 48 52c22 0 34 -15 34 -36zM449 728c0 -22 -16 -51 -49 -51c-19 0 -34 12 -34 35c0 31 26 52 49 52
c21 0 34 -15 34 -36z" />
    <glyph glyph-name="Ograve" unicode="&#xd2;" horiz-adv-x="531" 
d="M416 378c0 48 -5 87 -18 116c-9 -7 -29 -13 -39 -13c-13 0 -11 0 -10 10c1 47 -5 79 -48 79c-96 0 -186 -203 -186 -368c0 -122 36 -184 106 -184c117 0 195 203 195 360zM512 421c0 -269 -132 -456 -317 -456c-91 0 -180 54 -180 207c0 177 79 358 194 424
c39 21 78 32 120 32c50 0 79 -24 86 -42c7 3 16 5 21 5c22 0 36 -11 46 -25c15 -21 30 -65 30 -145zM452 670c0 -5 -11 -8 -20 -8c-42 0 -169 80 -169 105c0 15 14 41 22 41c4 0 8 -6 13 -13c26 -35 101 -92 134 -112c15 -9 20 -8 20 -13z" />
    <glyph glyph-name="Otilde" unicode="&#xd5;" horiz-adv-x="531" 
d="M416 378c0 48 -5 87 -18 116c-9 -7 -29 -13 -39 -13c-13 0 -11 0 -10 10c1 47 -5 79 -48 79c-96 0 -186 -203 -186 -368c0 -122 36 -184 106 -184c117 0 195 203 195 360zM512 421c0 -269 -132 -456 -317 -456c-91 0 -180 54 -180 207c0 177 79 358 194 424
c39 21 78 32 120 32c50 0 79 -24 86 -42c7 3 16 5 21 5c22 0 36 -11 46 -25c15 -21 30 -65 30 -145zM454 726c0 -36 -39 -58 -74 -58c-33 0 -63 29 -92 29c-33 0 -35 -15 -43 -15c-5 0 -6 3 -6 9c0 14 34 47 70 47s59 -30 86 -30c38 0 44 29 52 29c5 0 7 -4 7 -11z" />
    <glyph glyph-name="Uacute" unicode="&#xda;" horiz-adv-x="490" 
d="M473 574c0 -64 -23 -232 -46 -323c-20 -81 -49 -159 -69 -193c-22 -36 -68 -93 -177 -93s-153 65 -153 142c0 123 51 344 51 453c0 22 -6 25 -6 30c0 8 24 20 56 19c31 0 47 -17 47 -45c0 -51 -20 -164 -37 -276c-11 -72 -19 -119 -19 -156c0 -86 38 -108 86 -108
c67 0 99 49 125 123c46 127 62 318 62 417c0 21 -9 25 -8 30c0 8 26 17 50 17s38 -19 38 -37zM422 767c0 -25 -127 -105 -169 -105c-9 0 -20 3 -20 8s5 4 20 13c33 20 107 77 134 112c5 7 9 13 13 13c8 0 22 -26 22 -41z" />
    <glyph glyph-name="Ucircumflex" unicode="&#xdb;" horiz-adv-x="490" 
d="M473 574c0 -64 -23 -232 -46 -323c-20 -81 -49 -159 -69 -193c-22 -36 -68 -93 -177 -93s-153 65 -153 142c0 123 51 344 51 453c0 22 -6 25 -6 30c0 8 24 20 56 19c31 0 47 -17 47 -45c0 -51 -20 -164 -37 -276c-11 -72 -19 -119 -19 -156c0 -86 38 -108 86 -108
c67 0 99 49 125 123c46 127 62 318 62 417c0 21 -9 25 -8 30c0 8 26 17 50 17s38 -19 38 -37zM402 660c0 -3 -5 -6 -12 -6c-29 0 -75 38 -103 71c-31 -31 -88 -70 -113 -70c-7 0 -16 3 -16 7s5 2 17 10c45 32 76 69 98 97c9 12 15 21 23 21c7 0 12 -12 18 -21
c27 -42 39 -68 73 -96c11 -9 15 -9 15 -13z" />
    <glyph glyph-name="Udieresis" unicode="&#xdc;" horiz-adv-x="490" 
d="M473 574c0 -64 -23 -232 -46 -323c-20 -81 -49 -159 -69 -193c-22 -36 -68 -93 -177 -93s-153 65 -153 142c0 123 51 344 51 453c0 22 -6 25 -6 30c0 8 24 20 56 19c31 0 47 -17 47 -45c0 -51 -20 -164 -37 -276c-11 -72 -19 -119 -19 -156c0 -86 38 -108 86 -108
c67 0 99 49 125 123c46 127 62 318 62 417c0 21 -9 25 -8 30c0 8 26 17 50 17s38 -19 38 -37zM269 718c0 -22 -16 -51 -49 -51c-18 0 -33 12 -33 35c0 31 25 52 48 52c22 0 34 -15 34 -36zM399 718c0 -22 -16 -51 -49 -51c-19 0 -34 12 -34 35c0 31 26 52 49 52
c21 0 34 -15 34 -36z" />
    <glyph glyph-name="Ugrave" unicode="&#xd9;" horiz-adv-x="490" 
d="M473 574c0 -64 -23 -232 -46 -323c-20 -81 -49 -159 -69 -193c-22 -36 -68 -93 -177 -93s-153 65 -153 142c0 123 51 344 51 453c0 22 -6 25 -6 30c0 8 24 20 56 19c31 0 47 -17 47 -45c0 -51 -20 -164 -37 -276c-11 -72 -19 -119 -19 -156c0 -86 38 -108 86 -108
c67 0 99 49 125 123c46 127 62 318 62 417c0 21 -9 25 -8 30c0 8 26 17 50 17s38 -19 38 -37zM382 670c0 -5 -11 -8 -20 -8c-42 0 -169 80 -169 105c0 15 14 41 22 41c4 0 8 -6 13 -13c26 -35 101 -92 134 -112c15 -9 20 -8 20 -13z" />
    <glyph glyph-name="Ydieresis" unicode="&#x178;" horiz-adv-x="421" 
d="M433 589c0 -63 -134 -236 -213 -353c-24 -120 -27 -132 -27 -185c0 -56 18 -57 18 -65s-22 -22 -50 -22c-34 0 -62 21 -62 67c0 60 9 106 31 206c-46 135 -83 240 -108 291c-21 44 -29 38 -29 47c0 12 38 44 70 44c20 0 28 -8 40 -37c15 -37 94 -274 94 -274
c49 72 127 192 145 231c25 57 18 65 18 73s6 12 21 12c33 0 52 -18 52 -35zM220 718c0 -22 -16 -51 -49 -51c-18 0 -33 12 -33 35c0 31 25 52 48 52c22 0 34 -15 34 -36zM350 718c0 -22 -16 -51 -49 -51c-19 0 -34 12 -34 35c0 31 26 52 49 52c21 0 34 -15 34 -36z" />
    <glyph glyph-name="aacute" unicode="&#xe1;" horiz-adv-x="367" 
d="M265 285c0 35 -17 70 -50 70c-64 0 -113 -103 -113 -214c0 -43 12 -76 49 -76c65 0 114 143 114 220zM351 308c0 -8 -3 -17 -4 -26c-1 -7 -36 -158 -36 -208c0 -51 19 -47 19 -58c0 -8 -12 -17 -41 -17c-38 0 -56 27 -55 80c-33 -51 -86 -76 -124 -76
c-46 0 -89 36 -89 129c0 161 107 275 228 275c44 0 85 -23 80 -85c12 -1 22 -5 22 -14zM362 557c0 -25 -127 -105 -169 -105c-9 0 -20 3 -20 8s5 4 20 13c33 20 107 77 134 112c5 7 9 13 13 13c8 0 22 -26 22 -41z" />
    <glyph glyph-name="acircumflex" unicode="&#xe2;" horiz-adv-x="367" 
d="M265 285c0 35 -17 70 -50 70c-64 0 -113 -103 -113 -214c0 -43 12 -76 49 -76c65 0 114 143 114 220zM351 308c0 -8 -3 -17 -4 -26c-1 -7 -36 -158 -36 -208c0 -51 19 -47 19 -58c0 -8 -12 -17 -41 -17c-38 0 -56 27 -55 80c-33 -51 -86 -76 -124 -76
c-46 0 -89 36 -89 129c0 161 107 275 228 275c44 0 85 -23 80 -85c12 -1 22 -5 22 -14zM367 450c0 -3 -5 -6 -12 -6c-29 0 -75 38 -103 71c-31 -31 -88 -70 -113 -70c-7 0 -16 3 -16 7s5 2 17 10c45 32 76 69 98 97c9 12 15 21 23 21c7 0 12 -12 18 -21
c27 -42 39 -68 73 -96c11 -9 15 -9 15 -13z" />
    <glyph glyph-name="adieresis" unicode="&#xe4;" horiz-adv-x="367" 
d="M265 285c0 35 -17 70 -50 70c-64 0 -113 -103 -113 -214c0 -43 12 -76 49 -76c65 0 114 143 114 220zM351 308c0 -8 -3 -17 -4 -26c-1 -7 -36 -158 -36 -208c0 -51 19 -47 19 -58c0 -8 -12 -17 -41 -17c-38 0 -56 27 -55 80c-33 -51 -86 -76 -124 -76
c-46 0 -89 36 -89 129c0 161 107 275 228 275c44 0 85 -23 80 -85c12 -1 22 -5 22 -14zM239 508c0 -22 -16 -51 -49 -51c-18 0 -33 12 -33 35c0 31 25 52 48 52c22 0 34 -15 34 -36zM369 508c0 -22 -16 -51 -49 -51c-19 0 -34 12 -34 35c0 31 26 52 49 52
c21 0 34 -15 34 -36z" />
    <glyph glyph-name="agrave" unicode="&#xe0;" horiz-adv-x="367" 
d="M265 285c0 35 -17 70 -50 70c-64 0 -113 -103 -113 -214c0 -43 12 -76 49 -76c65 0 114 143 114 220zM351 308c0 -8 -3 -17 -4 -26c-1 -7 -36 -158 -36 -208c0 -51 19 -47 19 -58c0 -8 -12 -17 -41 -17c-38 0 -56 27 -55 80c-33 -51 -86 -76 -124 -76
c-46 0 -89 36 -89 129c0 161 107 275 228 275c44 0 85 -23 80 -85c12 -1 22 -5 22 -14zM362 460c0 -5 -11 -8 -20 -8c-42 0 -169 80 -169 105c0 15 14 41 22 41c4 0 8 -6 13 -13c26 -35 101 -92 134 -112c15 -9 20 -8 20 -13z" />
    <glyph glyph-name="aring" unicode="&#xe5;" horiz-adv-x="367" 
d="M265 285c0 35 -17 70 -50 70c-64 0 -113 -103 -113 -214c0 -43 12 -76 49 -76c65 0 114 143 114 220zM298 509c0 19 -9 27 -9 30s3 5 5 6c-3 3 -9 6 -20 6c-20 0 -41 -13 -41 -44c0 -22 11 -37 30 -37c21 0 35 17 35 39zM351 308c0 -8 -3 -17 -4 -26
c-1 -7 -36 -158 -36 -208c0 -51 19 -47 19 -58c0 -8 -12 -17 -41 -17c-38 0 -56 27 -55 80c-33 -51 -86 -76 -124 -76c-46 0 -89 36 -89 129c0 161 107 275 228 275c44 0 85 -23 80 -85c12 -1 22 -5 22 -14zM329 512c0 -46 -34 -70 -72 -70c-31 0 -65 20 -65 67
c0 53 41 74 73 74c25 0 42 -19 42 -36v-2c13 -3 22 -15 22 -33z" />
    <glyph glyph-name="atilde" unicode="&#xe3;" horiz-adv-x="367" 
d="M265 285c0 35 -17 70 -50 70c-64 0 -113 -103 -113 -214c0 -43 12 -76 49 -76c65 0 114 143 114 220zM351 308c0 -8 -3 -17 -4 -26c-1 -7 -36 -158 -36 -208c0 -51 19 -47 19 -58c0 -8 -12 -17 -41 -17c-38 0 -56 27 -55 80c-33 -51 -86 -76 -124 -76
c-46 0 -89 36 -89 129c0 161 107 275 228 275c44 0 85 -23 80 -85c12 -1 22 -5 22 -14zM354 516c0 -36 -39 -58 -74 -58c-33 0 -63 29 -92 29c-33 0 -35 -15 -43 -15c-5 0 -6 3 -6 9c0 14 34 47 70 47s59 -30 86 -30c38 0 44 29 52 29c5 0 7 -4 7 -11z" />
    <glyph glyph-name="ccedilla" unicode="&#xe7;" horiz-adv-x="328" 
d="M324 340c0 -40 -36 -82 -82 -82c-6 0 -9 1 -9 4s3 6 6 10c7 11 15 32 15 49c0 21 -11 41 -38 41c-67 0 -115 -110 -115 -209c0 -68 32 -97 70 -97c45 0 89 25 123 66c3 2 5 7 8 7s4 -2 4 -6c0 -31 -51 -106 -137 -119c-11 -13 -24 -28 -24 -34c0 -11 53 -7 53 -49
c0 -31 -29 -58 -66 -58c-21 0 -41 13 -41 28c0 6 1 9 5 9c3 0 17 -12 28 -12c24 0 34 17 34 29c0 24 -32 27 -46 31c-7 2 -13 6 -13 12c0 8 11 23 25 43c-56 7 -103 44 -103 131c0 137 88 276 221 276c55 0 82 -32 82 -70z" />
    <glyph glyph-name="eacute" unicode="&#xe9;" horiz-adv-x="341" 
d="M247 323c0 23 -11 36 -32 36c-61 0 -105 -93 -113 -184c66 10 145 62 145 148zM324 332c0 -92 -79 -177 -223 -193c3 -62 35 -89 71 -89c45 0 89 25 123 65c3 3 5 8 8 8s4 -2 4 -6c0 -34 -62 -123 -166 -121c-62 1 -120 36 -120 132c0 137 88 276 221 276
c54 0 82 -34 82 -72zM332 557c0 -25 -127 -105 -169 -105c-9 0 -20 3 -20 8s5 4 20 13c33 20 107 77 134 112c5 7 9 13 13 13c8 0 22 -26 22 -41z" />
    <glyph glyph-name="ecircumflex" unicode="&#xea;" horiz-adv-x="341" 
d="M247 323c0 23 -11 36 -32 36c-61 0 -105 -93 -113 -184c66 10 145 62 145 148zM324 332c0 -92 -79 -177 -223 -193c3 -62 35 -89 71 -89c45 0 89 25 123 65c3 3 5 8 8 8s4 -2 4 -6c0 -34 -62 -123 -166 -121c-62 1 -120 36 -120 132c0 137 88 276 221 276
c54 0 82 -34 82 -72zM372 450c0 -3 -5 -6 -12 -6c-29 0 -75 38 -103 71c-31 -31 -88 -70 -113 -70c-7 0 -16 3 -16 7s5 2 17 10c45 32 76 69 98 97c9 12 15 21 23 21c7 0 12 -12 18 -21c27 -42 39 -68 73 -96c11 -9 15 -9 15 -13z" />
    <glyph glyph-name="edieresis" unicode="&#xeb;" horiz-adv-x="341" 
d="M247 323c0 23 -11 36 -32 36c-61 0 -105 -93 -113 -184c66 10 145 62 145 148zM324 332c0 -92 -79 -177 -223 -193c3 -62 35 -89 71 -89c45 0 89 25 123 65c3 3 5 8 8 8s4 -2 4 -6c0 -34 -62 -123 -166 -121c-62 1 -120 36 -120 132c0 137 88 276 221 276
c54 0 82 -34 82 -72zM219 508c0 -22 -16 -51 -49 -51c-18 0 -33 12 -33 35c0 31 25 52 48 52c22 0 34 -15 34 -36zM349 508c0 -22 -16 -51 -49 -51c-19 0 -34 12 -34 35c0 31 26 52 49 52c21 0 34 -15 34 -36z" />
    <glyph glyph-name="egrave" unicode="&#xe8;" horiz-adv-x="341" 
d="M247 323c0 23 -11 36 -32 36c-61 0 -105 -93 -113 -184c66 10 145 62 145 148zM324 332c0 -92 -79 -177 -223 -193c3 -62 35 -89 71 -89c45 0 89 25 123 65c3 3 5 8 8 8s4 -2 4 -6c0 -34 -62 -123 -166 -121c-62 1 -120 36 -120 132c0 137 88 276 221 276
c54 0 82 -34 82 -72zM362 460c0 -5 -11 -8 -20 -8c-42 0 -169 80 -169 105c0 15 14 41 22 41c4 0 8 -6 13 -13c26 -35 101 -92 134 -112c15 -9 20 -8 20 -13z" />
    <glyph glyph-name="iacute" unicode="&#xed;" horiz-adv-x="196" 
d="M225 104c0 -7 -2 -16 -7 -26c-23 -45 -69 -77 -127 -77c-47 0 -69 24 -69 69c0 17 4 36 9 66c17 86 29 139 29 165c0 23 -6 25 -6 31c0 8 23 18 47 18c29 0 42 -17 42 -45c0 -30 -19 -101 -37 -186c-1 -8 -4 -24 -4 -38c0 -24 14 -34 30 -34c29 0 68 35 80 54
c4 6 6 9 9 9c2 0 4 -2 4 -6zM212 557c0 -25 -127 -105 -169 -105c-9 0 -20 3 -20 8s5 4 20 13c33 20 107 77 134 112c5 7 9 13 13 13c8 0 22 -26 22 -41z" />
    <glyph glyph-name="icircumflex" unicode="&#xee;" horiz-adv-x="196" 
d="M225 104c0 -7 -2 -16 -7 -26c-23 -45 -69 -77 -127 -77c-47 0 -69 24 -69 69c0 17 4 36 9 66c17 86 29 139 29 165c0 23 -6 25 -6 31c0 8 23 18 47 18c29 0 42 -17 42 -45c0 -30 -19 -101 -37 -186c-1 -8 -4 -24 -4 -38c0 -24 14 -34 30 -34c29 0 68 35 80 54
c4 6 6 9 9 9c2 0 4 -2 4 -6zM230 430c0 -3 -5 -6 -11 -6c-26 0 -68 38 -92 71c-29 -31 -80 -70 -102 -70c-6 0 -15 3 -15 7s5 2 15 10c41 32 69 69 89 97c8 12 13 21 20 21s11 -12 16 -21c25 -42 36 -68 67 -96c9 -9 13 -9 13 -13z" />
    <glyph glyph-name="idieresis" unicode="&#xef;" horiz-adv-x="196" 
d="M225 104c0 -7 -2 -16 -7 -26c-23 -45 -69 -77 -127 -77c-47 0 -69 24 -69 69c0 17 4 36 9 66c17 86 29 139 29 165c0 23 -6 25 -6 31c0 8 23 18 47 18c29 0 42 -17 42 -45c0 -30 -19 -101 -37 -186c-1 -8 -4 -24 -4 -38c0 -24 14 -34 30 -34c29 0 68 35 80 54
c4 6 6 9 9 9c2 0 4 -2 4 -6zM119 498c0 -22 -16 -51 -49 -51c-18 0 -33 12 -33 35c0 31 25 52 48 52c22 0 34 -15 34 -36zM239 498c0 -22 -16 -51 -49 -51c-19 0 -34 12 -34 35c0 31 26 52 49 52c21 0 34 -15 34 -36z" />
    <glyph glyph-name="igrave" unicode="&#xec;" horiz-adv-x="196" 
d="M225 104c0 -7 -2 -16 -7 -26c-23 -45 -69 -77 -127 -77c-47 0 -69 24 -69 69c0 17 4 36 9 66c17 86 29 139 29 165c0 23 -6 25 -6 31c0 8 23 18 47 18c29 0 42 -17 42 -45c0 -30 -19 -101 -37 -186c-1 -8 -4 -24 -4 -38c0 -24 14 -34 30 -34c29 0 68 35 80 54
c4 6 6 9 9 9c2 0 4 -2 4 -6zM239 460c0 -5 -11 -8 -20 -8c-42 0 -169 80 -169 105c0 15 14 41 22 41c4 0 8 -6 13 -13c26 -35 101 -92 134 -112c15 -9 20 -8 20 -13z" />
    <glyph glyph-name="ntilde" unicode="&#xf1;" horiz-adv-x="373" 
d="M337 321c0 -66 -42 -187 -42 -267c0 -42 13 -58 24 -66c5 -3 10 -4 10 -8c0 -7 -7 -11 -29 -11c-46 0 -84 31 -84 97c0 70 35 175 35 223c0 31 -13 43 -34 43c-65 0 -105 -133 -120 -212c-10 -60 -11 -69 -16 -99c-2 -11 -5 -18 -19 -18c-15 0 -58 14 -58 33
c0 8 3 16 5 25c1 7 27 125 47 255c4 21 3 37 3 43s7 8 15 8c30 0 55 -31 61 -47c32 44 77 82 124 82c50 0 78 -34 78 -81zM344 516c0 -36 -39 -58 -74 -58c-33 0 -63 29 -92 29c-33 0 -35 -15 -43 -15c-5 0 -6 3 -6 9c0 14 34 47 70 47s59 -30 86 -30c38 0 44 29 52 29
c5 0 7 -4 7 -11z" />
    <glyph glyph-name="oacute" unicode="&#xf3;" 
d="M262 266c0 50 -10 87 -48 87c-66 0 -112 -129 -112 -226c0 -52 15 -84 48 -84c67 0 112 112 112 223zM345 283c0 -148 -82 -283 -203 -283c-91 0 -121 67 -121 141c0 50 13 126 46 183c26 43 51 60 77 60c15 0 24 -4 31 -7c23 18 46 28 77 28c52 0 93 -39 93 -122z
M332 557c0 -25 -127 -105 -169 -105c-9 0 -20 3 -20 8s5 4 20 13c33 20 107 77 134 112c5 7 9 13 13 13c8 0 22 -26 22 -41z" />
    <glyph glyph-name="ocircumflex" unicode="&#xf4;" horiz-adv-x="377" 
d="M262 266c0 50 -10 87 -48 87c-66 0 -112 -129 -112 -226c0 -52 15 -84 48 -84c67 0 112 112 112 223zM345 283c0 -148 -82 -283 -203 -283c-91 0 -121 67 -121 141c0 50 13 126 46 183c26 43 51 60 77 60c15 0 24 -4 31 -7c23 18 46 28 77 28c52 0 93 -39 93 -122z
M352 450c0 -3 -5 -6 -12 -6c-29 0 -75 38 -103 71c-31 -31 -88 -70 -113 -70c-7 0 -16 3 -16 7s5 2 17 10c45 32 76 69 98 97c9 12 15 21 23 21c7 0 12 -12 18 -21c27 -42 39 -68 73 -96c11 -9 15 -9 15 -13z" />
    <glyph glyph-name="odieresis" unicode="&#xf6;" 
d="M262 266c0 50 -10 87 -48 87c-66 0 -112 -129 -112 -226c0 -52 15 -84 48 -84c67 0 112 112 112 223zM345 283c0 -148 -82 -283 -203 -283c-91 0 -121 67 -121 141c0 50 13 126 46 183c26 43 51 60 77 60c15 0 24 -4 31 -7c23 18 46 28 77 28c52 0 93 -39 93 -122z
M219 508c0 -22 -16 -51 -49 -51c-18 0 -33 12 -33 35c0 31 25 52 48 52c22 0 34 -15 34 -36zM349 508c0 -22 -16 -51 -49 -51c-19 0 -34 12 -34 35c0 31 26 52 49 52c21 0 34 -15 34 -36z" />
    <glyph glyph-name="ograve" unicode="&#xf2;" 
d="M262 266c0 50 -10 87 -48 87c-66 0 -112 -129 -112 -226c0 -52 15 -84 48 -84c67 0 112 112 112 223zM345 283c0 -148 -82 -283 -203 -283c-91 0 -121 67 -121 141c0 50 13 126 46 183c26 43 51 60 77 60c15 0 24 -4 31 -7c23 18 46 28 77 28c52 0 93 -39 93 -122z
M332 460c0 -5 -11 -8 -20 -8c-42 0 -169 80 -169 105c0 15 14 41 22 41c4 0 8 -6 13 -13c26 -35 101 -92 134 -112c15 -9 20 -8 20 -13z" />
    <glyph glyph-name="otilde" unicode="&#xf5;" 
d="M262 266c0 50 -10 87 -48 87c-66 0 -112 -129 -112 -226c0 -52 15 -84 48 -84c67 0 112 112 112 223zM345 283c0 -148 -82 -283 -203 -283c-91 0 -121 67 -121 141c0 50 13 126 46 183c26 43 51 60 77 60c15 0 24 -4 31 -7c23 18 46 28 77 28c52 0 93 -39 93 -122z
M344 516c0 -36 -39 -58 -74 -58c-33 0 -63 29 -92 29c-33 0 -35 -15 -43 -15c-5 0 -6 3 -6 9c0 14 34 47 70 47s59 -30 86 -30c38 0 44 29 52 29c5 0 7 -4 7 -11z" />
    <glyph glyph-name="uacute" unicode="&#xfa;" horiz-adv-x="385" 
d="M357 361c0 -8 -3 -16 -5 -25c-1 -7 -45 -212 -45 -261c0 -51 19 -48 19 -58c0 -8 -11 -17 -41 -18c-40 0 -57 31 -54 90c-33 -60 -89 -90 -130 -90c-50 0 -78 34 -79 81c0 60 47 200 47 254c0 23 -6 25 -6 31c0 7 21 19 45 19c29 0 41 -20 41 -44
c0 -49 -42 -193 -42 -235c0 -29 12 -39 32 -39c65 0 109 128 124 207c10 59 13 73 17 103c2 10 5 18 19 18c15 0 58 -14 58 -33zM332 537c0 -25 -127 -105 -169 -105c-9 0 -20 3 -20 8s5 4 20 13c33 20 107 77 134 112c5 7 9 13 13 13c8 0 22 -26 22 -41z" />
    <glyph glyph-name="ucircumflex" unicode="&#xfb;" horiz-adv-x="385" 
d="M357 361c0 -8 -3 -16 -5 -25c-1 -7 -45 -212 -45 -261c0 -51 19 -48 19 -58c0 -8 -11 -17 -41 -18c-40 0 -57 31 -54 90c-33 -60 -89 -90 -130 -90c-50 0 -78 34 -79 81c0 60 47 200 47 254c0 23 -6 25 -6 31c0 7 21 19 45 19c29 0 41 -20 41 -44
c0 -49 -42 -193 -42 -235c0 -29 12 -39 32 -39c65 0 109 128 124 207c10 59 13 73 17 103c2 10 5 18 19 18c15 0 58 -14 58 -33zM352 450c0 -3 -5 -6 -12 -6c-29 0 -75 38 -103 71c-31 -31 -88 -70 -113 -70c-7 0 -16 3 -16 7s5 2 17 10c45 32 76 69 98 97c9 12 15 21 23 21
c7 0 12 -12 18 -21c27 -42 39 -68 73 -96c11 -9 15 -9 15 -13z" />
    <glyph glyph-name="udieresis" unicode="&#xfc;" horiz-adv-x="385" 
d="M357 361c0 -8 -3 -16 -5 -25c-1 -7 -45 -212 -45 -261c0 -51 19 -48 19 -58c0 -8 -11 -17 -41 -18c-40 0 -57 31 -54 90c-33 -60 -89 -90 -130 -90c-50 0 -78 34 -79 81c0 60 47 200 47 254c0 23 -6 25 -6 31c0 7 21 19 45 19c29 0 41 -20 41 -44
c0 -49 -42 -193 -42 -235c0 -29 12 -39 32 -39c65 0 109 128 124 207c10 59 13 73 17 103c2 10 5 18 19 18c15 0 58 -14 58 -33zM209 508c0 -22 -16 -51 -49 -51c-18 0 -33 12 -33 35c0 31 25 52 48 52c22 0 34 -15 34 -36zM339 508c0 -22 -16 -51 -49 -51
c-19 0 -34 12 -34 35c0 31 26 52 49 52c21 0 34 -15 34 -36z" />
    <glyph glyph-name="ugrave" unicode="&#xf9;" horiz-adv-x="385" 
d="M357 361c0 -8 -3 -16 -5 -25c-1 -7 -45 -212 -45 -261c0 -51 19 -48 19 -58c0 -8 -11 -17 -41 -18c-40 0 -57 31 -54 90c-33 -60 -89 -90 -130 -90c-50 0 -78 34 -79 81c0 60 47 200 47 254c0 23 -6 25 -6 31c0 7 21 19 45 19c29 0 41 -20 41 -44
c0 -49 -42 -193 -42 -235c0 -29 12 -39 32 -39c65 0 109 128 124 207c10 59 13 73 17 103c2 10 5 18 19 18c15 0 58 -14 58 -33zM312 440c0 -5 -11 -8 -20 -8c-42 0 -169 80 -169 105c0 15 14 41 22 41c4 0 8 -6 13 -13c26 -35 101 -92 134 -112c15 -9 20 -8 20 -13z" />
    <glyph glyph-name="ydieresis" unicode="&#xff;" horiz-adv-x="372" 
d="M353 361c0 -8 -3 -17 -4 -26c-2 -7 -37 -232 -48 -280c-35 -147 -96 -245 -201 -246c-63 0 -103 39 -103 93c0 7 2 11 6 11s6 -3 11 -11c15 -27 39 -43 68 -43c88 0 133 148 150 227c2 6 -2 8 -5 2c-38 -67 -89 -89 -130 -90c-50 0 -78 34 -78 81c-1 60 46 201 46 254
c0 23 -6 25 -6 31c0 8 21 19 45 19c29 0 41 -20 41 -44c1 -49 -40 -180 -40 -227c0 -31 13 -44 34 -44c65 0 105 125 120 204c11 59 13 73 17 103c2 11 5 18 19 18c15 0 58 -14 58 -32zM209 508c0 -22 -16 -51 -49 -51c-18 0 -33 12 -33 35c0 31 25 52 48 52
c22 0 34 -15 34 -36zM339 508c0 -22 -16 -51 -49 -51c-19 0 -34 12 -34 35c0 31 26 52 49 52c21 0 34 -15 34 -36z" />
    <glyph glyph-name="Aogonek" unicode="&#x104;" horiz-adv-x="492" 
d="M331 244c-11 85 -22 181 -33 266c0 2 -1 3 -2 0c-25 -77 -60 -176 -94 -267c18 3 39 4 68 4c23 0 43 -1 61 -3zM492 -8c0 -7 -8 -15 -22 -21c-8 -7 -16 -14 -22 -19c-14 -12 -27 -29 -27 -50c0 -27 21 -31 36 -31c19 0 28 7 31 7c2 0 3 -3 3 -8c0 -13 -18 -25 -43 -25
c-43 0 -65 24 -65 56c0 27 22 51 32 60l3 3c-37 6 -53 40 -71 160c-2 16 -5 34 -7 52c-24 4 -49 6 -84 6s-58 -2 -80 -6c-33 -85 -61 -153 -71 -169c-14 -25 -31 -46 -56 -46c-31 0 -43 13 -43 19c0 5 16 10 35 42c55 93 215 493 215 552c0 20 -4 29 -4 33c0 8 31 14 58 14
c46 0 73 -20 77 -64c3 -33 15 -152 28 -257c13 -115 33 -232 52 -272c17 -33 25 -29 25 -36z" />
    <glyph glyph-name="aogonek" unicode="&#x105;" horiz-adv-x="367" 
d="M265 285c0 35 -17 70 -50 70c-64 0 -113 -103 -113 -214c0 -43 12 -76 49 -76c65 0 114 143 114 220zM351 308c0 -8 -3 -17 -4 -26c-1 -7 -36 -158 -36 -208c0 -51 19 -47 19 -58c0 -3 -2 -7 -7 -10v0c-18 -10 -24 -14 -35 -24c-14 -12 -27 -29 -27 -50
c0 -27 21 -31 36 -31c19 0 28 7 31 7c2 0 3 -3 3 -8c0 -13 -18 -25 -43 -25c-43 0 -65 24 -65 56c0 27 22 51 32 60c5 5 10 8 14 11c-24 8 -36 34 -35 77c-33 -51 -86 -76 -124 -76c-46 0 -89 36 -89 129c0 161 107 275 228 275c44 0 85 -23 80 -85c12 -1 22 -5 22 -14z" />
    <glyph glyph-name="Cacute" unicode="&#x106;" horiz-adv-x="442" 
d="M447 512c0 -66 -46 -120 -112 -120c-4 0 -7 1 -7 4c0 4 4 7 9 14c7 11 24 36 24 83c0 38 -19 68 -61 68c-97 0 -183 -187 -183 -344c0 -122 42 -183 111 -183c97 0 157 76 194 124c3 4 6 9 10 9c3 0 4 -2 4 -5c0 -53 -91 -196 -245 -196c-89 0 -176 54 -176 206
c0 201 120 456 313 456c80 0 119 -53 119 -116zM462 777c0 -25 -127 -105 -169 -105c-9 0 -20 3 -20 8s5 4 20 13c33 20 107 77 134 112c5 7 9 13 13 13c8 0 22 -26 22 -41z" />
    <glyph glyph-name="cacute" unicode="&#x107;" horiz-adv-x="336" 
d="M324 340c0 -40 -36 -82 -82 -82c-6 0 -9 1 -9 4s3 6 6 10c7 11 15 32 15 49c0 21 -11 41 -38 41c-67 0 -115 -110 -115 -209c0 -68 32 -97 70 -97c45 0 89 25 123 66c3 2 5 7 8 7s4 -2 4 -6c0 -34 -61 -122 -165 -121c-63 1 -120 36 -120 132c0 137 88 276 221 276
c55 0 82 -32 82 -70zM332 557c0 -25 -127 -105 -169 -105c-9 0 -20 3 -20 8s5 4 20 13c33 20 107 77 134 112c5 7 9 13 13 13c8 0 22 -26 22 -41z" />
    <glyph glyph-name="Eogonek" unicode="&#x118;" horiz-adv-x="428" 
d="M451 587c0 -28 -30 -64 -41 -64c-6 0 -6 7 -34 16c-27 9 -62 9 -83 9c-34 0 -65 -2 -92 -4c-10 -49 -25 -112 -39 -190c41 7 107 12 142 12c32 0 46 -9 46 -29c0 -30 -28 -57 -37 -57s-16 16 -61 16c-39 0 -76 -6 -102 -11c-18 -108 -27 -169 -27 -211
c0 -19 9 -33 39 -33c52 0 114 8 168 26c37 12 47 22 52 22c2 0 3 -3 3 -5c0 -25 -23 -56 -56 -76c-5 -3 -11 -5 -16 -8c-11 -8 -26 -20 -35 -28c-14 -12 -27 -29 -27 -50c0 -27 21 -31 36 -31c19 0 28 7 31 7c2 0 3 -3 3 -8c0 -13 -18 -25 -43 -25c-43 0 -65 24 -65 56
c0 27 22 51 32 60l1 1c-52 -9 -109 -12 -140 -12c-57 0 -83 18 -83 67c0 99 56 358 80 490c-19 -5 -32 -10 -41 -14c-6 -2 -8 -4 -11 -4c-2 0 -3 3 -3 9c0 24 13 53 28 61c38 18 162 41 262 41c98 0 113 -23 113 -33z" />
    <glyph glyph-name="eogonek" unicode="&#x119;" horiz-adv-x="341" 
d="M247 323c0 23 -11 36 -32 36c-61 0 -105 -93 -113 -184c66 10 145 62 145 148zM324 332c0 -92 -79 -177 -223 -193c3 -62 35 -89 71 -89c45 0 89 25 123 65c3 3 5 8 8 8s4 -2 4 -6c0 -28 -41 -92 -113 -114c-9 -7 -19 -15 -26 -21c-14 -12 -27 -29 -27 -50
c0 -27 21 -31 36 -31c19 0 28 7 31 7c2 0 3 -3 3 -8c0 -13 -18 -25 -43 -25c-43 0 -65 24 -65 56c0 27 22 51 32 60c2 2 4 4 6 5c-63 1 -120 36 -120 132c0 137 88 276 221 276c54 0 82 -34 82 -72z" />
    <glyph glyph-name="Nacute" unicode="&#x143;" horiz-adv-x="517" 
d="M505 576c0 -64 -24 -200 -53 -302c-69 -244 -91 -268 -106 -278c-20 -14 -42 -25 -60 -25c-24 1 -44 57 -67 158c-23 98 -44 218 -67 345c-1 5 -7 7 -8 -1c-20 -186 -61 -423 -85 -472c-12 -26 -26 -37 -55 -37c-31 0 -41 13 -41 19c0 5 18 9 36 42
c43 79 102 482 102 541c0 21 -4 29 -4 33c0 9 43 16 70 15c29 -1 60 -13 70 -78c6 -33 23 -124 40 -228c15 -87 37 -177 49 -222c4 -14 10 -6 13 4c61 185 88 379 88 477c0 22 -9 25 -8 31c1 8 31 17 54 17c24 0 32 -21 32 -39zM432 767c0 -25 -127 -105 -169 -105
c-9 0 -20 3 -20 8s5 4 20 13c33 20 107 77 134 112c5 7 9 13 13 13c8 0 22 -26 22 -41z" />
    <glyph glyph-name="nacute" unicode="&#x144;" horiz-adv-x="366" 
d="M337 321c0 -66 -42 -187 -42 -267c0 -42 13 -58 24 -66c5 -3 10 -4 10 -8c0 -7 -7 -11 -29 -11c-46 0 -84 31 -84 97c0 70 35 175 35 223c0 31 -13 43 -34 43c-65 0 -105 -133 -120 -212c-10 -60 -11 -69 -16 -99c-2 -11 -5 -18 -19 -18c-15 0 -58 14 -58 33
c0 8 3 16 5 25c1 7 27 125 47 255c4 21 3 37 3 43s7 8 15 8c30 0 55 -31 61 -47c32 44 77 82 124 82c50 0 78 -34 78 -81zM332 557c0 -25 -127 -105 -169 -105c-9 0 -20 3 -20 8s5 4 20 13c33 20 107 77 134 112c5 7 9 13 13 13c8 0 22 -26 22 -41z" />
    <glyph glyph-name="Sacute" unicode="&#x15a;" horiz-adv-x="468" 
d="M491 522c0 -54 -52 -108 -107 -108c-5 0 -8 1 -8 4c0 1 2 3 4 6c6 7 21 27 21 64c0 62 -50 85 -107 85c-62 0 -125 -33 -125 -96c0 -123 239 -176 239 -320c0 -105 -81 -192 -231 -192c-146 0 -189 108 -181 163c1 4 2 6 4 6s3 -1 4 -5c16 -46 78 -108 172 -108
c75 0 130 40 130 99c0 136 -237 162 -237 336c0 103 106 168 250 168c122 0 172 -53 172 -102zM422 777c0 -25 -127 -105 -169 -105c-9 0 -20 3 -20 8s5 4 20 13c33 20 107 77 134 112c5 7 9 13 13 13c8 0 22 -26 22 -41z" />
    <glyph glyph-name="sacute" unicode="&#x15b;" horiz-adv-x="288" 
d="M297 340c2 -44 -34 -69 -72 -70c-11 0 -16 1 -16 5c0 7 20 15 19 46s-23 47 -59 46c-29 -1 -63 -20 -62 -54c2 -71 147 -96 151 -190c3 -78 -65 -120 -134 -123c-87 -3 -127 60 -128 106c0 11 3 14 6 14c4 0 5 -3 8 -8c31 -54 67 -68 103 -67c42 2 68 25 67 57
c-3 74 -144 85 -148 191c-2 54 52 108 152 112c72 3 111 -23 113 -65zM312 547c0 -25 -127 -105 -169 -105c-9 0 -20 3 -20 8s5 4 20 13c33 20 107 77 134 112c5 7 9 13 13 13c8 0 22 -26 22 -41z" />
    <glyph glyph-name="Zacute" unicode="&#x179;" horiz-adv-x="478" 
d="M507 552c0 -25 -133 -167 -222 -267s-152 -180 -182 -222c-9 -12 -4 -16 4 -16c51 0 144 -1 246 13c43 7 67 15 73 15c4 0 4 -3 4 -6c0 -20 -27 -54 -52 -65c-60 -26 -176 -32 -328 -32c-27 0 -66 42 -66 74c0 28 120 171 207 270c82 93 172 190 203 232c4 4 3 8 -2 8
s-158 -19 -239 -19c-51 0 -64 45 -64 63c0 8 0 11 5 11c4 0 9 -2 17 -2c161 0 245 15 331 15c14 0 23 -1 29 -7c13 -11 36 -46 36 -65zM422 767c0 -25 -127 -105 -169 -105c-9 0 -20 3 -20 8s5 4 20 13c33 20 107 77 134 112c5 7 9 13 13 13c8 0 22 -26 22 -41z" />
    <glyph glyph-name="zacute" unicode="&#x17a;" horiz-adv-x="275" 
d="M289 342c0 -15 -33 -56 -90 -124c-67 -81 -82 -96 -117 -142c-6 -9 -3 -12 4 -12c40 0 114 8 135 12c23 5 22 8 27 8c3 0 3 -3 3 -5c0 -12 -23 -42 -37 -51c-24 -15 -110 -24 -173 -24c-21 0 -53 36 -53 56c0 22 30 56 132 180c44 53 55 68 80 101c2 4 2 7 -2 7
s-107 -18 -137 -18c-27 0 -35 31 -35 45c0 6 0 9 4 8c3 0 7 -1 13 -1c42 0 165 19 195 19c10 0 17 -1 23 -6c10 -8 28 -38 28 -53zM282 547c0 -25 -127 -105 -169 -105c-9 0 -20 3 -20 8s5 4 20 13c33 20 107 77 134 112c5 7 9 13 13 13c8 0 22 -26 22 -41z" />
    <glyph glyph-name="Zdotaccent" unicode="&#x17b;" horiz-adv-x="478" 
d="M507 552c0 -25 -133 -167 -222 -267s-152 -180 -182 -222c-9 -12 -4 -16 4 -16c51 0 144 -1 246 13c43 7 67 15 73 15c4 0 4 -3 4 -6c0 -20 -27 -54 -52 -65c-60 -26 -176 -32 -328 -32c-27 0 -66 42 -66 74c0 28 120 171 207 270c82 93 172 190 203 232c4 4 3 8 -2 8
s-158 -19 -239 -19c-51 0 -64 45 -64 63c0 8 0 11 5 11c4 0 9 -2 17 -2c161 0 245 15 331 15c14 0 23 -1 29 -7c13 -11 36 -46 36 -65zM359 718c0 -22 -16 -51 -49 -51c-19 0 -34 12 -34 35c0 31 26 52 49 52c21 0 34 -15 34 -36z" />
    <glyph glyph-name="zdotaccent" unicode="&#x17c;" horiz-adv-x="275" 
d="M289 342c0 -15 -33 -56 -90 -124c-67 -81 -82 -96 -117 -142c-6 -9 -3 -12 4 -12c40 0 114 8 135 12c23 5 22 8 27 8c3 0 3 -3 3 -5c0 -12 -23 -42 -37 -51c-24 -15 -110 -24 -173 -24c-21 0 -53 36 -53 56c0 22 30 56 132 180c44 53 55 68 80 101c2 4 2 7 -2 7
s-107 -18 -137 -18c-27 0 -35 31 -35 45c0 6 0 9 4 8c3 0 7 -1 13 -1c42 0 165 19 195 19c10 0 17 -1 23 -6c10 -8 28 -38 28 -53zM229 508c0 -22 -16 -51 -49 -51c-19 0 -34 12 -34 35c0 31 26 52 49 52c21 0 34 -15 34 -36z" />
    <glyph glyph-name="uni0394" unicode="&#x394;" horiz-adv-x="461" 
d="M344 25c-11 28 -22 70 -30 123c-14 100 -28 220 -41 348c-1 7 -2 9 -5 0c-91 -242 -181 -416 -181 -461c0 -8 9 -20 63 -20c67 0 154 6 194 10zM460 4c0 -10 -15 -23 -67 -29c-47 -5 -137 -16 -287 -16c-82 0 -101 27 -101 43c0 56 227 473 227 577c0 29 -3 35 -3 39
c0 7 31 14 58 14c46 0 65 -18 69 -62c3 -33 15 -168 27 -273c12 -111 36 -221 53 -256c16 -33 24 -29 24 -37z" />
    <glyph glyph-name="uni03A9" unicode="&#x3a9;" horiz-adv-x="553" 
d="M514 388c0 -145 -72 -322 -191 -368c13 0 66 2 97 3c37 2 43 9 46 9c2 0 4 -2 4 -6c0 -6 -17 -42 -37 -49s-84 -8 -134 -8c-35 0 -66 0 -74 1c-9 2 -13 3 -13 14c0 10 5 27 15 30c109 25 190 168 190 375c0 76 -14 186 -104 186c-137 0 -203 -203 -203 -355
c0 -117 21 -152 38 -183c7 -13 21 -23 21 -29c0 -15 -17 -37 -24 -37c-25 0 -85 -3 -132 0c-35 2 -62 16 -62 38c0 23 2 28 8 28c3 0 22 -8 47 -11c22 -2 47 -3 92 -3c-35 28 -84 95 -84 224c0 231 149 385 303 385c147 0 197 -107 197 -244z" />
    <glyph glyph-name="uni03BC" unicode="&#x3bc;" horiz-adv-x="399" 
d="M367 358c0 -8 -3 -16 -5 -25c-1 -7 -46 -211 -46 -261c0 -51 19 -48 19 -58c0 -8 -12 -17 -41 -17c-40 0 -58 30 -54 89c-24 -56 -61 -83 -102 -83c-22 0 -40 10 -46 38c-12 -57 -28 -156 -40 -229c-2 -11 -5 -18 -18 -18c-16 0 -56 14 -56 33c0 8 3 18 4 27
c11 59 49 240 68 326c18 87 28 122 28 152c0 23 -6 25 -6 30c0 8 22 20 46 20c29 0 41 -21 41 -45c0 -48 -41 -179 -41 -227c0 -31 13 -44 33 -44c66 0 107 125 121 204c11 59 13 73 18 104c2 10 5 17 18 17c16 0 59 -14 59 -33z" />
    <glyph glyph-name="pi" unicode="&#x3c0;" horiz-adv-x="409" 
d="M174 347c-29 -186 -46 -282 -77 -317c-20 -24 -49 -35 -77 -35c-19 0 -34 6 -34 14c0 12 17 6 34 26c21 26 28 63 37 98c18 74 33 166 37 207c-31 -4 -55 -8 -66 -11c-5 -2 -8 -3 -10 -3s-3 2 -3 7c0 19 13 42 25 48c31 15 205 22 286 22c80 0 92 -18 92 -26
c0 -23 -24 -47 -33 -47c-5 0 -5 6 -28 13c-6 2 -12 3 -19 4c0 -30 -46 -222 -46 -279c0 -39 19 -41 19 -52c0 -8 -12 -17 -41 -17c-36 0 -58 23 -58 69c0 19 4 36 10 66c15 82 34 184 36 216c-28 0 -56 -2 -84 -3z" />
    <glyph glyph-name="Euro" unicode="&#x20ac;" horiz-adv-x="441" 
d="M327 228c0 -20 -21 -37 -35 -37c-10 0 -12 9 -42 9c-38 0 -91 -3 -132 -7c5 -106 46 -159 110 -159c76 0 135 43 174 93c3 3 6 9 10 9c3 0 4 -2 4 -6c0 -52 -71 -164 -225 -164c-89 0 -177 54 -176 206v7c-35 -6 -59 -10 -63 -10c-8 0 -13 3 -13 18c0 19 13 39 28 44
c8 3 27 6 52 9c3 24 8 48 13 72c-38 -6 -65 -11 -70 -11c-8 0 -12 2 -12 17c0 19 13 40 27 45c10 4 39 8 74 12c50 137 147 253 278 253c79 0 118 -53 118 -116c0 -47 -48 -67 -79 -67c-4 0 -7 1 -7 4c0 5 2 5 6 12c3 6 4 19 4 27c0 52 -29 73 -71 73
c-63 0 -121 -79 -154 -178c57 5 122 8 144 8c32 0 47 -3 47 -31c0 -20 -20 -37 -35 -37c-9 0 -12 9 -42 9c-38 0 -90 -3 -131 -8c-5 -24 -9 -49 -11 -74c64 5 138 9 161 9c33 0 48 -3 48 -31z" />
    <glyph glyph-name="Gamma" unicode="&#x393;" horiz-adv-x="429" 
d="M205 550c-8 -53 -25 -125 -42 -208c-28 -143 -48 -224 -48 -282c0 -56 18 -57 18 -65c0 -9 -22 -22 -50 -22c-34 0 -61 21 -61 67c0 110 64 348 91 494c-18 -5 -32 -9 -40 -13c-6 -2 -8 -4 -11 -4c-2 0 -3 3 -3 9c0 24 12 54 28 61c38 18 176 41 275 41
c98 0 114 -23 114 -33c0 -28 -30 -64 -42 -64c-5 0 -6 7 -33 16c-28 9 -62 9 -83 9c-42 0 -80 -2 -113 -6z" />
    <glyph glyph-name="Lambda" unicode="&#x39b;" horiz-adv-x="493" 
d="M347 124c-16 124 -31 249 -49 386c0 2 -1 3 -2 0c-39 -121 -132 -381 -191 -503c-14 -31 -28 -46 -56 -46c-31 0 -43 13 -43 19c0 9 16 10 35 42c55 93 215 493 215 552c0 20 -4 29 -4 33c0 8 31 14 58 14c46 0 73 -20 77 -64c3 -33 16 -152 28 -257
c14 -115 33 -232 52 -272c17 -33 25 -29 25 -36c0 -11 -24 -29 -58 -29c-49 0 -67 25 -87 161z" />
    <glyph glyph-name="Theta" unicode="&#x398;" horiz-adv-x="585" 
d="M414 319c0 -25 -11 -55 -19 -55c-4 0 -4 9 -24 14c-19 5 -50 7 -65 7c-69 0 -111 -6 -132 -14c-4 -2 -6 -4 -8 -4s-2 2 -2 8c0 21 9 47 20 55c20 14 98 18 157 18c58 0 73 -12 73 -29zM461 380c0 49 -3 90 -15 111c-9 -7 -29 -14 -39 -14c-13 0 -10 0 -10 11
c-2 53 -26 80 -69 80c-101 0 -212 -188 -212 -370c0 -122 44 -185 120 -185c134 0 225 199 225 367zM560 417c0 -268 -158 -456 -343 -456c-91 0 -201 53 -201 216c0 177 76 337 191 403c39 21 76 43 144 43c50 0 84 -19 105 -43c7 3 23 7 28 7c22 0 36 -11 46 -25
c15 -20 30 -65 30 -145z" />
    <glyph glyph-name="Xi" unicode="&#x39e;" horiz-adv-x="426" 
d="M397 71c0 -23 -35 -56 -51 -64c-38 -18 -122 -37 -271 -37c-98 0 -113 23 -113 33c0 28 30 66 41 66c6 0 6 -7 34 -16c27 -9 62 -9 83 -9c131 0 235 21 262 32c6 3 9 4 11 4c3 0 4 -3 4 -9zM362 320c0 -27 -13 -58 -22 -58c-4 0 -4 10 -26 16c-20 5 -54 7 -71 7
c-76 0 -124 -9 -147 -18c-5 -2 -7 -4 -9 -4s-2 3 -2 9c0 23 10 49 22 57c22 15 109 23 174 23c63 0 81 -13 81 -32zM483 582c0 -28 -30 -66 -41 -66c-6 0 -6 7 -34 16c-27 8 -62 9 -83 9c-130 0 -228 -24 -256 -35c-6 -2 -8 -4 -11 -4c-2 0 -3 3 -3 9c0 23 13 55 28 63
c38 18 138 40 287 40c98 0 113 -22 113 -32z" />
    <glyph glyph-name="Pi" unicode="&#x3a0;" horiz-adv-x="576" 
d="M221 550c-3 -53 -25 -140 -45 -242c-29 -144 -47 -213 -47 -260c0 -49 19 -56 19 -65c0 -8 -22 -21 -50 -21c-34 0 -61 19 -61 66c0 123 79 368 87 509c-27 -5 -50 -10 -67 -17c-6 -2 -9 -4 -11 -4c-3 0 -4 3 -4 9c0 24 13 54 28 61c38 18 201 38 378 38
c121 0 142 -20 142 -30c0 -28 -28 -59 -39 -59c-6 0 -6 7 -34 16c-6 2 -12 3 -19 5c-5 -55 -25 -139 -44 -234c-29 -143 -48 -224 -48 -282c0 -56 17 -57 17 -65s-21 -22 -49 -22c-34 0 -62 21 -62 67c0 125 86 400 91 540c-58 -1 -123 -4 -182 -10z" />
    <glyph glyph-name="Sigma" unicode="&#x3a3;" horiz-adv-x="397" 
d="M433 599c0 -28 -28 -64 -39 -64c-6 0 -9 10 -34 16c-7 2 -29 8 -68 8c-46 0 -77 -7 -109 -15c21 -45 100 -168 115 -210c1 -4 2 -6 2 -10c0 -2 0 -4 -4 -10c-29 -50 -209 -232 -209 -259c0 -12 14 -22 44 -22c52 0 120 4 173 21c38 12 47 22 52 22c3 0 4 -2 4 -5
c0 -25 -23 -56 -57 -75c-55 -32 -172 -33 -222 -33c-57 0 -93 28 -93 62c0 51 219 280 219 292s-85 149 -123 219c-11 20 -21 26 -21 32c0 7 22 26 64 37c64 16 129 22 193 22c98 0 113 -19 113 -28z" />
    <glyph glyph-name="Tau" unicode="&#x3a4;" horiz-adv-x="459" 
d="M461 583c0 -28 -30 -64 -41 -64c-6 0 -6 7 -34 15c-27 9 -62 10 -83 10h-3c-7 -53 -25 -127 -42 -213c-28 -143 -48 -224 -48 -281c0 -56 18 -57 18 -66c0 -8 -22 -21 -50 -21c-34 0 -61 21 -61 66c0 115 69 368 94 511c-90 -7 -163 -23 -183 -31c-6 -3 -9 -4 -12 -4
c-2 0 -3 2 -3 8c0 24 13 54 28 61c38 19 158 41 307 41c98 0 113 -23 113 -32z" />
    <glyph glyph-name="Alpha" unicode="&#x391;" horiz-adv-x="493" 
d="M331 244c-11 85 -22 181 -33 266c0 2 -1 3 -2 0c-25 -77 -60 -176 -94 -267c18 3 39 4 68 4c23 0 43 -1 61 -3zM492 -8c0 -11 -24 -29 -58 -29c-49 0 -67 25 -87 161c-2 16 -5 34 -7 52c-24 4 -49 6 -84 6s-58 -2 -80 -6c-33 -85 -61 -153 -71 -169
c-14 -25 -31 -46 -56 -46c-31 0 -43 13 -43 19c0 5 16 10 35 42c55 93 215 493 215 552c0 20 -4 29 -4 33c0 8 31 14 58 14c46 0 73 -20 77 -64c3 -33 15 -152 28 -257c13 -115 33 -232 52 -272c17 -33 25 -29 25 -36z" />
    <glyph glyph-name="Beta" unicode="&#x392;" horiz-adv-x="482" 
d="M321 194c0 55 -24 93 -96 93c-21 0 -46 -3 -72 -7c-22 -108 -34 -179 -34 -211c0 -29 19 -46 47 -46c104 0 155 91 155 171zM356 483c0 43 -26 78 -84 78c-23 0 -45 -1 -65 -4c-6 -53 -25 -130 -42 -219c-1 -2 -1 -3 -1 -5c126 6 192 54 192 150zM452 502
c0 -76 -44 -140 -125 -179c58 -10 95 -50 95 -109c0 -155 -133 -247 -296 -247c-55 0 -103 23 -103 69c0 112 67 356 93 500c-23 -7 -39 -14 -50 -19c-6 -2 -8 -4 -11 -4c-2 0 -3 3 -3 9c0 24 13 53 28 61c47 25 131 41 231 41c67 0 141 -41 141 -122z" />
    <glyph glyph-name="Epsilon" unicode="&#x395;" horiz-adv-x="394" 
d="M451 587c0 -28 -30 -64 -41 -64c-6 0 -6 7 -34 16c-27 9 -62 9 -83 9c-34 0 -65 -2 -92 -4c-10 -49 -25 -112 -39 -190c41 7 107 12 142 12c32 0 46 -9 46 -29c0 -30 -28 -57 -37 -57s-16 16 -61 16c-39 0 -76 -6 -102 -11c-18 -108 -27 -169 -27 -211
c0 -19 9 -33 39 -33c52 0 114 8 168 26c37 12 47 22 52 22c2 0 3 -3 3 -5c0 -25 -23 -56 -56 -76c-56 -31 -173 -38 -223 -38c-57 0 -83 18 -83 67c0 99 56 358 80 490c-19 -5 -32 -10 -41 -14c-6 -2 -8 -4 -11 -4c-2 0 -3 3 -3 9c0 24 13 53 28 61c38 18 162 41 262 41
c98 0 113 -23 113 -33z" />
    <glyph glyph-name="Zeta" unicode="&#x396;" horiz-adv-x="481" 
d="M503 552c0 -25 -130 -167 -219 -267s-152 -180 -182 -222c-9 -12 -4 -16 4 -16c51 0 141 -1 243 13c43 7 67 15 73 15c4 0 4 -3 4 -6c0 -20 -27 -54 -52 -65c-60 -26 -167 -32 -319 -32c-27 0 -66 42 -66 74c0 28 114 171 201 270c82 93 172 190 203 232c4 4 3 8 -2 8
s-152 -19 -233 -19c-51 0 -64 45 -64 63c0 8 0 11 5 11c4 0 9 -2 17 -2c161 0 277 15 322 15c14 0 23 -1 29 -7c13 -11 36 -46 36 -65z" />
    <glyph glyph-name="Eta" unicode="&#x397;" horiz-adv-x="537" 
d="M518 586c0 -51 -23 -144 -45 -256c-29 -143 -48 -224 -48 -281c0 -56 17 -57 17 -66c0 -8 -22 -21 -49 -21c-35 0 -62 21 -62 66c0 60 20 155 41 254c-24 3 -51 6 -85 6c-58 0 -103 -9 -143 -20c-23 -111 -37 -170 -37 -212c0 -48 19 -56 19 -64c0 -9 -22 -22 -50 -22
c-34 0 -61 19 -61 67c0 129 88 395 88 531c0 22 -6 25 -6 30c0 8 24 20 56 19c30 -1 46 -17 46 -45c0 -47 -20 -131 -41 -234c36 10 85 18 143 18c33 0 62 -2 86 -6c19 89 35 174 35 232c0 22 -6 25 -6 30c0 8 24 20 56 19c30 0 46 -17 46 -45z" />
    <glyph glyph-name="Iota" unicode="&#x399;" horiz-adv-x="256" 
d="M341 592c0 -14 -17 -43 -27 -43c-6 0 -8 6 -28 6c-15 0 -30 0 -45 -1c-11 -68 -29 -155 -46 -252c-21 -114 -31 -186 -45 -269c45 6 72 14 77 14s7 -3 7 -8c0 -16 -10 -44 -26 -51c-20 -11 -131 -21 -194 -21c-33 0 -40 7 -40 21c0 13 17 43 27 43c6 0 8 -6 28 -6h26
c24 170 76 379 91 521c-49 -6 -83 -13 -87 -13c-6 0 -8 3 -8 8c0 16 11 43 26 51c20 10 161 21 224 21c33 0 40 -7 40 -21z" />
    <glyph glyph-name="Kappa" unicode="&#x39a;" horiz-adv-x="483" 
d="M469 568c0 -28 -27 -70 -221 -259c33 -69 130 -281 181 -309c8 -4 12 -3 15 -5c1 0 2 -1 2 -4c0 -9 -34 -30 -72 -30c-79 0 -141 178 -223 339c-27 -135 -44 -203 -44 -248c0 -49 19 -56 19 -65c0 -8 -22 -21 -50 -21c-34 0 -61 19 -61 66c0 129 88 395 88 531
c0 22 -6 25 -6 31c0 8 24 20 56 19c30 -1 46 -17 46 -45c0 -51 -23 -144 -46 -256c0 -4 -1 -7 -2 -10h1c80 70 198 196 232 248c13 21 13 36 12 44c-1 7 2 13 11 13c34 0 62 -20 62 -39z" />
    <glyph glyph-name="Mu" unicode="&#x39c;" horiz-adv-x="666" 
d="M620 -17c0 -8 -19 -19 -47 -19c-48 0 -71 28 -71 164c0 124 11 307 11 317c0 7 -3 6 -4 1c-23 -65 -130 -345 -165 -435c-6 -16 -13 -24 -24 -24c-20 0 -48 6 -56 31c-9 25 -43 380 -48 419c-1 6 -4 8 -5 -1c-23 -132 -87 -367 -112 -432c-12 -33 -26 -45 -51 -45
c-31 0 -41 12 -41 18s15 14 27 40c58 124 133 432 133 545c0 30 -5 35 -5 39c0 7 31 16 58 16c53 0 65 -14 71 -58c8 -50 41 -342 47 -384c2 -9 3 -12 8 0c44 120 138 346 138 417c0 9 -2 13 -2 16c0 12 36 15 55 15c53 0 71 -22 70 -66c-1 -74 -28 -458 -5 -534
c11 -34 18 -31 18 -40z" />
    <glyph glyph-name="Phi" unicode="&#x3a6;" horiz-adv-x="595" 
d="M394 596c0 -11 -2 -26 -4 -44c30 -7 53 -22 68 -40c7 4 20 7 24 7c23 0 36 -10 46 -24c16 -21 36 -54 36 -134c0 -186 -116 -291 -267 -315v0c-2 -49 18 -57 18 -65s-17 -22 -45 -22c-34 0 -61 20 -61 67v15c-86 5 -177 51 -177 199c0 123 75 221 151 268
c28 18 65 36 117 44c1 14 2 28 2 40c0 22 -7 25 -7 30c0 8 24 20 56 19c31 0 43 -17 43 -45zM380 488c-11 -56 -24 -122 -37 -183c-20 -100 -34 -164 -42 -210c105 23 172 115 172 251c0 31 -6 66 -23 85c-9 -7 -25 -12 -34 -12c-13 0 -10 0 -11 11c-1 29 -10 47 -25 58z
M214 94c16 113 59 278 78 401c-87 -23 -167 -122 -167 -260c0 -80 34 -128 89 -141z" />
    <glyph glyph-name="Nu" unicode="&#x39d;" horiz-adv-x="530" 
d="M505 576c0 -64 -24 -200 -53 -302c-69 -244 -91 -268 -106 -278c-20 -14 -42 -25 -60 -25c-24 1 -44 57 -67 158c-23 98 -44 218 -67 345c-1 5 -7 7 -8 -1c-20 -186 -61 -423 -85 -472c-12 -26 -26 -37 -55 -37c-31 0 -41 13 -41 19c0 5 18 9 36 42
c43 79 102 482 102 541c0 21 -4 29 -4 33c0 9 43 16 70 15c29 -1 60 -13 70 -78c6 -33 23 -124 40 -228c15 -87 37 -177 49 -222c4 -14 10 -6 13 4c61 185 88 379 88 477c0 22 -9 25 -8 31c1 8 31 17 54 17c24 0 32 -21 32 -39z" />
    <glyph glyph-name="Omicron" unicode="&#x39f;" horiz-adv-x="537" 
d="M416 378c0 48 -5 87 -18 116c-9 -7 -29 -13 -39 -13c-13 0 -11 0 -10 10c1 47 -5 79 -48 79c-96 0 -186 -203 -186 -368c0 -122 36 -184 106 -184c117 0 195 203 195 360zM512 421c0 -269 -132 -456 -317 -456c-91 0 -180 54 -180 207c0 177 79 358 194 424
c39 21 78 32 120 32c50 0 79 -24 86 -42c7 3 16 5 21 5c22 0 36 -11 46 -25c15 -21 30 -65 30 -145z" />
    <glyph glyph-name="Upsilon" unicode="&#x3a5;" horiz-adv-x="453" 
d="M453 603c0 -6 -14 -12 -35 -43c-51 -70 -172 -295 -182 -350c-11 -58 -24 -114 -24 -151c0 -49 19 -57 19 -65s-22 -22 -50 -22c-34 0 -61 20 -61 67c0 52 24 159 25 183c2 60 -35 150 -56 205c-30 76 -54 118 -63 133c-19 31 -24 28 -24 36c0 11 24 29 57 29
c32 0 61 -34 94 -123c21 -54 40 -107 59 -188c1 -2 1 -3 3 0c58 136 111 223 132 259c17 29 38 48 63 48c31 0 43 -12 43 -18z" />
    <glyph glyph-name="Chi" unicode="&#x3a7;" horiz-adv-x="492" 
d="M487 584c2 -32 -102 -158 -197 -273c0 -1 1 -2 1 -3c57 -135 82 -202 108 -241c27 -40 47 -36 51 -43c5 -7 -5 -30 -28 -46c-29 -19 -62 -18 -88 21c-32 47 -70 137 -108 232c-120 -149 -149 -198 -147 -239c0 -13 4 -16 4 -20c0 -5 -3 -8 -17 -8c-29 0 -58 24 -59 55
c-2 49 62 129 191 281c-40 99 -80 194 -115 245c-12 19 -19 18 -22 22c-4 7 9 30 36 48c25 16 48 11 64 -12c22 -33 63 -133 102 -226c55 68 110 142 130 179c19 34 19 57 21 62c1 3 3 5 11 5c37 2 62 -22 62 -39z" />
    <glyph glyph-name="Rho" unicode="&#x3a1;" horiz-adv-x="459" 
d="M356 483c0 42 -26 78 -84 78c-23 0 -45 -2 -64 -4c-7 -54 -26 -131 -43 -220c-4 -18 -8 -36 -11 -52c136 11 202 101 202 198zM452 501c0 -120 -97 -260 -310 -274c-16 -78 -25 -131 -25 -171c0 -57 17 -57 17 -66c0 -8 -22 -22 -49 -22c-35 0 -62 22 -62 67
c0 112 67 356 93 501c-23 -8 -39 -15 -50 -19c-6 -3 -8 -4 -11 -4c-2 0 -3 2 -3 8c0 24 13 53 28 61c47 26 131 41 231 41c67 0 141 -41 141 -122z" />
    <glyph glyph-name="Psi" unicode="&#x3a8;" horiz-adv-x="579" 
d="M367 578c0 -51 -23 -144 -45 -256c-10 -49 -19 -91 -26 -127c82 13 117 70 136 122c24 66 41 191 41 238c0 41 -12 43 -11 48c1 8 27 19 57 17c25 -1 38 -18 38 -46c0 -70 -13 -140 -21 -181c-16 -78 -42 -128 -74 -168c-31 -41 -88 -82 -177 -90c-6 -36 -10 -62 -10 -83
c0 -48 19 -56 19 -64s-22 -22 -50 -22c-34 0 -61 20 -61 67c0 29 5 64 11 104c-118 17 -149 92 -149 168c0 66 27 158 27 267c0 22 -6 25 -6 30c0 8 24 20 56 19c30 -1 46 -17 46 -45c0 -29 -9 -98 -12 -121c-11 -72 -18 -115 -18 -151c0 -62 28 -93 68 -105
c26 130 65 284 65 375c0 22 -6 25 -6 30c0 8 24 20 56 19c30 0 46 -17 46 -45z" />
    <glyph glyph-name="alpha" unicode="&#x3b1;" horiz-adv-x="488" 
d="M468 366c0 -53 -48 -150 -116 -231c14 -59 28 -86 52 -86c14 0 16 7 23 7c3 0 5 -1 5 -7c0 -14 -24 -53 -70 -53c-37 0 -59 27 -74 74c-49 -42 -101 -70 -151 -70c-60 0 -113 35 -113 131c0 137 82 276 208 276c55 0 73 -27 82 -70c5 -23 12 -71 25 -138
c33 52 57 109 57 151c0 22 -6 28 -6 35c0 8 29 20 48 20c27 0 30 -19 30 -39zM275 118c-11 51 -20 115 -33 186c-6 33 -9 54 -36 54c-53 0 -101 -118 -101 -208c0 -60 23 -97 61 -97c32 0 72 27 109 65z" />
    <glyph glyph-name="beta" unicode="&#x3b2;" horiz-adv-x="391" 
d="M324 474c0 50 -14 85 -57 85c-63 0 -99 -76 -128 -242c-8 -41 -21 -108 -32 -175c-1 -8 -2 -20 -2 -27c0 -51 33 -67 60 -68c60 -1 112 59 112 129c0 51 -23 85 -66 92c-18 3 -44 1 -50 1c-4 0 -5 3 -5 5c0 9 11 29 20 29c81 6 148 81 148 171zM396 489
c0 -77 -44 -153 -125 -198c65 -16 85 -69 85 -111c-1 -89 -70 -181 -187 -181c-40 0 -70 22 -77 47c-13 -78 -30 -170 -35 -202c-1 -10 -4 -17 -18 -17c-16 0 -58 14 -58 32c0 8 2 18 4 28c10 59 74 403 95 509c31 158 131 208 198 208c68 0 118 -35 118 -115z" />
    <glyph glyph-name="gamma" unicode="&#x3b3;" horiz-adv-x="341" 
d="M65 -54c9 51 20 94 20 118c0 25 -37 218 -51 274c-6 22 -12 23 -13 28c-2 8 23 31 54 31c18 0 29 -9 36 -36c9 -34 14 -69 26 -133c7 -38 9 -57 19 -108c19 4 119 147 119 228c0 22 -3 26 -3 33s29 19 49 19c21 0 23 -11 23 -34c0 -76 -103 -250 -180 -311
c-10 -52 -32 -186 -41 -234c-2 -10 -5 -18 -19 -18c-15 0 -58 14 -58 33c0 8 2 18 4 27c5 29 10 54 15 83z" />
    <glyph glyph-name="delta" unicode="&#x3b4;" horiz-adv-x="375" 
d="M341 273c0 -147 -79 -273 -200 -273c-91 0 -121 67 -121 141c0 50 13 126 47 183c25 43 59 69 113 69c22 0 33 -4 41 -10c-51 62 -130 92 -130 171c0 28 12 44 25 53c9 6 16 7 21 7c3 0 5 -1 5 -4s1 -15 4 -24c8 -22 25 -44 60 -77c56 -53 135 -112 135 -236zM223 362
c-77 1 -122 -158 -122 -235c0 -52 15 -84 48 -84c67 0 112 112 112 223c0 24 -6 96 -38 96z" />
    <glyph glyph-name="epsilon" unicode="&#x3b5;" horiz-adv-x="320" 
d="M318 387c0 -15 -23 -39 -33 -39c-4 0 -3 4 -10 9c-11 8 -31 10 -50 10c-36 0 -95 -21 -95 -80c0 -39 25 -56 87 -56h27c5 -1 9 -1 9 -6c0 -12 -11 -28 -18 -28c-33 1 -149 -14 -149 -88c0 -47 41 -59 74 -59c37 0 82 11 106 33c2 2 8 9 11 9s4 -2 4 -6
c0 -34 -55 -88 -159 -88c-75 0 -121 38 -121 98s54 93 96 109c-38 15 -53 40 -53 70c0 79 82 136 193 136c56 0 81 -13 81 -24z" />
    <glyph glyph-name="zeta" unicode="&#x3b6;" horiz-adv-x="339" 
d="M379 555c0 -13 -16 -22 -42 -46c-114 -107 -235 -215 -235 -365c0 -60 26 -95 72 -95c37 0 69 26 94 26c24 0 38 -22 38 -48c0 -105 -98 -190 -188 -190c-29 0 -54 35 -54 54c0 4 1 6 4 6c5 0 14 -8 31 -8c70 0 152 71 152 122c0 13 -4 20 -16 20c-23 0 -51 -37 -104 -37
c-55 0 -108 31 -110 131c-5 200 183 348 278 424c4 2 5 6 -3 6c-100 0 -158 -22 -169 -22c-4 0 -5 2 -5 6c0 13 14 46 24 49c36 12 117 17 176 17c21 0 28 -4 33 -9c8 -6 24 -27 24 -41z" />
    <glyph glyph-name="eta" unicode="&#x3b7;" 
d="M337 323c0 -95 -66 -297 -66 -410c0 -42 7 -61 24 -77c4 -5 10 -5 10 -9c0 -6 -7 -11 -29 -11c-46 0 -84 31 -84 98c0 97 59 310 59 377c0 31 -14 43 -34 43c-65 0 -105 -133 -120 -212c-11 -60 -12 -69 -17 -99c-1 -11 -5 -18 -18 -18c-16 0 -58 14 -58 33
c0 8 3 16 4 25c1 7 28 125 48 255c3 21 3 37 3 43s7 8 14 8c30 0 56 -31 62 -47c32 44 76 82 123 82c51 0 79 -34 79 -81z" />
    <glyph glyph-name="theta" unicode="&#x3b8;" horiz-adv-x="412" 
d="M302 272c-20 5 -52 6 -68 6c-44 0 -86 -3 -117 -7c-5 -36 -7 -73 -7 -111c0 -87 29 -124 62 -124c57 0 105 108 130 236zM125 324c39 5 93 7 135 7c21 0 38 -1 51 -3c6 44 9 82 9 125c0 58 -20 103 -58 103c-56 0 -111 -97 -137 -232zM398 441c0 -191 -73 -451 -242 -451
c-90 0 -122 82 -122 185c0 167 45 274 76 332c25 49 64 75 90 75c15 0 16 -3 23 -6c23 18 47 28 77 28c52 0 98 -40 98 -163z" />
    <glyph glyph-name="iota" unicode="&#x3b9;" horiz-adv-x="201" 
d="M225 104c0 -7 -2 -16 -7 -26c-23 -45 -69 -77 -127 -77c-47 0 -69 24 -69 69c0 57 38 176 38 231c0 23 -6 25 -6 31c0 8 23 18 47 18c29 0 42 -17 42 -45c0 -56 -41 -172 -41 -224c0 -24 14 -34 30 -34c29 0 68 35 80 54c4 6 6 9 9 9c2 0 4 -2 4 -6z" />
    <glyph glyph-name="kappa" unicode="&#x3ba;" horiz-adv-x="358" 
d="M356 386c0 -29 -67 -103 -158 -171c34 -39 63 -141 110 -179c4 -4 11 -7 13 -8s3 -2 3 -4c0 -8 -26 -22 -56 -22c-24 0 -41 8 -57 27c-30 36 -51 102 -93 168c-1 1 -1 1 -1 2c-14 -68 -24 -125 -33 -182c-2 -10 -5 -18 -19 -18c-15 0 -58 14 -58 33c0 8 3 17 4 26
c3 13 53 248 53 297c0 22 -6 25 -6 30c0 8 23 18 47 18c29 0 42 -17 42 -45c0 -17 -19 -104 -27 -142c56 35 99 78 130 108c29 28 41 52 41 63c0 7 -2 7 -2 12c0 7 14 9 25 9c34 0 42 -10 42 -22z" />
    <glyph glyph-name="lambda" unicode="&#x3bb;" horiz-adv-x="332" 
d="M310 33c2 -6 -13 -22 -34 -30c-26 -10 -52 -4 -66 32c-21 55 -29 167 -45 277c-13 -27 -28 -57 -47 -92c-47 -90 -75 -154 -75 -188c0 -20 4 -21 4 -27c0 -4 -11 -9 -24 -9c-22 0 -41 11 -41 42c0 33 26 85 102 221c32 56 49 94 59 130c3 10 4 18 4 26c0 13 -3 23 -5 31
c-4 21 -16 79 -24 99c-7 17 -12 18 -14 22c-2 6 34 33 58 33c11 0 26 -2 34 -23c15 -38 38 -191 51 -290c16 -118 20 -175 34 -210c14 -37 27 -37 29 -44z" />
    <glyph glyph-name="nu" unicode="&#x3bd;" horiz-adv-x="371" 
d="M352 346c0 -118 -147 -350 -239 -350c-25 0 -35 17 -41 59c-14 107 -28 255 -35 281c-5 21 -12 23 -13 28c-2 8 24 31 55 31c19 0 31 -9 37 -36c7 -28 18 -164 24 -236c4 -39 4 -47 17 -47c29 0 129 130 129 246c0 45 -15 51 -15 57c0 8 28 21 48 21c26 0 33 -23 33 -54z
" />
    <glyph glyph-name="omicron" unicode="&#x3bf;" horiz-adv-x="379" 
d="M263 266c0 50 -10 87 -48 87c-66 0 -112 -129 -112 -226c0 -52 15 -84 48 -84c67 0 112 112 112 223zM346 283c0 -147 -82 -283 -203 -283c-91 0 -121 67 -121 141c0 50 13 126 46 183c26 43 51 60 77 60c15 0 24 -4 31 -7c23 18 46 28 77 28c52 0 93 -39 93 -122z" />
    <glyph glyph-name="rho" unicode="&#x3c1;" horiz-adv-x="402" 
d="M291 278c0 43 -14 79 -53 79c-85 0 -117 -164 -117 -242c0 -35 14 -66 47 -66c64 0 123 93 123 229zM369 272c0 -151 -82 -271 -195 -271c-33 0 -61 18 -73 47c-11 -56 -32 -154 -43 -227c-2 -11 -5 -18 -19 -18c-15 0 -58 14 -58 33c0 8 3 18 4 27c10 59 46 228 67 334
c34 169 132 208 198 208c69 0 119 -40 119 -133z" />
    <glyph glyph-name="sigma" unicode="&#x3c3;" horiz-adv-x="397" 
d="M263 262c0 46 -13 88 -52 88c-71 0 -109 -138 -109 -228c0 -51 15 -84 48 -84c68 0 113 113 113 224zM406 400c0 -12 -23 -44 -30 -44c-3 0 -8 4 -16 7c-13 4 -26 6 -45 6c-11 0 -28 0 -38 -1c41 -8 65 -46 65 -100c0 -147 -79 -273 -200 -273c-90 0 -120 68 -120 141
c0 50 13 127 46 183c25 43 52 64 78 64c19 0 33 -6 47 -18c-2 8 -1 19 2 25c6 11 23 15 36 18c20 4 71 6 100 6c64 0 75 -5 75 -14z" />
    <glyph glyph-name="tau" unicode="&#x3c4;" horiz-adv-x="305" 
d="M240 85c0 -7 -4 -26 -17 -42c-12 -15 -40 -42 -86 -42c-47 0 -69 25 -69 69c0 26 5 54 15 111c6 33 21 103 34 170c-49 -4 -74 -12 -90 -19c-4 -2 -6 -3 -9 -3c-1 0 -2 2 -2 7c0 19 13 41 25 47c31 15 107 21 187 21s89 -18 89 -26c0 -23 -24 -45 -33 -45
c-5 0 -5 6 -27 13c-21 6 -43 7 -60 7c-1 -3 -2 -7 -2 -11c-13 -59 -47 -198 -47 -254c0 -31 12 -37 27 -37c17 0 42 20 52 32c5 6 6 9 9 9c2 0 4 -2 4 -7z" />
    <glyph glyph-name="omega" unicode="&#x3c9;" horiz-adv-x="580" 
d="M548 331c0 -140 -69 -332 -202 -332c-47 0 -83 31 -94 76c-28 -51 -83 -73 -122 -73c-60 0 -102 31 -102 129c0 88 35 196 55 230c10 17 22 34 45 34c24 0 59 -14 59 -24c0 -5 -10 -16 -18 -27c-21 -32 -60 -116 -60 -217c0 -46 16 -70 40 -70c50 0 80 69 114 212
c4 17 9 22 20 27c12 5 29 11 46 11c8 0 13 -3 13 -10c0 -8 -16 -108 -16 -170c0 -49 13 -72 41 -72c78 0 109 160 109 266c0 46 -17 53 -17 60c0 10 25 17 48 17c33 0 41 -24 41 -67z" />
    <glyph glyph-name="sigma1" unicode="&#x3c2;" horiz-adv-x="335" 
d="M333 384c0 -15 -23 -39 -32 -39c-5 0 -4 3 -10 9c-12 10 -27 11 -46 11c-86 0 -141 -110 -141 -219c0 -60 25 -93 70 -93c37 0 66 23 91 23c24 0 38 -23 38 -50c0 -111 -120 -189 -187 -189c-30 0 -55 34 -55 54c0 3 1 6 4 6c5 0 14 -8 31 -8c70 0 152 71 152 121
c0 13 -4 20 -16 20c-23 0 -48 -33 -101 -33c-58 0 -110 39 -110 131c0 136 77 280 235 280c55 0 77 -12 77 -24z" />
    <glyph glyph-name="chi" unicode="&#x3c7;" horiz-adv-x="312" 
d="M331 372c0 -25 -73 -125 -152 -234c22 -100 45 -200 55 -228c7 -22 15 -33 30 -40c3 -1 5 -2 5 -4s-2 -5 -5 -8c-11 -8 -36 -27 -61 -27c-21 0 -33 16 -44 55c-4 15 -20 87 -39 169c-51 -71 -102 -146 -115 -177c-3 -9 -9 -19 -8 -30c1 -8 4 -11 4 -13c1 -4 -4 -7 -14 -7
c-16 0 -40 20 -40 42c0 33 70 128 158 250c-24 102 -49 204 -55 223c-8 22 -12 23 -13 29c-2 7 25 29 54 29c22 0 27 -8 36 -34c5 -14 20 -83 37 -163c38 55 85 126 100 151c14 24 15 39 16 43c1 2 3 4 8 4c26 0 43 -18 43 -30z" />
    <glyph glyph-name="upsilon" unicode="&#x3c5;" 
d="M345 324c0 -140 -59 -321 -203 -321c-75 0 -117 36 -117 118c0 58 34 163 34 217c0 23 -6 25 -6 30c0 8 21 20 46 20c29 0 41 -20 41 -44c0 -49 -39 -155 -39 -215c0 -48 16 -73 58 -73c83 0 120 144 120 257c0 47 -17 54 -17 60c0 11 23 18 46 18c33 0 37 -30 37 -67z
" />
    <glyph glyph-name="xi" unicode="&#x3be;" horiz-adv-x="330" 
d="M375 571c0 -14 -23 -38 -32 -38c-5 0 -4 3 -10 8c-13 10 -35 10 -50 10c-47 0 -126 -29 -126 -107c0 -65 40 -96 121 -97c10 0 15 0 15 -7c0 -9 -9 -38 -20 -38c-8 0 -14 1 -34 1c-80 0 -149 -76 -149 -154c0 -60 28 -93 73 -93c37 0 65 23 90 23c24 0 39 -23 39 -50
c0 -110 -102 -187 -188 -189c-29 -1 -55 35 -55 54c0 3 1 6 4 6c5 0 14 -8 31 -8c70 0 152 71 152 121c0 13 -4 20 -16 20c-23 0 -50 -33 -103 -33c-65 0 -110 50 -110 131c0 75 48 160 152 196c-48 7 -85 47 -85 104c0 94 90 164 221 164c55 0 80 -12 80 -24z" />
    <glyph glyph-name="phi" unicode="&#x3c6;" horiz-adv-x="444" 
d="M413 274c0 -145 -90 -253 -207 -273c-5 -31 -10 -70 -10 -87c0 -56 13 -57 13 -65c0 -9 -20 -20 -39 -20c-29 0 -35 29 -35 64c0 24 6 70 12 107c-77 9 -124 63 -124 160c0 58 20 129 61 176c22 24 45 40 74 40s46 -20 46 -26c0 -3 -3 -5 -6 -6c-44 -13 -98 -92 -98 -193
c0 -56 19 -96 54 -106c14 76 34 164 52 240s54 123 107 123c60 0 100 -39 100 -134zM213 45c90 23 128 131 128 233c0 42 -8 88 -33 88c-22 0 -33 -36 -43 -79c-20 -83 -39 -171 -52 -242z" />
    <glyph glyph-name="psi" unicode="&#x3c8;" horiz-adv-x="448" 
d="M300 477c0 -34 -11 -98 -34 -210c-14 -71 -32 -148 -46 -215c89 29 133 180 133 257c0 46 -17 53 -17 60c0 10 26 17 49 17c33 0 37 -30 37 -67c0 -128 -75 -292 -213 -317c-9 -45 -15 -81 -15 -103c0 -56 13 -57 13 -65s-20 -20 -39 -20c-29 0 -35 29 -35 65
c0 30 6 72 15 120c-86 6 -123 51 -123 118c0 57 34 162 34 216c0 23 -6 25 -6 30c0 8 22 20 46 20c29 0 41 -20 41 -44c0 -49 -38 -149 -38 -210c0 -39 13 -70 55 -79c31 149 79 334 79 418c0 22 -6 29 -6 35c0 8 11 12 28 12c25 0 42 -10 42 -38z" />
    <glyph glyph-name="Delta" unicode="&#x2206;" horiz-adv-x="461" 
d="M344 25c-11 28 -22 70 -30 123c-14 100 -28 220 -41 348c-1 7 -2 9 -5 0c-91 -242 -181 -416 -181 -461c0 -8 9 -20 63 -20c67 0 154 6 194 10zM460 4c0 -10 -15 -23 -67 -29c-47 -5 -137 -16 -287 -16c-82 0 -101 27 -101 43c0 56 227 473 227 577c0 29 -3 35 -3 39
c0 7 31 14 58 14c46 0 65 -18 69 -62c3 -33 15 -168 27 -273c12 -111 36 -221 53 -256c16 -33 24 -29 24 -37z" />
    <glyph glyph-name="Omega" unicode="&#x2126;" horiz-adv-x="553" 
d="M514 388c0 -145 -72 -322 -191 -368c13 0 66 2 97 3c37 2 43 9 46 9c2 0 4 -2 4 -6c0 -6 -17 -42 -37 -49s-84 -8 -134 -8c-35 0 -66 0 -74 1c-9 2 -13 3 -13 14c0 10 5 27 15 30c109 25 190 168 190 375c0 76 -14 186 -104 186c-137 0 -203 -203 -203 -355
c0 -117 21 -152 38 -183c7 -13 21 -23 21 -29c0 -15 -17 -37 -24 -37c-25 0 -85 -3 -132 0c-35 2 -62 16 -62 38c0 23 2 28 8 28c3 0 22 -8 47 -11c22 -2 47 -3 92 -3c-35 28 -84 95 -84 224c0 231 149 385 303 385c147 0 197 -107 197 -244z" />
    <glyph glyph-name="product" unicode="&#x220f;" horiz-adv-x="576" 
d="M221 550c-3 -53 -25 -140 -45 -242c-29 -144 -47 -213 -47 -260c0 -49 19 -56 19 -65c0 -8 -22 -21 -50 -21c-34 0 -61 19 -61 66c0 123 79 368 87 509c-27 -5 -50 -10 -67 -17c-6 -2 -9 -4 -11 -4c-3 0 -4 3 -4 9c0 24 13 54 28 61c38 18 201 38 378 38
c121 0 142 -20 142 -30c0 -28 -28 -59 -39 -59c-6 0 -6 7 -34 16c-6 2 -12 3 -19 5c-5 -55 -25 -139 -44 -234c-29 -143 -48 -224 -48 -282c0 -56 17 -57 17 -65s-21 -22 -49 -22c-34 0 -62 21 -62 67c0 125 86 400 91 540c-58 -1 -123 -4 -182 -10z" />
    <glyph glyph-name="summation" unicode="&#x2211;" horiz-adv-x="397" 
d="M433 599c0 -28 -28 -64 -39 -64c-6 0 -9 10 -34 16c-7 2 -29 8 -68 8c-46 0 -77 -7 -109 -15c21 -45 100 -168 115 -210c1 -4 2 -6 2 -10c0 -2 0 -4 -4 -10c-29 -50 -209 -232 -209 -259c0 -12 14 -22 44 -22c52 0 120 4 173 21c38 12 47 22 52 22c3 0 4 -2 4 -5
c0 -25 -23 -56 -57 -75c-55 -32 -172 -33 -222 -33c-57 0 -93 28 -93 62c0 51 219 280 219 292s-85 149 -123 219c-11 20 -21 26 -21 32c0 7 22 26 64 37c64 16 129 22 193 22c98 0 113 -19 113 -28z" />
    <glyph glyph-name="mu" unicode="&#xb5;" horiz-adv-x="399" 
d="M367 358c0 -8 -3 -16 -5 -25c-1 -7 -46 -211 -46 -261c0 -51 19 -48 19 -58c0 -8 -12 -17 -41 -17c-40 0 -58 30 -54 89c-24 -56 -61 -83 -102 -83c-22 0 -40 10 -46 38c-12 -57 -28 -156 -40 -229c-2 -11 -5 -18 -18 -18c-16 0 -56 14 -56 33c0 8 3 18 4 27
c11 59 49 240 68 326c18 87 28 122 28 152c0 23 -6 25 -6 30c0 8 22 20 46 20c29 0 41 -21 41 -45c0 -48 -41 -179 -41 -227c0 -31 13 -44 33 -44c66 0 107 125 121 204c11 59 13 73 18 104c2 10 5 17 18 17c16 0 59 -14 59 -33z" />
    <glyph glyph-name="tonos" unicode="&#x384;" horiz-adv-x="91" 
d="M85 623c4 -3 5 -8 5 -15c1 -36 -31 -116 -66 -144c-7 -6 -19 -9 -22 -5c-2 2 -1 4 2 9c23 42 38 102 40 153c0 5 -1 11 -1 14s2 5 5 5c10 0 26 -7 37 -17z" />
    <glyph glyph-name="Alphatonos" unicode="&#x386;" horiz-adv-x="493" 
d="M331 244c-11 85 -22 181 -33 266c0 2 -1 3 -2 0c-25 -77 -60 -176 -94 -267c18 3 39 4 68 4c23 0 43 -1 61 -3zM492 -8c0 -11 -24 -29 -58 -29c-49 0 -67 25 -87 161c-2 16 -5 34 -7 52c-24 4 -49 6 -84 6s-58 -2 -80 -6c-33 -85 -61 -153 -71 -169
c-14 -25 -31 -46 -56 -46c-31 0 -43 13 -43 19c0 5 16 10 35 42c55 93 215 493 215 552c0 20 -4 29 -4 33c0 8 31 14 58 14c46 0 73 -20 77 -64c3 -33 15 -152 28 -257c13 -115 33 -232 52 -272c17 -33 25 -29 25 -36zM172 623c4 -3 5 -8 5 -15c1 -36 -31 -116 -66 -144
c-7 -6 -19 -9 -22 -5c-2 2 -1 4 2 9c23 42 38 102 40 153c0 5 -1 11 -1 14s2 5 5 5c10 0 26 -7 37 -17z" />
    <glyph glyph-name="alphatonos" unicode="&#x3ac;" horiz-adv-x="488" 
d="M468 366c0 -53 -48 -150 -116 -231c14 -59 28 -86 52 -86c14 0 16 7 23 7c3 0 5 -1 5 -7c0 -14 -24 -53 -70 -53c-37 0 -59 27 -74 74c-49 -42 -101 -70 -151 -70c-60 0 -113 35 -113 131c0 137 82 276 208 276c55 0 73 -27 82 -70c5 -23 12 -71 25 -138
c33 52 57 109 57 151c0 22 -6 28 -6 35c0 8 29 20 48 20c27 0 30 -19 30 -39zM275 118c-11 51 -20 115 -33 186c-6 33 -9 54 -36 54c-53 0 -101 -118 -101 -208c0 -60 23 -97 61 -97c32 0 72 27 109 65zM298 623c4 -3 5 -8 5 -15c1 -36 -31 -116 -66 -144
c-7 -6 -19 -9 -22 -5c-2 2 -1 4 2 9c23 42 38 102 40 153c0 5 -1 11 -1 14s2 5 5 5c10 0 26 -7 37 -17z" />
    <glyph glyph-name="anoteleia" unicode="&#x387;" horiz-adv-x="164" 
d="M134 326c0 -28 -20 -63 -61 -63c-23 0 -41 15 -41 43c0 38 31 64 60 64c27 0 42 -18 42 -44z" />
    <glyph glyph-name="dieresistonos" unicode="&#x385;" horiz-adv-x="248" 
d="M169 618c4 -3 5 -8 5 -15c1 -36 -31 -116 -66 -144c-7 -6 -19 -9 -22 -5c-2 2 -1 4 2 9c23 42 38 102 40 153c0 5 -1 11 -1 14s2 5 5 5c10 0 26 -7 37 -17zM82 508c0 -22 -16 -51 -49 -51c-18 0 -33 12 -33 35c0 31 25 52 48 52c22 0 34 -15 34 -36zM248 508
c0 -22 -16 -51 -49 -51c-19 0 -34 12 -34 35c0 31 26 52 49 52c21 0 34 -15 34 -36z" />
    <glyph glyph-name="iotadieresistonos" unicode="&#x390;" horiz-adv-x="201" 
d="M230 104c0 -7 -2 -16 -7 -26c-23 -45 -69 -77 -127 -77c-47 0 -69 24 -69 69c0 57 38 176 38 231c0 23 -6 25 -6 31c0 8 23 18 47 18c29 0 42 -17 42 -45c0 -56 -41 -172 -41 -224c0 -24 14 -34 30 -34c29 0 68 35 80 54c4 6 6 9 9 9c2 0 4 -2 4 -6zM177 602
c4 -3 5 -8 5 -15c1 -36 -31 -116 -66 -144c-7 -6 -19 -9 -22 -5c-2 2 -1 4 2 9c23 42 38 102 40 153c0 5 -1 11 -1 14s2 5 5 5c10 0 26 -7 37 -17zM90 492c0 -22 -16 -51 -49 -51c-18 0 -33 12 -33 35c0 31 25 52 48 52c22 0 34 -15 34 -36zM256 492c0 -22 -16 -51 -49 -51
c-19 0 -34 12 -34 35c0 31 26 52 49 52c21 0 34 -15 34 -36z" />
    <glyph glyph-name="Epsilontonos" unicode="&#x388;" horiz-adv-x="494" 
d="M551 587c0 -28 -30 -64 -41 -64c-6 0 -6 7 -34 16c-27 9 -62 9 -83 9c-34 0 -65 -2 -92 -4c-10 -49 -25 -112 -39 -190c41 7 107 12 142 12c32 0 46 -9 46 -29c0 -30 -28 -57 -37 -57s-16 16 -61 16c-39 0 -76 -6 -102 -11c-18 -108 -27 -169 -27 -211
c0 -19 9 -33 39 -33c52 0 114 8 168 26c37 12 47 22 52 22c2 0 3 -3 3 -5c0 -25 -23 -56 -56 -76c-56 -31 -173 -38 -223 -38c-57 0 -83 18 -83 67c0 99 56 358 80 490c-19 -5 -32 -10 -41 -14c-6 -2 -8 -4 -11 -4c-2 0 -3 3 -3 9c0 24 13 53 28 61c38 18 162 41 262 41
c98 0 113 -23 113 -33zM113 623c4 -3 5 -8 5 -15c1 -36 -31 -116 -66 -144c-7 -6 -19 -9 -22 -5c-2 2 -1 4 2 9c23 42 38 102 40 153c0 5 -1 11 -1 14s2 5 5 5c10 0 26 -7 37 -17z" />
    <glyph glyph-name="Etatonos" unicode="&#x389;" horiz-adv-x="627" 
d="M608 586c0 -51 -23 -144 -45 -256c-29 -143 -48 -224 -48 -281c0 -56 17 -57 17 -66c0 -8 -22 -21 -49 -21c-35 0 -62 21 -62 66c0 60 20 155 41 254c-24 3 -51 6 -85 6c-58 0 -103 -9 -143 -20c-23 -111 -37 -170 -37 -212c0 -48 19 -56 19 -64c0 -9 -22 -22 -50 -22
c-34 0 -61 19 -61 67c0 129 88 395 88 531c0 22 -6 25 -6 30c0 8 24 20 56 19c30 -1 46 -17 46 -45c0 -47 -20 -131 -41 -234c36 10 85 18 143 18c33 0 62 -2 86 -6c19 89 35 174 35 232c0 22 -6 25 -6 30c0 8 24 20 56 19c30 0 46 -17 46 -45zM134 623c4 -3 5 -8 5 -15
c1 -36 -31 -116 -66 -144c-7 -6 -19 -9 -22 -5c-2 2 -1 4 2 9c23 42 38 102 40 153c0 5 -1 11 -1 14s2 5 5 5c10 0 26 -7 37 -17z" />
    <glyph glyph-name="Iotatonos" unicode="&#x38a;" horiz-adv-x="371" 
d="M456 592c0 -14 -17 -43 -27 -43c-6 0 -8 6 -28 6c-15 0 -30 0 -45 -1c-11 -68 -29 -155 -46 -252c-21 -114 -31 -186 -45 -269c45 6 72 14 77 14s7 -3 7 -8c0 -16 -10 -44 -26 -51c-20 -11 -131 -21 -194 -21c-33 0 -40 7 -40 21c0 13 17 43 27 43c6 0 8 -6 28 -6h26
c24 170 76 379 91 521c-49 -6 -83 -13 -87 -13c-6 0 -8 3 -8 8c0 16 11 43 26 51c20 10 161 21 224 21c33 0 40 -7 40 -21zM131 623c4 -3 5 -8 5 -15c1 -36 -31 -116 -66 -144c-7 -6 -19 -9 -22 -5c-2 2 -1 4 2 9c23 42 38 102 40 153c0 5 -1 11 -1 14s2 5 5 5
c10 0 26 -7 37 -17z" />
    <glyph glyph-name="Omicrontonos" unicode="&#x38c;" horiz-adv-x="587" 
d="M466 378c0 48 -5 87 -18 116c-9 -7 -29 -13 -39 -13c-13 0 -11 0 -10 10c1 47 -5 79 -48 79c-96 0 -186 -203 -186 -368c0 -122 36 -184 106 -184c117 0 195 203 195 360zM562 421c0 -269 -132 -456 -317 -456c-91 0 -180 54 -180 207c0 177 79 358 194 424
c39 21 78 32 120 32c50 0 79 -24 86 -42c7 3 16 5 21 5c22 0 36 -11 46 -25c15 -21 30 -65 30 -145zM119 623c4 -3 5 -8 5 -15c1 -36 -31 -116 -66 -144c-7 -6 -19 -9 -22 -5c-2 2 -1 4 2 9c23 42 38 102 40 153c0 5 -1 11 -1 14s2 5 5 5c10 0 26 -7 37 -17z" />
    <glyph glyph-name="Upsilontonos" unicode="&#x38e;" horiz-adv-x="589" 
d="M589 603c0 -6 -14 -12 -35 -43c-51 -70 -172 -295 -182 -350c-11 -58 -24 -114 -24 -151c0 -49 19 -57 19 -65s-22 -22 -50 -22c-34 0 -61 20 -61 67c0 52 24 159 25 183c2 60 -35 150 -56 205c-30 76 -54 118 -63 133c-19 31 -24 28 -24 36c0 11 24 29 57 29
c32 0 61 -34 94 -123c21 -54 40 -107 59 -188c1 -2 1 -3 3 0c58 136 111 223 132 259c17 29 38 48 63 48c31 0 43 -12 43 -18zM111 623c4 -3 5 -8 5 -15c1 -36 -31 -116 -66 -144c-7 -6 -19 -9 -22 -5c-2 2 -1 4 2 9c23 42 38 102 40 153c0 5 -1 11 -1 14s2 5 5 5
c10 0 26 -7 37 -17z" />
    <glyph glyph-name="Omegatonos" unicode="&#x38f;" horiz-adv-x="633" 
d="M594 388c0 -145 -72 -322 -191 -368c13 0 66 2 97 3c37 2 43 9 46 9c2 0 4 -2 4 -6c0 -6 -17 -42 -37 -49s-84 -8 -134 -8c-35 0 -66 0 -74 1c-9 2 -13 3 -13 14c0 10 5 27 15 30c109 25 190 168 190 375c0 76 -14 186 -104 186c-137 0 -203 -203 -203 -355
c0 -117 21 -152 38 -183c7 -13 21 -23 21 -29c0 -15 -17 -37 -24 -37c-25 0 -85 -3 -132 0c-35 2 -62 16 -62 38c0 23 2 28 8 28c3 0 22 -8 47 -11c22 -2 47 -3 92 -3c-35 28 -84 95 -84 224c0 231 149 385 303 385c147 0 197 -107 197 -244zM123 623c4 -3 5 -8 5 -15
c1 -36 -31 -116 -66 -144c-7 -6 -19 -9 -22 -5c-2 2 -1 4 2 9c23 42 38 102 40 153c0 5 -1 11 -1 14s2 5 5 5c10 0 26 -7 37 -17z" />
    <glyph glyph-name="Iotadieresis" unicode="&#x3aa;" horiz-adv-x="256" 
d="M341 592c0 -14 -17 -43 -27 -43c-6 0 -8 6 -28 6c-15 0 -30 0 -45 -1c-11 -68 -29 -155 -46 -252c-21 -114 -31 -186 -45 -269c45 6 72 14 77 14s7 -3 7 -8c0 -16 -10 -44 -26 -51c-20 -11 -131 -21 -194 -21c-33 0 -40 7 -40 21c0 13 17 43 27 43c6 0 8 -6 28 -6h26
c24 170 76 379 91 521c-49 -6 -83 -13 -87 -13c-6 0 -8 3 -8 8c0 16 11 43 26 51c20 10 161 21 224 21c33 0 40 -7 40 -21zM198 740c0 -22 -16 -51 -49 -51c-18 0 -33 12 -33 35c0 31 25 52 48 52c22 0 34 -15 34 -36zM328 740c0 -22 -16 -51 -49 -51c-19 0 -34 12 -34 35
c0 31 26 52 49 52c21 0 34 -15 34 -36z" />
    <glyph glyph-name="Upsilondieresis" unicode="&#x3ab;" horiz-adv-x="453" 
d="M453 603c0 -6 -14 -12 -35 -43c-51 -70 -172 -295 -182 -350c-11 -58 -24 -114 -24 -151c0 -49 19 -57 19 -65s-22 -22 -50 -22c-34 0 -61 20 -61 67c0 52 24 159 25 183c2 60 -35 150 -56 205c-30 76 -54 118 -63 133c-19 31 -24 28 -24 36c0 11 24 29 57 29
c32 0 61 -34 94 -123c21 -54 40 -107 59 -188c1 -2 1 -3 3 0c58 136 111 223 132 259c17 29 38 48 63 48c31 0 43 -12 43 -18zM221 740c0 -22 -16 -51 -49 -51c-18 0 -33 12 -33 35c0 31 25 52 48 52c22 0 34 -15 34 -36zM351 740c0 -22 -16 -51 -49 -51
c-19 0 -34 12 -34 35c0 31 26 52 49 52c21 0 34 -15 34 -36z" />
    <glyph glyph-name="epsilontonos" unicode="&#x3ad;" horiz-adv-x="320" 
d="M318 387c0 -15 -23 -39 -33 -39c-4 0 -3 4 -10 9c-11 8 -31 10 -50 10c-36 0 -95 -21 -95 -80c0 -39 25 -56 87 -56h27c5 -1 9 -1 9 -6c0 -12 -11 -28 -18 -28c-33 1 -149 -14 -149 -88c0 -47 41 -59 74 -59c37 0 82 11 106 33c2 2 8 9 11 9s4 -2 4 -6
c0 -34 -55 -88 -159 -88c-75 0 -121 38 -121 98s54 93 96 109c-38 15 -53 40 -53 70c0 79 82 136 193 136c56 0 81 -13 81 -24zM270 623c4 -3 5 -8 5 -15c1 -36 -31 -116 -66 -144c-7 -6 -19 -9 -22 -5c-2 2 -1 4 2 9c23 42 38 102 40 153c0 5 -1 11 -1 14s2 5 5 5
c10 0 26 -7 37 -17z" />
    <glyph glyph-name="etatonos" unicode="&#x3ae;" 
d="M337 323c0 -95 -66 -297 -66 -410c0 -42 7 -61 24 -77c4 -5 10 -5 10 -9c0 -6 -7 -11 -29 -11c-46 0 -84 31 -84 98c0 97 59 310 59 377c0 31 -14 43 -34 43c-65 0 -105 -133 -120 -212c-11 -60 -12 -69 -17 -99c-1 -11 -5 -18 -18 -18c-16 0 -58 14 -58 33
c0 8 3 16 4 25c1 7 28 125 48 255c3 21 3 37 3 43s7 8 14 8c30 0 56 -31 62 -47c32 44 76 82 123 82c51 0 79 -34 79 -81zM276 623c4 -3 5 -8 5 -15c1 -36 -31 -116 -66 -144c-7 -6 -19 -9 -22 -5c-2 2 -1 4 2 9c23 42 38 102 40 153c0 5 -1 11 -1 14s2 5 5 5
c10 0 26 -7 37 -17z" />
    <glyph glyph-name="iotatonos" unicode="&#x3af;" horiz-adv-x="201" 
d="M225 104c0 -7 -2 -16 -7 -26c-23 -45 -69 -77 -127 -77c-47 0 -69 24 -69 69c0 57 38 176 38 231c0 23 -6 25 -6 31c0 8 23 18 47 18c29 0 42 -17 42 -45c0 -56 -41 -172 -41 -224c0 -24 14 -34 30 -34c29 0 68 35 80 54c4 6 6 9 9 9c2 0 4 -2 4 -6zM166 584
c4 -3 5 -8 5 -15c1 -36 -31 -116 -66 -144c-7 -6 -19 -9 -22 -5c-2 2 -1 4 2 9c23 42 38 102 40 153c0 5 -1 11 -1 14s2 5 5 5c10 0 26 -7 37 -17z" />
    <glyph glyph-name="upsilondieresistonos" unicode="&#x3b0;" horiz-adv-x="353" 
d="M336 324c0 -140 -59 -321 -203 -321c-75 0 -117 36 -117 118c0 58 34 163 34 217c0 23 -6 25 -6 30c0 8 21 20 46 20c29 0 41 -20 41 -44c0 -49 -39 -155 -39 -215c0 -48 16 -73 58 -73c83 0 120 144 120 257c0 47 -17 54 -17 60c0 11 23 18 46 18c33 0 37 -30 37 -67z
M249 618c4 -3 5 -8 5 -15c1 -36 -31 -116 -66 -144c-7 -6 -19 -9 -22 -5c-2 2 -1 4 2 9c23 42 38 102 40 153c0 5 -1 11 -1 14s2 5 5 5c10 0 26 -7 37 -17zM162 508c0 -22 -16 -51 -49 -51c-18 0 -33 12 -33 35c0 31 25 52 48 52c22 0 34 -15 34 -36zM328 508
c0 -22 -16 -51 -49 -51c-19 0 -34 12 -34 35c0 31 26 52 49 52c21 0 34 -15 34 -36z" />
    <glyph glyph-name="iotadieresis" unicode="&#x3ca;" horiz-adv-x="201" 
d="M225 104c0 -7 -2 -16 -7 -26c-23 -45 -69 -77 -127 -77c-47 0 -69 24 -69 69c0 57 38 176 38 231c0 23 -6 25 -6 31c0 8 23 18 47 18c29 0 42 -17 42 -45c0 -56 -41 -172 -41 -224c0 -24 14 -34 30 -34c29 0 68 35 80 54c4 6 6 9 9 9c2 0 4 -2 4 -6zM104 491
c0 -22 -16 -51 -49 -51c-18 0 -33 12 -33 35c0 31 25 52 48 52c22 0 34 -15 34 -36zM234 491c0 -22 -16 -51 -49 -51c-19 0 -34 12 -34 35c0 31 26 52 49 52c21 0 34 -15 34 -36z" />
    <glyph glyph-name="upsilondieresis" unicode="&#x3cb;" 
d="M345 324c0 -140 -59 -321 -203 -321c-75 0 -117 36 -117 118c0 58 34 163 34 217c0 23 -6 25 -6 30c0 8 21 20 46 20c29 0 41 -20 41 -44c0 -49 -39 -155 -39 -215c0 -48 16 -73 58 -73c83 0 120 144 120 257c0 47 -17 54 -17 60c0 11 23 18 46 18c33 0 37 -30 37 -67z
M191 508c0 -22 -16 -51 -49 -51c-18 0 -33 12 -33 35c0 31 25 52 48 52c22 0 34 -15 34 -36zM321 508c0 -22 -16 -51 -49 -51c-19 0 -34 12 -34 35c0 31 26 52 49 52c21 0 34 -15 34 -36z" />
    <glyph glyph-name="omicrontonos" unicode="&#x3cc;" horiz-adv-x="379" 
d="M263 266c0 50 -10 87 -48 87c-66 0 -112 -129 -112 -226c0 -52 15 -84 48 -84c67 0 112 112 112 223zM346 283c0 -147 -82 -283 -203 -283c-91 0 -121 67 -121 141c0 50 13 126 46 183c26 43 51 60 77 60c15 0 24 -4 31 -7c23 18 46 28 77 28c52 0 93 -39 93 -122z
M268 623c4 -3 5 -8 5 -15c1 -36 -31 -116 -66 -144c-7 -6 -19 -9 -22 -5c-2 2 -1 4 2 9c23 42 38 102 40 153c0 5 -1 11 -1 14s2 5 5 5c10 0 26 -7 37 -17z" />
    <glyph glyph-name="upsilontonos" unicode="&#x3cd;" 
d="M345 324c0 -140 -59 -321 -203 -321c-75 0 -117 36 -117 118c0 58 34 163 34 217c0 23 -6 25 -6 30c0 8 21 20 46 20c29 0 41 -20 41 -44c0 -49 -39 -155 -39 -215c0 -48 16 -73 58 -73c83 0 120 144 120 257c0 47 -17 54 -17 60c0 11 23 18 46 18c33 0 37 -30 37 -67z
M267 610c4 -3 5 -8 5 -15c1 -36 -31 -116 -66 -144c-7 -6 -19 -9 -22 -5c-2 2 -1 4 2 9c23 42 38 102 40 153c0 5 -1 11 -1 14s2 5 5 5c10 0 26 -7 37 -17z" />
    <glyph glyph-name="omegatonos" unicode="&#x3ce;" horiz-adv-x="580" 
d="M548 331c0 -140 -69 -332 -202 -332c-47 0 -83 31 -94 76c-28 -51 -83 -73 -122 -73c-60 0 -102 31 -102 129c0 88 35 196 55 230c10 17 22 34 45 34c24 0 59 -14 59 -24c0 -5 -10 -16 -18 -27c-21 -32 -60 -116 -60 -217c0 -46 16 -70 40 -70c50 0 80 69 114 212
c4 17 9 22 20 27c12 5 29 11 46 11c8 0 13 -3 13 -10c0 -8 -16 -108 -16 -170c0 -49 13 -72 41 -72c78 0 109 160 109 266c0 46 -17 53 -17 60c0 10 25 17 48 17c33 0 41 -24 41 -67zM383 603c4 -3 5 -8 5 -15c1 -36 -31 -116 -66 -144c-7 -6 -19 -9 -22 -5c-2 2 -1 4 2 9
c23 42 38 102 40 153c0 5 -1 11 -1 14s2 5 5 5c10 0 26 -7 37 -17z" />
    <glyph glyph-name="uni037E" unicode="&#x37e;" horiz-adv-x="205" 
d="M123 56c0 -54 -53 -95 -81 -95c-4 0 -8 8 -8 10c0 1 0 2 1 3c14 10 29 28 29 40c-21 4 -33 19 -33 41c0 29 21 48 50 48c27 0 42 -16 42 -47zM169 261c0 -28 -20 -64 -61 -64c-23 0 -41 16 -41 44c0 38 31 64 60 64c27 0 42 -18 42 -44z" />
    <glyph glyph-name="uni0375" unicode="&#x375;" horiz-adv-x="91" 
d="M50 -64c-11 0 -25 1 -32 8c-9 8 -12 35 -12 63c0 47 15 118 40 118c3 0 4 -2 4 -4c0 -6 -5 -18 -5 -56c0 -36 3 -75 15 -108c3 -8 6 -11 6 -15s-8 -6 -16 -6z" />
    <glyph glyph-name="uni0374" unicode="&#x374;" horiz-adv-x="91" 
d="M22 653c11 0 25 -1 32 -8c9 -8 12 -35 12 -63c0 -47 -15 -118 -40 -118c-3 0 -4 2 -4 4c0 6 5 18 5 56c0 36 -3 75 -15 108c-3 8 -6 11 -6 15s8 6 16 6z" />
    <glyph glyph-name="uni0344" unicode="&#x344;" horiz-adv-x="248" 
d="M169 618c4 -3 5 -8 5 -15c1 -36 -31 -116 -66 -144c-7 -6 -19 -9 -22 -5c-2 2 -1 4 2 9c23 42 38 102 40 153c0 5 -1 11 -1 14s2 5 5 5c10 0 26 -7 37 -17zM82 508c0 -22 -16 -51 -49 -51c-18 0 -33 12 -33 35c0 31 25 52 48 52c22 0 34 -15 34 -36zM248 508
c0 -22 -16 -51 -49 -51c-19 0 -34 12 -34 35c0 31 26 52 49 52c21 0 34 -15 34 -36z" />
    <glyph glyph-name="A.alt" horiz-adv-x="496" 
d="M325 247c-9 75 -19 158 -27 240c0 6 -1 8 -5 -1c-35 -77 -82 -163 -122 -243c27 4 57 7 90 7c24 0 45 -1 64 -3zM486 -5c0 -11 -24 -29 -58 -29c-49 0 -67 25 -87 161c-2 16 -5 34 -7 52c-25 4 -52 6 -86 6c-43 0 -78 -5 -110 -11c-24 -56 -42 -107 -44 -147
c-2 -49 10 -46 10 -53s-10 -9 -21 -8c-21 1 -60 15 -60 74c0 108 234 425 234 529c0 29 -3 35 -2 39c0 7 31 14 58 14c46 0 64 -18 68 -62c3 -33 16 -168 27 -273c13 -111 36 -221 54 -256c16 -32 24 -29 24 -36z" />
    <glyph glyph-name="h.alt" horiz-adv-x="395" 
d="M366 57c0 -7 -2 -16 -12 -27c-10 -14 -30 -31 -63 -31c-47 0 -61 38 -61 69c0 61 34 174 34 222c0 31 -12 44 -33 44c-53 0 -99 -79 -118 -161c-5 -24 -22 -113 -28 -155c-2 -10 -5 -17 -19 -17c-15 0 -58 14 -58 32c0 8 3 17 5 26c2 13 95 470 95 518c0 23 -6 25 -6 31
c0 8 22 18 47 18c28 0 41 -17 41 -45c0 -37 -33 -186 -48 -263c32 56 89 84 129 84c56 0 80 -33 80 -80c0 -59 -41 -203 -41 -244c0 -19 6 -31 22 -31c8 0 17 5 22 9c4 4 5 7 9 7c2 0 3 -2 3 -6z" />
    <glyph glyph-name="i.alt" horiz-adv-x="186" 
d="M143 306c0 -29 -41 -177 -41 -235c0 -39 19 -41 19 -52c0 -8 -12 -17 -41 -17c-36 0 -58 23 -58 69c0 60 38 173 38 231c0 23 -6 25 -6 31c0 8 23 18 47 18c29 0 42 -17 42 -45zM175 469c0 -28 -20 -63 -60 -63c-23 0 -42 15 -42 43c0 38 31 64 60 64c27 0 42 -18 42 -44
z" />
    <glyph glyph-name="l.alt" horiz-adv-x="165" 
d="M188 581c0 -36 -24 -141 -45 -253c-5 -26 -50 -218 -50 -289c0 -42 14 -58 25 -66c5 -3 10 -4 10 -8c0 -7 -7 -12 -29 -12c-46 0 -84 26 -84 98c0 31 11 84 16 107c27 140 75 385 75 420c0 22 -6 25 -6 30c0 8 23 18 47 18c29 0 41 -17 41 -45z" />
    <glyph glyph-name="t.alt" horiz-adv-x="230" 
d="M251 399c0 -14 -15 -43 -25 -43c-6 0 -8 7 -28 7c-15 -1 -31 -1 -46 -3c-1 -5 -2 -11 -3 -17c-5 -26 -49 -218 -49 -289c0 -42 14 -59 25 -66c5 -3 10 -5 10 -9c0 -6 -6 -11 -28 -11c-47 0 -85 25 -85 98c0 31 11 83 15 106c12 59 24 121 35 175c-20 -4 -33 -8 -36 -8
c-6 0 -9 2 -9 12c0 13 10 44 20 47c6 2 19 5 36 7c8 47 14 83 14 98c0 22 -6 25 -6 30c0 8 22 19 47 19c28 0 41 -18 41 -46c0 -26 -5 -41 -16 -91c24 2 45 4 56 4c22 0 32 -2 32 -20z" />
    <glyph glyph-name="es.lig" horiz-adv-x="612" 
d="M247 324c0 23 -11 36 -32 36c-61 0 -106 -93 -113 -184c66 10 145 62 145 148zM622 340c2 -44 -34 -69 -72 -71c-11 0 -15 2 -16 6c0 6 21 14 19 45c-1 31 -22 47 -59 46c-29 -1 -63 -20 -62 -54c3 -70 148 -96 151 -190c3 -77 -61 -119 -130 -122
c-81 -3 -133 61 -138 104c-18 -40 -76 -107 -174 -107c-62 0 -120 36 -120 132c0 136 87 276 220 276c55 0 83 -34 83 -72c0 -92 -80 -177 -223 -193c3 -62 35 -89 71 -89c45 0 99 28 136 69c2 3 6 9 10 9c5 0 7 -4 9 -9c30 -58 79 -77 116 -75c41 1 63 24 62 56
c-3 74 -144 86 -148 191c-2 54 53 109 152 112c72 3 112 -23 113 -64z" />
    <glyph glyph-name="ot.lig" horiz-adv-x="634" 
d="M433 240c6 22 16 54 25 86c-3 -1 -7 -2 -11 -4c-21 -9 -48 -27 -79 -44c-14 -170 -142 -277 -233 -277c-77 0 -115 57 -115 130c0 103 41 180 97 238c12 12 32 29 56 29c11 0 16 -5 21 -8c18 17 47 27 73 27c62 0 99 -37 102 -99c22 13 46 27 70 39c11 5 22 10 32 14
c8 30 15 58 18 73c4 28 -1 43 -1 47c0 3 2 4 8 6c19 9 54 16 63 16c8 0 12 -11 12 -28c0 -21 -7 -54 -17 -90c24 4 47 5 72 5s39 -6 39 -17s-13 -33 -21 -33c-7 0 -4 8 -45 8c-11 0 -28 0 -56 -5c-13 -43 -26 -85 -35 -117c-14 -52 -30 -103 -30 -142c0 -33 14 -41 31 -41
c23 0 52 17 67 37c2 3 4 4 6 4c3 0 4 -4 4 -6c0 -29 -62 -85 -117 -85c-59 0 -67 40 -67 75c0 56 18 114 31 162zM291 242c-23 -8 -47 -13 -72 -13c-54 0 -75 24 -87 50c-20 -43 -32 -102 -32 -148c0 -62 19 -88 52 -88c67 0 122 99 139 199zM296 281v24c0 45 -14 73 -50 73
c-34 0 -74 -24 -74 -64c0 -31 21 -48 53 -48c24 0 48 6 71 15z" />
    <glyph glyph-name="iota.alt" horiz-adv-x="189" 
d="M143 306c0 -29 -41 -177 -41 -235c0 -39 19 -41 19 -52c0 -8 -12 -17 -41 -17c-36 0 -58 23 -58 69c0 60 38 173 38 231c0 23 -6 25 -6 31c0 8 23 18 47 18c29 0 42 -17 42 -45z" />
    </font>
</defs>
</svg>
